<?xml version="1.0" encoding="utf-8"?>
<!-- Generator: Adobe Illustrator 23.0.1, SVG Export Plug-In . SVG Version: 6.00 Build 0)  -->
<svg version="1.1" id="Слой_1" xmlns="http://www.w3.org/2000/svg" xmlns:xlink="http://www.w3.org/1999/xlink" x="0px" y="0px"
	 viewBox="0 0 1000 1000" style="enable-background:new 0 0 1000 1000;" xml:space="preserve">
<style type="text/css">
	.st0{fill:#5B6750;}
	.st1{fill:#67745A;}
	.st2{fill:#EE9122;}
	.st3{fill:#F3D349;}
	.st4{fill:none;stroke:#CC7F4D;stroke-width:8.0197;stroke-miterlimit:10;}
	.st5{fill:none;stroke:#CC7F4D;stroke-width:7.5037;stroke-miterlimit:10;}
	.st6{fill:none;stroke:#CC7F4D;stroke-width:7.591;stroke-miterlimit:10;}
	.st7{fill:none;stroke:#CC7F4D;stroke-width:7.8035;stroke-miterlimit:10;}
	.st8{fill:none;stroke:#CC7F4D;stroke-width:8.7533;stroke-miterlimit:10;}
	.st9{fill:none;stroke:#CC7F4D;stroke-width:6.9564;stroke-miterlimit:10;}
	.st10{fill:none;stroke:#CC7F4D;stroke-width:6.8955;stroke-miterlimit:10;}
	.st11{fill:none;stroke:#CC7F4D;stroke-width:9.5716;stroke-miterlimit:10;}
	.st12{fill:none;stroke:#CC7F4D;stroke-width:7.0434;stroke-miterlimit:10;}
	.st13{fill:none;stroke:#CC7F4D;stroke-width:5.2526;stroke-miterlimit:10;}
	.st14{fill:none;stroke:#CC7F4D;stroke-width:4.7926;stroke-miterlimit:10;}
	.st15{fill:none;stroke:#CC7F4D;stroke-width:6.1212;stroke-miterlimit:10;}
	.st16{fill:none;stroke:#CC7F4D;stroke-width:7.161;stroke-miterlimit:10;}
	.st17{fill:none;stroke:#CC7F4D;stroke-width:6.5981;stroke-miterlimit:10;}
	.st18{opacity:0.2;fill:#C2791A;}
	.st19{fill:#7A8A6B;}
	.st20{fill:none;stroke:#CC7F4D;stroke-width:0.6683;stroke-miterlimit:10;}
	.st21{opacity:0.2;fill:#FFFFFF;}
	.st22{opacity:0.2;fill:#4D5843;}
</style>
<g>
	<path class="st0" d="M551.36,200.12c11.2-12.93,26.71-27.97,47.45-41.51c47.94-31.32,96.18-36.59,121.19-37.43
		c-20.52,10.48-43.07,23.53-66.53,39.8c-32.09,22.25-58.24,45.21-79.01,65.94C566.76,217.99,559.06,209.06,551.36,200.12z"/>
	<path class="st1" d="M574.45,310.69c3.76-15.74,12.54-43.12,34.45-70.1c29.91-36.81,66.69-51.24,82.57-56.43
		c-14.28-0.62-41.51,0.18-71.29,14.26c-41.32,19.54-61.51,52.37-68.32,64.75C559.41,279.01,566.93,294.85,574.45,310.69z"/>
	<path class="st2" d="M380.4,428.11c-2.89,3.94-10.72,13.47-24.55,18.22c-19.94,6.84-37.09-1.48-40.4-3.17
		c0.1,5.84-0.11,12.21-0.79,19.01c-1.53,15.29-5.01,28.37-8.71,38.81c-12.67,6.07-25.35,12.14-38.02,18.22
		c-1.36,14.94-1.91,31.98-0.79,50.69c0.64,10.73,1.76,20.79,3.17,30.1c0.16,4.32-0.23,11.47-3.96,19.01
		c-8.56,17.31-27.29,21.58-30.1,22.18c3.93,10.04,7.84,22.55,10.3,37.23c3.78,22.63,2.73,42.13,0.79,56.24
		c-6.07,3.7-12.15,7.39-18.22,11.09c2.5,16.17,6.25,34.31,11.88,53.86c5.97,20.7,12.9,38.98,19.8,54.65
		c-5.02,10.03-10.03,20.07-15.05,30.1c5.43,1.48,13.05,4.05,21.39,8.71c11.66,6.52,18.19,13.47,30.1,26.14
		c18.65,19.85,28.56,36.43,30.89,40.4c4.23,7.21,7.35,13.54,9.5,18.22c4.32,1.95,11.15,4.75,19.8,7.13
		c21.78,5.98,37.29,4.33,56.24,4.75c15.22,0.34,8.48,1.48,53.07,6.34c53.42,5.82,70.6,5,88.71-0.79c8.92-2.85,15.95-6.23,20.59-8.71
		c13.11,1.84,28.93,2.87,46.73,1.58c8.88-0.64,17.09-1.78,24.55-3.17c4.3-8.25,8.58-17.23,12.67-26.93c2.64-6.25,5-12.33,7.13-18.22
		c8.26-0.97,21.29-3.78,34.06-12.67c31.21-21.73,33.09-60.44,33.27-65.74c-2.95-2.7-6.67-7.03-7.13-12.67
		c-0.79-9.81,8.94-15.62,15.84-26.93c4.22-6.92,8.57-17.86,7.92-34.85c6.6-2.9,13.2-5.81,19.8-8.71
		c-8.95-3.64-14.04-8.77-16.63-11.88c-8.48-10.2-12.32-25.59-9.5-38.81c1.61-7.57,4.71-11.16,3.17-18.22
		c-1.25-5.72-4.15-7.33-5.54-13.47c-1.47-6.49,0.31-11.18,1.58-16.63c4.68-19.97-3.05-25.65,1.58-45.94
		c0.93-4.07,2.69-10.2,6.34-17.43c-3.77-0.23-9.01-1.19-13.47-4.75c-10.67-8.54-9.2-25.97-7.92-41.19
		c0.74-8.75,2.76-21.55,8.71-36.44c-7.13,1.58-14.26,3.17-21.39,4.75c-1.92-6.61-4.86-14.53-9.5-22.97
		c-2.85-5.18-5.85-9.66-8.71-13.47c1.48-3.25,3.22-8.37,2.38-14.26c-1.12-7.82-5.94-11-9.5-19.01c-1.97-4.43-4.01-11.35-3.17-21.39
		c-3.86-0.22-9.65-0.66-16.63-1.58c-13.48-1.78-27.09-3.58-41.98-10.3c-5.72-2.58-13.96-6.94-22.97-14.26
		c-28.12-4.68-61.48-8.13-99.01-7.92C458.23,413.35,414.72,420.16,380.4,428.11z"/>
	<path class="st3" d="M440.6,711.67c-19.84,1.67-32.04,14.39-37.23,19.8c-12.87,13.42-16.85,28.57-18.22,35.64
		c5.59,6.25,11.82,14.38,17.43,24.55c10.69,19.4,14.43,37.66,15.84,49.9c8.57-4.85,19.16-9.96,31.68-14.26
		c17.29-5.93,32.89-8.46,45.15-9.5c1.79-8.7,3.73-22.3,2.38-38.81c-1.57-19.15-3.58-43.59-22.18-57.82
		C461.22,710.3,444.57,711.34,440.6,711.67z"/>
	<path class="st3" d="M377.23,619.79c-8.67,3.95-17.35,7.9-24.55,17.43c-8.66,11.45-12.69,27.65-8.71,41.98
		c3.29,11.86,9.52,13.27,15.84,26.93c6.33,13.68,6.83,26.87,6.34,35.64c5.81,3.17,11.62,6.34,17.43,9.5
		c5.32-16.88,13.46-25.43,19.8-30.1c13.13-9.67,26.52-8.61,47.52-22.97c4.61-3.15,8.13-6.05,10.3-7.92
		c-9.2-23.48-18.29-42.09-25.35-55.44c-6.09-11.51-9.64-17.17-16.63-20.59C404.84,607.22,387.26,615.22,377.23,619.79z"/>
	<path class="st3" d="M478.61,550.88c-26.26-2.33-42.79,19.54-43.56,20.59c-2.09,2.86-10.32,14.8-9.5,30.89
		c0.68,13.43,7,16.64,19.01,40.4c13.49,26.67,12.71,36.87,19.8,38.02c8.83,1.44,12.33-14.01,37.23-34.85
		c15.31-12.82,19.54-11.63,23.76-19.8c8.76-16.96-0.13-40.19-11.09-53.86C510.13,567.11,498.53,552.65,478.61,550.88z"/>
	<path class="st3" d="M537.23,634.05c-10.97-0.9-20.66,6.03-27.72,11.09c-7.7,5.51-8.43,8.62-25.35,30.89
		c-14.75,19.41-18.54,22.77-17.43,28.51c1.63,8.35,11.23,9.35,21.39,19.01c6.89,6.56,15.09,18.09,18.22,39.6
		c19.52-17.34,34.62-20.48,45.15-19.8c7.5,0.48,13.9,2.98,19.8-0.79c2.01-1.29,8.96-6.49,8.71-27.72
		C579.64,683.75,564.05,636.25,537.23,634.05z"/>
	<path class="st3" d="M602.97,567.52c-11.13-0.95-20.21,7.4-28.51,15.05c-6.05,5.57-23.41,21.55-21.39,40.4
		c1.19,11.04,8.04,13.91,17.43,30.1c8.6,14.84,12.4,28.89,14.26,38.81c9.61-8.3,24.39-18.55,44.36-22.97
		c14.74-3.26,22.41-1.16,26.93-7.13c7.87-10.39-4.3-31.41-18.22-55.44C623.28,581.23,615.72,568.6,602.97,567.52z"/>
	<path class="st3" d="M622.77,786.13c5.6-4.86,13.68-12.1,22.97-21.39c14.69-14.68,22.04-22.02,25.35-29.31
		c9.47-20.87,4.57-52.23-11.88-60.2c-6.33-3.06-12.93-1.51-26.14,1.58c-17.11,4.01-34.83,8.17-42.77,22.97
		c-5.22,9.74-4.13,20.18-3.17,29.31c0.32,3.01,1.56,12.96,7.13,24.55C602.55,770.91,615.33,781.12,622.77,786.13z"/>
	<path class="st3" d="M521.39,763.16c-4.28,2.87-10.09,6.77-14.26,14.26c-7.8,14.03-4.81,31.67,1.58,43.56
		c9.26,17.23,21.25,14.2,31.68,32.47c9.23,16.18,5.85,29.1,11.09,30.1c8.57,1.64,11.65-34.06,38.81-46.73
		c8.16-3.81,15.92-4.33,23.76-12.67c2.12-2.25,10.62-11.29,8.71-20.59c-1.63-7.94-9.46-9.27-21.39-19.01
		c-17.29-14.12-12.71-21.01-24.55-27.72C559.6,747.05,535.68,753.57,521.39,763.16z"/>
	<path class="st3" d="M616.43,834.44c-9.39-0.16-17.35,8.08-33.27,24.55c-17.38,17.99-26.07,26.99-27.72,40.4
		c-3.48,28.27,25.37,59.73,43.56,57.03c6.48-0.96,6.94-5.57,21.39-18.22c20.73-18.15,28.53-16.32,34.06-25.35
		C668.84,889.39,641.9,834.89,616.43,834.44z"/>
	<path class="st3" d="M679.8,742.56c-7.75-0.07-11.44,7.67-32.47,33.27c-12.37,15.05-13.43,15.23-14.26,19.01
		c-2.78,12.75,7.6,18.73,20.59,47.52c8.64,19.15,8.19,25.69,13.47,26.93c10.97,2.58,27.57-22.31,34.85-43.56
		c1.5-4.37,14.89-45.25-6.34-72.08C692.15,749.23,686.92,742.63,679.8,742.56z"/>
	<path class="st3" d="M477.03,829.69c-15.7-0.1-59.3,20.28-45.15,13.47l0,0c0,0-5.16,9.56-5.54,10.3
		c-4.4,8.35-5.03,38.55,17.43,76.04c8.08,13.5,21.88,36.54,33.27,34.06c9.5-2.07,6.43-19.54,21.39-30.1
		c14.79-10.44,28.36-0.83,38.02-10.3c13.16-12.9,1.19-43.76,0-46.73C526.86,852.48,502.49,829.86,477.03,829.69z"/>
	<path class="st3" d="M359.01,890.68c-14.03,12.17-8.94,35.42-7.92,39.6c6.98,28.6,38.14,44.61,62.57,46.73
		c5.54,0.48,27.84,2.42,34.06-8.71c4.8-8.58-2.48-20.45-16.63-43.56c-11.96-19.53-18.17-29.4-29.31-34.85
		C400.53,889.27,374.7,877.07,359.01,890.68z"/>
	<path class="st3" d="M352.68,777.41c-16.8,7.45-27.62,26.8-25.35,42.77c1.52,10.66,7.32,8.87,22.18,34.85
		c7.69,13.44,8.3,17.71,14.26,20.59c8.99,4.36,14.64-1.94,30.1,0.79c13.52,2.39,16.55,8.51,20.59,6.34
		c11.83-6.36-8.59-61.64-10.51-66.83c-12.59-34.08-22.08-39.13-27.51-40.89C365.79,771.59,355.86,776,352.68,777.41z"/>
	<path class="st3" d="M302.78,681.57c-7.67,3.71-9.59,13.95-11.88,26.14c-1.25,6.67-3.61,23.19,3.96,52.28
		c2.95,11.34,11.66,44.82,21.39,44.36c5.92-0.28,4.64-12.77,16.63-23.76c14.84-13.59,32.1-8.51,34.85-17.43
		c2.21-7.18-8.76-11.16-15.84-30.1c-4.96-13.27-1.21-15.67-5.54-25.35C338.36,689.92,315.49,675.42,302.78,681.57z"/>
	<path class="st3" d="M393.86,505.73c-15.73-7.51-52.35,18.14-58.61,48.32c-2.06,9.91,1.56,8.78,3.17,47.52
		c0.76,18.38,0.28,26.52,4.75,28.51c6.42,2.86,12.64-11.59,32.47-19.8c19.23-7.96,28.59-0.68,35.64-8.71
		c5.19-5.91,3.39-13.59-3.96-49.11C398.9,511.72,398.39,507.9,393.86,505.73z"/>
	<path class="st3" d="M427.13,467.72c-4.43,2.56-17.27,9.99-21.39,23.76c-5.32,17.82,10.37,24.89,14.26,59.4
		c1.36,12.08,0.58,21.33,3.96,22.18c4.11,1.03,6.67-12.26,18.22-21.39c17.1-13.51,33.15-1.5,45.94-12.67
		c13.09-11.44,13.3-38.91,1.58-57.03c-2.51-3.88-11.85-17.04-29.31-20.59C444.23,458.09,431.55,465.16,427.13,467.72z"/>
	<path class="st3" d="M531.68,477.22c-12.21,2.4-19.06,13.97-22.97,20.59c-1.55,2.61-14.14,24.65-5.54,45.94
		c6.62,16.38,18.55,14.42,26.93,32.47c8.37,18.03,2.69,33.4,7.92,34.85c4.94,1.37,8.49-12.75,23.76-26.93
		c18.88-17.53,35.34-16.25,37.23-27.72c0.85-5.16-2.25-6.86-11.09-22.97c-12.21-22.26-9.24-24.39-16.63-34.06
		C569.09,496.53,551.38,473.35,531.68,477.22z"/>
	<path class="st3" d="M576.83,451.08c-3.09,3,6.15,14.42,0.79,21.39c-3.62,4.71-10.26,2.64-11.88,6.34
		c-2.1,4.78,7.74,11.11,15.84,22.18c13.47,18.41,12.41,36.68,16.63,36.44c4.33-0.25,1.54-19.2,15.05-32.47
		c7.69-7.55,13.38-6.12,15.05-11.09C633.6,478.14,583.03,445.05,576.83,451.08z"/>
	<path class="st3" d="M633.86,502.57c-9.76,1.9-15.77,10.96-19.01,15.84c-1.35,2.04-10.14,15.7-7.13,31.68
		c2.89,15.35,13.49,15.98,27.72,36.43c16.12,23.18,14.6,39.75,22.97,40.4c6.33,0.49,12.4-9.97,24.55-30.89
		c8.42-14.5,12.64-21.9,12.67-29.31c0.06-12.58-7.44-21.34-19.01-34.85C662.92,515.87,649,499.61,633.86,502.57z"/>
	<path class="st3" d="M323.37,565.14c-7.72-3.03-22.68,14.51-30.89,29.31c-18.47,33.28-16.12,76.67-3.17,81.58
		c5.77,2.19,9.87-4.68,29.31-7.13c12.01-1.51,13.39,0.74,16.63-1.58c9.88-7.08-2.19-28.47-6.34-74.45
		C327.33,575.32,328.05,566.98,323.37,565.14z"/>
	<path class="st3" d="M241.79,762.36c-3,14.41,8.11,17.96,22.97,53.07c1.25,2.95,3.15,7.6,6.34,7.92
		c5.16,0.52,6.66-11.03,19.01-19.8c5.39-3.83,8.17-3.81,9.5-7.13c2.41-6.02-4-12.83-7.92-19.01c-16.07-25.36,2.17-52.32-11.88-61.78
		c-5.47-3.68-13.64-3.23-18.22,0c-5.9,4.16-4.02,11.64-8.71,25.35C247.9,755.49,243.67,753.3,241.79,762.36z"/>
	<path class="st3" d="M286.14,820.98c-13.34,15.06-11.54,35.35-11.09,40.4c2.26,25.41,19.44,40.74,23.76,44.36
		c3.62,3.03,25.42,21.28,38.81,13.47c12.06-7.04,9.3-30.59,8.71-35.64c-0.51-4.34-1.74-10.9-16.63-38.02
		c-17.29-31.48-22.2-34.62-26.93-34.85C295.58,810.33,289.87,816.77,286.14,820.98z"/>
	<path class="st3" d="M480.99,977.01c-4.25-13.35,21.69-31.59,22.97-32.47c4.9-3.38,18.7-12.91,37.23-11.09
		c18.37,1.81,40.06,14.64,39.6,27.72c-0.53,15.11-30.38,24.3-45.15,26.93C515.53,991.69,485.11,989.96,480.99,977.01z"/>
	<path class="st3" d="M653.66,928.7c-5.32-3.4-21.76,11.2-54.65,40.4c-6.49,5.76-9.51,8.64-8.71,11.09
		c2.23,6.84,34.4,10.44,52.77-7.39C657.84,958.44,660.64,933.16,653.66,928.7z"/>
	<path class="st3" d="M703.56,848.7c-8.94-0.22-16.16,20.34-23.76,41.98c-6.72,19.12-10.08,28.68-6.34,31.68
		c7.23,5.8,42.55-11.65,45.94-38.81C721.42,867.35,711.94,848.9,703.56,848.7z"/>
	<path class="st3" d="M699.6,596.82c-14.98,0.63-26.05,29.63-28.51,49.9c-3.64,29.97,8.34,67.32,24.55,68.91
		c16.12,1.58,37.24-32.12,36.44-63.37C731.4,625.99,715.09,596.17,699.6,596.82z"/>
	<path class="st3" d="M359.41,468.71c-19.48,2.8-29.22,4.2-36.24,10.1c-6.45,5.42-7.97,11.48-13.07,31.48
		c-13.14,51.58-14.84,57.76-11.88,59.4c4.59,2.56,15.31-8.65,30.89-24.95c11.2-11.71,20.12-21.18,27.92-36.24
		c5.85-11.29,15.42-34.11,8.91-39.21C364.39,468.08,362.42,468.27,359.41,468.71z"/>
	<path class="st4" d="M529.31,817.41c3.23-1.65,14.73-8.02,20.2-21.98c3.47-8.86,2.94-16.77,2.38-20.79
		c-0.05,4.07,0.33,15.62,8.32,26.73c6,8.35,13.43,12.48,17.23,14.26"/>
	<path class="st5" d="M610.04,735.27c2.95-1.4,13.53-6.9,19.48-20.41c3.78-8.57,3.98-16.5,3.83-20.54
		c-0.39,4.05-1.04,15.58,4.99,27.25c4.53,8.76,10.66,13.43,13.82,15.48"/>
	<path class="st4" d="M361.13,668.88c3.62-0.09,16.75-0.87,27.71-11.09c6.96-6.49,9.9-13.86,11.13-17.72
		c-1.81,3.65-6.45,14.22-4.05,27.7c1.8,10.12,6.72,17.05,9.38,20.3"/>
	<path class="st6" d="M493.48,628.23c-2.75-3.66-5.86-8.72-8.21-15.3c-5.02-14.07-3.73-27.19-2.56-34.07
		c-2.12,5.78-6.13,14.67-13.58,23.72c-5.91,7.18-11.98,12.01-16.46,15.07"/>
	<path class="st7" d="M350.87,842.19c3.18-3.61,6.85-8.61,9.85-15.18c6.43-14.05,6.2-27.37,5.57-34.38
		c1.72,5.93,5.13,15.07,12.12,24.5c5.55,7.48,11.45,12.59,15.86,15.85"/>
	<path class="st8" d="M580.37,913.89c4.19-3.48,9.16-8.42,13.67-15.18c9.63-14.47,11.7-29.16,12.2-36.97
		c0.89,6.78,3.12,17.37,9.31,28.82c4.91,9.09,10.63,15.62,15,19.88"/>
	<path class="st9" d="M656.05,817.2c2.82-2.46,6.2-6.17,9.34-11.74c6.71-11.92,8.53-25.68,9.12-33.11
		c0.35,6.75,1.44,17.46,5.05,29.86c2.87,9.84,6.34,17.38,9.02,22.44"/>
	<path class="st10" d="M681.26,671.16c2.52-1.44,11.53-7.07,16.74-20.64c3.31-8.61,3.58-16.53,3.51-20.57
		c-0.38,4.05-1.08,15.58,3.87,27.16c3.71,8.69,8.84,13.27,11.48,15.28"/>
	<path class="st11" d="M575.77,640.94c4.08-1.67,18.67-8.21,26.32-23.93c4.85-9.97,4.72-19.14,4.29-23.81
		c-0.33,4.69-0.62,18.03,8.48,31.41c6.84,10.05,15.72,15.33,20.28,17.65"/>
	<path class="st10" d="M309.88,766.26c1.96-2.13,8.85-10.23,9.71-24.74c0.54-9.21-1.59-16.84-2.88-20.67
		c0.86,3.98,3.69,15.18,11.9,24.71c6.17,7.16,12.44,9.97,15.57,11.09"/>
	<path class="st10" d="M286.29,645.08c2.52-1.44,11.53-7.07,16.74-20.64c3.31-8.61,3.58-16.53,3.51-20.57
		c-0.38,4.05-1.08,15.58,3.87,27.16c3.71,8.69,8.84,13.27,11.48,15.28"/>
	<path class="st10" d="M356.88,580.5c2.36-1.69,10.76-8.2,14.57-22.22c2.42-8.9,1.89-16.81,1.41-20.82
		c0.03,4.07,0.5,15.61,6.59,26.63c4.57,8.27,10.14,12.31,12.97,14.04"/>
	<path class="st10" d="M430.72,523.19c2.58-1.33,11.83-6.56,17.63-19.89c3.68-8.46,4.3-16.36,4.41-20.4
		c-0.56,4.03-1.76,15.52,2.67,27.3c3.33,8.85,8.25,13.65,10.8,15.77"/>
	<path class="st12" d="M568.04,548.82c-2.76-1.13-12.71-5.64-19.59-18.5c-4.36-8.16-5.51-16-5.88-20.03
		c0.84,3.98,2.82,15.36-1.05,27.47c-2.9,9.09-7.71,14.27-10.23,16.59"/>
	<path class="st13" d="M316.05,516.91c1.91-0.99,8.93-4.96,16.48-16.93c4.79-7.6,7.64-14.99,8.97-18.79
		c-1.59,3.74-5.9,14.46-7.03,26.04c-0.85,8.69,0.5,13.73,1.31,16.01"/>
	<path class="st10" d="M649.52,573.64c1.5-2.48,6.66-11.77,4.65-26.16c-1.28-9.14-4.87-16.2-6.89-19.7
		c1.62,3.73,6.6,14.15,16.53,21.89c7.46,5.81,14.16,7.33,17.45,7.81"/>
	<path class="st14" d="M587.24,499.2c1.36-1.49,6.12-7.13,6.68-17.22c0.35-6.4-1.15-11.7-2.05-14.36c0.61,2.76,2.6,10.54,8.34,17.15
		c4.31,4.96,8.67,6.9,10.85,7.67"/>
	<path class="st15" d="M289.35,883.26c1.65-2.81,3.42-6.82,4.48-12.38c2.27-11.88,0.01-24.15-1.53-30.68
		c2.13,5.71,5.95,14.64,12.31,24.4c5.05,7.74,9.97,13.36,13.56,17.05"/>
	<path class="st16" d="M382.29,952.58c2.55-3.28,5.44-7.88,7.65-14.03c4.72-13.16,3.66-26.05,2.65-32.86
		c1.89,5.84,5.47,14.89,12.2,24.46c5.34,7.59,10.84,12.91,14.92,16.34"/>
	<path class="st17" d="M512.95,984.68c2.69-3.05,5.79-7.28,8.33-12.83c5.43-11.88,5.25-23.14,4.71-29.07
		c1.45,5.01,4.34,12.74,10.25,20.71c4.69,6.33,9.68,10.65,13.41,13.4"/>
	<path class="st3" d="M709.9,722.76c-5.49,8.85-5.11,18.04-4.75,24.55c1.03,18.74,9.23,22.52,14.26,45.15
		c3.93,17.71,1.56,27.36,3.96,27.72c3.97,0.6,14.82-25.21,15.05-53.07c0.11-13.53-2.39-14.49-2.38-34.85
		c0.01-15,1.37-21.5-2.38-23.76C728.29,705.27,716.01,712.9,709.9,722.76z"/>
	<path class="st3" d="M255.25,645.14c-2.19,4.44-4.2,11.05-1.58,31.68c1.86,14.63,2.87,21.98,7.13,23.76
		c4.65,1.95,11.84-1.27,15.05-6.34c3.71-5.86,0.13-11.1-4.75-31.68c-4.14-17.47-4.4-25.66-7.92-26.14
		C259.78,635.97,256.27,643.07,255.25,645.14z"/>
	<path class="st18" d="M315.45,443.16c3.48,1.76,8.04,3.59,13.54,4.69c12.71,2.52,23.3-0.31,28.75-2.23
		c8.87-9.93,17.74-19.86,26.61-29.79c79.6-0.59,159.21-1.19,238.81-1.78c13.97,10.15,27.94,20.29,41.91,30.44
		c-1.44,7.25-4.72,18.93-12.81,31.19c-8.96,13.58-19.68,21.58-26.13,25.69c0.6-2.83,2.51-13.51-3.87-23.02
		c-2.08-3.1-4.51-5.29-6.57-6.79c-2.76,3.48-7.75,8.86-15.5,13.21c-8.52,4.77-16.43,6.09-20.99,6.5c1.03-0.93,6.17-5.76,6.53-13.66
		c0.44-9.58-6.53-15.5-7.32-16.15c-2.83,6.96-8.59,18.26-20,28.04c-23.23,19.91-51.5,17.82-57.62,17.23
		c-1.78-7.33-3.56-14.65-5.35-21.98c-9.11,7.33-18.22,14.65-27.33,21.98c-5.12-7.94-10.24-15.88-15.37-23.82
		c0.59,8.21,1.18,16.42,1.77,24.64c-7.78,1.31-27.49,3.56-49.65-5.91c-22.5-9.62-34.56-25.79-38.93-32.33
		c-1.07,0.06-12.74,0.97-19.01,11.29c-5.26,8.67-2.81,17.55-2.38,19.01c-5.68-6.09-12.88-15.13-19.01-27.33
		C319.95,461.13,317.04,450.91,315.45,443.16z"/>
	<path class="st19" d="M378.77,389.1c-19.92,11.36-26.06,32.36-29.11,42.77c-4.8,16.42-3.83,30.69-2.58,39.13
		c3.06-6.02,7.99-14.4,15.65-23.09c10.87-12.34,21.67-19,31.48-24.95c10.02-6.07,24.94-13.81,44.55-19.6
		c-2.09-4.23-7.34-13.27-17.82-18.42C402.21,375.74,382.72,386.85,378.77,389.1z"/>
	<path class="st1" d="M512.67,139.01c-8-17.43-19.83-38.33-37.43-59.4C435.83,32.4,389.01,10.14,362.38,0
		c11.96,17.22,24.66,38.19,36.24,62.97c17.19,36.8,26.67,70.77,32.08,98.02c5.45,24.25,26.56,39.73,45.74,38.02
		C499.75,196.93,520.63,169.41,512.67,139.01z"/>
	<path class="st0" d="M553.66,63.56c-21.84,15.34-35.15,31.5-39.8,37.43c-24.14,30.77-32.45,63.3-35.64,81.98
		c38.3,32.82,55.84,34.64,64.75,29.7c12.79-7.09,6.99-27.67,26.14-70.69c8.36-18.77,11.6-19.67,16.04-33.27
		c8.12-24.89,5.79-48.08,2.38-64.16C578.27,48.59,566.4,54.62,553.66,63.56z"/>
	<path class="st19" d="M558.4,208.29c8.84-20.46,24.29-48.99,51.11-76.41C659.56,80.71,718.21,65.15,743.76,60
		c-53.09,5.32-93.25,19.4-119.4,30.89c-38.42,16.88-69.61,31.58-77.23,61.78C541.44,175.2,551.43,196.53,558.4,208.29z"/>
	<path class="st19" d="M484.16,216.23c-4.64-11.05-12.1-26.51-23.76-43.37c-36.71-53.03-84.55-75.69-94.45-80.2
		c-40.09-18.25-76.77-20.61-98.61-20.2c21.26,8.87,54.55,25.9,86.73,57.62c28,27.6,44.58,55.89,54.06,75.44
		C433.47,209.11,458.81,212.67,484.16,216.23z"/>
	<path class="st0" d="M485.35,239.4c-7.98-12.05-21.49-28.85-42.77-42.77c-45.9-30.02-94.54-24.75-109.31-22.57
		c11.33,5.27,28.39,14.95,44.55,32.08c21.89,23.2,30.77,47.99,34.45,61.19c15.09,13.41,36.38,15.87,52.28,6.53
		C483.03,263.01,485.17,241.55,485.35,239.4z"/>
	<path class="st19" d="M392.68,204.95c-5.91-3.1-27.64-13.99-59.4-17.23c-19.76-2.02-37.5-0.47-52.28,2.38
		c17.68,4.54,42.3,13.04,68.32,29.7c34.67,22.2,56.04,48.8,67.72,65.94c2.66-3.09,21.02-24.99,14.26-47.52
		C426.65,222.75,412.74,215.46,392.68,204.95z"/>
	<path class="st1" d="M442.58,196.63c8.18-18.1,20.1-28.83,28.51-36.24c27.99-24.64,59.89-32.72,79.6-35.64
		c2.15,16.49,4.03,33.67,5.54,51.48c1.2,14.11,2.11,27.84,2.77,41.19c-13.74,25.63-27.48,51.27-41.23,76.9
		c-28.48,8.4-58.05,0.86-74.02-19.08C420.3,245.95,438.6,205.42,442.58,196.63z"/>
	<path class="st19" d="M470.5,261.38c6.43-9.38,15.61-20.17,28.51-29.7c42.62-31.49,92.7-24.84,106.33-22.57
		c-12.39,12.77-18.6,24.75-21.98,33.27c-5.53,13.95-3.73,19.28-11.88,42.77c-4.27,12.29-12.06,19.78-20.2,29.7
		c-11.98,14.61-17.98,21.91-23.56,22.97C504.29,342.26,473.33,268.28,470.5,261.38z"/>
	<path class="st1" d="M403.37,272.67c-8.86-6.72-30.02-20.87-60.59-23.76c-23.81-2.26-42.74,3.31-52.87,7.13
		c13.85,2.78,33.04,8.35,53.46,20.2c32.22,18.69,50.85,43.38,60,57.62c11.11,17.39,30.97,24.43,46.34,18.42
		c14.78-5.79,22.25-22.43,21.39-35.05C469.6,295.47,442.57,273.96,403.37,272.67z"/>
	<path class="st19" d="M581.29,327.92c6.77-9.31,17.29-21.52,32.67-32.67c23.09-16.74,45.91-22.97,59.41-25.54
		c-27.32-6.31-48.38-2.39-59.41,0.59c-18.35,4.97-30.94,13.33-43.96,21.98c-19.47,12.93-33.52,26.61-42.77,36.83
		c21.17,16.91,41.83,20.84,49.9,13.07C578.7,340.65,581.68,336.87,581.29,327.92z"/>
	<path class="st20" d="M543.56,352.87"/>
	<path class="st1" d="M545.24,364.36c3.31-13.05,11.38-35.89,32.08-53.46c33.82-28.71,87.18-31.33,134.85-6.53
		c-12.28-1.78-35.17-3.29-60.59,6.53c-47.97,18.54-66.62,62.6-70.1,71.29C569.4,376.24,557.32,370.3,545.24,364.36z"/>
	<path class="st19" d="M592.26,374.25c3.8-5.42,13.77-18.02,31.48-24.36c29.79-10.65,55.99,5.54,59.4,7.72
		c-3.08-6.01-10.29-17.93-24.36-26.14c-20.87-12.17-46.51-10.12-65.35,0.59c-17.56,9.99-25.57,25.45-28.51,32.08
		C574.04,367.52,583.15,370.89,592.26,374.25z"/>
	<path class="st19" d="M413.47,374.25c-3.81-3.4-17.68-14.93-38.02-14.85c-20.07,0.08-38.9,11.42-48.12,27.92
		c-3.87,6.93-5.32,13.47-5.94,17.82c3.23-4.24,12.49-15.19,28.51-19.6c26.26-7.24,47.59,9.42,49.9,11.29
		C404.36,389.3,408.91,381.78,413.47,374.25z"/>
	<path class="st0" d="M413.47,374.25c-3.77,1.56-31.46,13.49-37.43,39.21c-6.62,28.52,15.7,64.4,56.63,75.64
		c-7.23-18.28-12.61-41.65-2.38-60.99c9.83-18.56,29.06-24,27.72-34.06C457.19,387.8,448.45,380.17,413.47,374.25z"/>
	<path class="st19" d="M645.15,395.04c4.7,4.18,16.57,15.91,19.6,34.45c3.7,22.64-7.26,46.32-27.92,61.19
		c0.68-6.91,1.36-23.94-8.91-40.4c-12.82-20.56-37.58-32-64.16-30.3c1.78-11.48,3.56-22.97,5.35-34.45
		C594.45,388.71,619.8,391.87,645.15,395.04z"/>
	<path class="st1" d="M500.49,404.55c3.79,3.05,15.25,13.05,19.01,30.3c5.34,24.47-9.24,43.2-11.29,45.74
		c8.88-2.3,36.73-10.72,53.46-37.43c9.19-14.67,20.12-42.97,8.91-54.65C559.98,377.45,530.35,382.13,500.49,404.55z"/>
	<path class="st19" d="M464.65,371.84c-7.39,0.9-22.58,3.96-32.17,16.07c-15.05,19-11.21,53.8,14.46,80.59
		c3.05-13.16,9.51-33.46,24.16-54.45c19.8-28.38,44.23-43.21,57.36-49.96c-14.46-14.11-34.14-18.02-48.26-10.43
		C470.73,358.75,466.36,367.62,464.65,371.84z"/>
	<path class="st0" d="M454.46,364.15c-5.46-16.87-13.82-27.81-20.2-34.45c-42.15-43.92-115.76-23.07-119.4-21.98
		c12.21,2.43,38.71,9.5,62.38,32.08c14.04,13.4,22.15,27.56,26.73,37.43c1,0.6,19.73,11.39,36.83,1.78
		C448.8,374.51,452.79,367.59,454.46,364.15z"/>
	<path class="st19" d="M499.21,388.51c4.21,5.87,12.41,19.15,12.67,37.23c0.53,36.35-31.56,57.79-34.06,59.4
		c-1.11-11.83-4.48-31.01-15.84-51.48c-7.52-13.55-16.22-23.51-23.21-30.3C458.92,398.41,479.06,393.46,499.21,388.51z"/>
	<path class="st1" d="M594.06,380.19c6.11-5.25,17.13-12.73,30.3-11.88c22.61,1.47,44.63,27.06,46.93,63.56
		c-0.65-1.4-12.17-25.17-37.43-27.92c-16.57-1.8-28.84,6.55-32.08,8.91C599.21,401.97,596.63,391.08,594.06,380.19z"/>
	<path class="st19" d="M690.49,368.31"/>
	<path class="st1" d="M550.38,363.9c5.66-3.76,14.23-8.26,25.26-9.85c22.82-3.3,58.39,5.55,68.12,36.04
		c8.39,26.29-6.01,57.44-34.85,69.31c0.3-1.19,6.74-29.21-13.47-48.71c-16.31-15.74-37.4-13.79-40.4-13.47
		C553.49,386.12,551.94,375.01,550.38,363.9z"/>
	<path class="st0" d="M530.49,316.03c-5.75-13.31-13-22.88-19.6-29.7C463,236.85,378.23,258.58,370.1,260.79
		c14.91,5.23,39.53,16.32,61.19,39.8c8.96,9.71,15.47,19.44,20.2,27.92c14.93,14.5,35.92,19.41,53.46,12.48
		C521.45,334.47,528.7,319.94,530.49,316.03z"/>
	<path class="st1" d="M431.12,366.1c0.3-7.26,2.03-24.09,14.26-38.02c20.2-23.02,55.66-22.86,79.01-13.07
		c28.7,12.04,39.81,38.93,42.25,44.85c6.28,15.21,6.8,28.97,6.46,37.13c-6.23-8.25-19.34-23-40.99-31.48
		c-11.32-4.44-30.79-12.06-51.68-3.56c-17.14,6.97-25.95,21.01-29.11,26.73C444.59,381.14,437.85,373.62,431.12,366.1z"/>
	<path class="st19" d="M490.1,390.88c-10.98-19.87-29.94-33.35-49.11-32.87c-28.39,0.71-56.86,32.04-53.46,73.27
		c0.82-15.19,11.01-28.28,25.35-32.67c13.65-4.18,28.66,0.26,38.02,11.29C463.96,403.56,477.03,397.22,490.1,390.88z"/>
	<path class="st19" d="M532.47,344.15c5.33,0.96,21.13,4.46,34.16,15.7c22.54,19.45,29.48,55.77,18.26,91.79
		c-9.16-10.48-27.48-28.63-56.38-40.96c-32.3-13.77-61.11-13.14-75.25-11.88c0.58-4.33,4.35-29.41,26.93-45.15
		C501.79,338.61,525.18,342.84,532.47,344.15z"/>
	<path class="st21" d="M585.15,542.96c-25.24,17.9-2.19,66.43-1.36,144.26c1.73,160.51-93.02,255.47-65.57,277.91
		c19.83,16.21,82.94-22.23,122.77-62.57c83-84.07,123.09-235.37,59.4-314.45C669.18,549.35,610.6,524.91,585.15,542.96z"/>
	<path class="st21" d="M624.2,573.01c8-7,29.46,2.37,42.93,13.52c27.96,23.13,28.84,61.71,32.47,90.3
		c9.77,76.89-23.08,135.92-32.47,152.87c-37.86,68.35-103.42,109.25-110.1,102.97c-4.9-4.61,27.91-30.43,53.07-88.71
		c11.36-26.3,54.95-127.28,22.57-221.38C626.53,604.71,615.44,580.67,624.2,573.01z"/>
	<path class="st18" d="M266.34,619c1.15,29.04,4.35,69.57,13.47,117.23c3.68,19.23,12.05,63.03,25.35,97.42
		c11.64,30.12,44.91,99.2,143.92,160.33c-6.75-1.27-14.1-2.37-21.99-3.15c-10.64-1.05-20.81-1.13-26.88-1.22
		c-8.1-0.12-10.14,0.07-16.11-0.34c-4.11-0.28-9.87-0.7-17.33-2.14c-3.2-0.62-10.98-2.25-20.58-5.81c-3.52-1.3-6.42-2.55-8.55-3.5
		c-1.4-3.06-3.39-7.19-5.98-11.96c-1.7-3.13-6.28-11.34-13.43-21.32c-4.22-5.89-7.75-10.17-9.77-12.61
		c-4.39-5.31-8.03-9.27-11.21-12.72c-2.87-3.12-5.1-5.54-8.3-8.73c-5-4.98-7.84-7.82-12.21-11.12c-1.58-1.2-5.91-4.39-12.07-7.62
		c-1.9-1-7.53-3.86-15.33-6.32c-1.47-0.46-2.71-0.82-3.57-1.05c1.14-2.27,2.27-4.54,3.41-6.81c2.65-5.31,5.31-10.61,7.96-15.92
		c1.23-2.46,2.46-4.91,3.68-7.37c-0.96-2.19-2.18-5.01-3.56-8.32c-2.91-7-5.16-12.95-6.74-17.26c-2.92-7.98-5.27-15.12-7.12-21.09
		c-1.73-5.58-3.5-11.72-5.24-18.36c-1.42-5.44-2.94-11.67-4.43-18.59c-0.98-4.54-2.53-12.1-4.07-21.53
		c-0.22-1.38-0.41-2.53-0.54-3.36c3.28-2,6.57-4,9.85-6c2.79-1.7,5.58-3.39,8.36-5.09c0.29-2.14,0.62-4.77,0.9-7.8
		c0.47-4.95,0.67-9.13,0.76-12.19c0.22-7.44-0.04-13.56-0.3-17.58c-0.36-5.61-0.92-10.28-1.39-13.64
		c-0.54-3.88-1.39-9.05-2.74-15.08c-0.9-4.02-2.25-9.41-4.25-15.69c-1.42-4.48-2.84-8.34-4.07-11.48c1.35-0.3,3.29-0.8,5.58-1.59
		c8.02-2.81,13.11-6.9,14.22-7.82c3.91-3.22,6.23-6.29,6.88-7.17C264.48,622.47,265.59,620.51,266.34,619z"/>
	<path class="st22" d="M543.17,281.78c-1.94,1.24-3.7,2.55-5.36,3.87c-3.36-9.57-15.79-19.57-22.76-25.16
		c-6.23-5-15.91-11.67-29.51-17.21c5.03-5,9.48-8.57,12.14-10.6c3.22-2.44,7.76-5.64,13.49-8.89c2.69-1.53,9.78-5.41,19.59-8.91
		c3.08-1.1,11.52-3.98,22.85-5.87c1.97-0.33,3.62-0.56,4.78-0.71c4.3-8.59,8.59-17.18,12.89-25.77c-0.87-5.43-1.56-11.23-1.98-17.37
		c-1.2-17.64,0.18-33.32,2.43-46.34c2.16-1.73,4-3.06,5.25-3.93c1.81-1.25,4.41-2.95,7.69-4.77c0.95-2.79,1.86-5.85,2.68-9.16
		c0.72-2.91,1.27-5.68,1.71-8.28c-19.79,4.92-41.74,11.87-64.91,21.79c-9.68,4.15-18.78,8.47-27.3,12.86
		c-3.06,6.85-6.12,13.7-9.18,20.55c1.7-1.1,3.89-2.45,6.47-3.94c1.92-1.1,5.89-3.32,11.15-5.77c2.51-1.17,8.15-3.71,15.69-6.28
		c2.61-0.89,8.85-2.94,17.14-4.8c4.85-1.09,9.12-1.82,12.56-2.33c0.41,3.15,0.81,6.33,1.2,9.53c0.21,1.7,0.41,3.39,0.61,5.08
		c0.55,4.71,1.24,10.78,1.96,17.85c0.54,5.33,1.41,13.86,2.27,25.03c0.16,2.07,0.33,4.31,0.49,6.64c-7.69,1.8-18.07,4.37-30.29,7.76
		c-50.84,14.13-65.68,23.86-70.69,27.33c-10.16,7.02-18.01,14.62-23.96,21.39c0.14,1.88,0.38,3.9,0.76,6.05
		c0.19,1.08,0.41,2.12,0.65,3.1c1.89,0.11,4.39,0.3,7.32,0.61c8.3,0.89,14.44,2.22,16.01,2.56c3.76,0.83,8.34,2.01,13.48,3.71
		c3.18,1.05,7.33,2.59,12.01,4.82c11.02,5.24,18.61,11.26,22.09,14.21c7.33,6.21,12.81,12.68,16.86,18.37
		c-2.6-0.97-5.78-2.03-9.51-2.96c-8.31-2.07-32.65-8.13-56.5,4.57c-5.09,2.71-21.94,11.69-28.91,31.09
		c-2.7,7.51-3.08,14.27-2.97,18.81c-4.22,0.78-9.04,1.96-14.26,3.76c-5.74,1.98-10.66,4.26-14.72,6.45
		c1.37,2.05,2.75,4.26,4.11,6.61c2.04,3.52,3.78,6.91,5.26,10.12c1.41-1.58,3.39-3.65,5.96-5.88c2.63-2.29,7.07-6.1,13.77-9.15
		c2.12-0.97,4.81-2.01,8.03-2.86c0.54-4.32,1.64-9.41,3.79-14.83c2.71-6.85,5.98-11.42,6.83-12.6c2.97-4.08,5.9-6.89,7.65-8.44
		c1.38-1.23,5.72-4.96,12.38-8.22c0.92-0.45,5.14-2.49,11.21-4.12c7.9-2.12,14.22-2.29,17.71-2.36c3.52-0.07,11.43,0,21.13,2.36
		c7.71,1.88,13.13,4.36,14.63,5.07c3.38,1.59,6.13,3.21,8.18,4.52c2.05-2.05,4.45-4.36,7.17-6.85c3.3-3.02,6.18-5.48,8.35-7.27
		c1.97-1.63,5.52-4.52,10.14-7.93c5.05-3.73,9.02-6.34,12.94-8.92c3.8-2.49,7.02-4.51,9.36-5.95c0.74-1.78,1.53-3.6,2.37-5.46
		c0.97-2.14,1.96-4.19,2.95-6.16C582.04,271.32,562.21,269.58,543.17,281.78z"/>
	<path class="st21" d="M501.41,350.25c1.36-4.42,19.29-3.39,31.86,0.24c16.03,4.63,26.07,14.28,30.1,18.61
		c19.47,20.97,22.53,51.65,18.22,53.46c-3.09,1.3-7.67-13.19-24.95-31.29C529.18,362.55,499.62,356.06,501.41,350.25z"/>
	<path class="st21" d="M629.7,95.05c18.49-11.48,38.27-16.66,39.23-14.64c0.75,1.57-10.16,7.05-35.67,24.14
		c-29.52,19.79-38.86,28.51-40.06,27.2C591.53,129.94,606.53,109.44,629.7,95.05z"/>
	<path class="st21" d="M595.3,311.34c11.55-8.17,22.13-11.86,26.08-13.13c27.57-8.86,56.32-4.08,56.43-1.19
		c0.09,2.33-18.46,1.29-48.71,10.69c-30.31,9.43-48.96,22.07-50.49,19.6C577.39,325.37,588.42,316.21,595.3,311.34z"/>
	<path class="st21" d="M591.47,362.42c2.1-2.88,24.02,3.36,34.47,20.54c12.85,21.14,2.75,49.64-0.69,49.61
		c-2.61-0.02-0.07-16.51-10.4-37.73C604.44,373.46,589.6,364.99,591.47,362.42z"/>
	<path class="st7" d="M458.82,907.99c3.18-3.61,6.85-8.61,9.85-15.18c6.43-14.05,6.2-27.37,5.57-34.38
		c1.72,5.93,5.13,15.07,12.12,24.5c5.55,7.48,11.45,12.59,15.86,15.85"/>
	<path class="st7" d="M414.25,779.73c4.53-1.62,10.15-4.23,15.96-8.53c12.41-9.2,18.65-20.97,21.47-27.42
		c-1.36,6.02-2.78,15.67-1.21,27.31c1.24,9.23,3.95,16.56,6.24,21.54"/>
	<path class="st7" d="M503.33,712.92c3.98-2.69,8.79-6.61,13.35-12.22c9.75-11.98,12.88-24.93,14.02-31.88
		c0.17,6.17,1.18,15.87,5.58,26.76c3.49,8.64,7.92,15.06,11.37,19.33"/>
</g>
</svg>
