<?xml version="1.0" encoding="utf-8"?>
<!-- Generator: Adobe Illustrator 23.0.1, SVG Export Plug-In . SVG Version: 6.00 Build 0)  -->
<svg version="1.1" id="Слой_1" xmlns="http://www.w3.org/2000/svg" xmlns:xlink="http://www.w3.org/1999/xlink" x="0px" y="0px"
	 viewBox="0 0 1000 1000" style="enable-background:new 0 0 1000 1000;" xml:space="preserve">
<style type="text/css">
	.st0{fill:#D39F9A;}
	.st1{fill:#E8D4D3;}
	.st2{opacity:0.1;fill:#644C48;}
	.st3{opacity:0.2;fill:#FFFFFF;}
</style>
<g>
	<g>
		<g>
			<g>
				<path class="st0" d="M481.83,1000L196.29,824.29c59.79-30.03,81.23-63.4,89.3-89.44c11.49-37.09-4.69-57.58,14.36-89.75
					c20.46-34.55,48.05-25.96,70-62.82c17.48-29.36,3.45-40.62,21.54-77.18c18.86-38.13,36.89-31.48,53.85-64.62
					c24.25-47.39-6.72-72.47,17.95-116.67c18.33-32.85,39.06-25.47,57.44-62.82c15.38-31.24,6.01-46.84,21.17-70.55
					c14.72-23.02,40.88-35.43,70.18-41.83c95.18,58.57,190.36,117.14,285.54,175.71c-18.26,4.8-42.87,14.58-54.68,36.63
					c-13.02,24.31,1.52,41.15-11.67,65.18c-15.56,28.36-42.67,17.42-66.41,46.67c-22.48,27.68-3.43,47.81-26.92,84.36
					c-17.96,27.94-31.64,20.95-48.31,47.77c-22.69,36.52-2.3,57.48-21.69,90.45c-22.12,37.59-56.36,25.2-78.98,59.23
					c-22.8,34.3,3.06,66.42-3.59,114.88C580.6,904.14,558.73,950.57,481.83,1000z"/>
				<path class="st1" d="M782.88,253.68c-39.59,12.64-54.64,30.84-61.1,44.98c-13.94,30.52,7.98,51.12-7.24,94
					c-9.08,25.59-26.19,44.5-34.05,53.19c-22.05,24.37-30.45,20.75-43.08,39.49c-14.85,22.03-7.3,33.07-19.74,71.8
					c-5.3,16.51-13.34,41.52-32.31,64.62c-28.2,34.33-50.02,27.24-66.41,57.44c-9.03,16.63-9.61,32.04-10.77,62.82
					c-1.72,45.73,9,51.26,1.79,77.18c-9.57,34.47-37.12,55.66-39.49,57.44c-20.64,15.47-33.46,12.46-44.87,26.92
					c-13.11,16.62-11.43,39.89-7.96,56.92c13.55,8.34,27.11,16.68,40.66,25.02c-5.19-14.41-9.33-33.85-0.39-49.63
					c7.66-13.52,18.53-15.02,35.9-26.92c24.55-16.83,46.84-44.66,54.24-73.44c5.19-20.16-2.83-17.85-2.19-70.16
					c0.63-51.34,8.41-64.68,14.36-71.8c10.4-12.44,17.79-10.37,35.9-23.33c28.25-20.22,41.21-47.41,50.26-66.41
					c21.25-44.6,7.54-54.74,25.13-87.95c22.14-41.8,46.18-30.09,68.21-66.41c32.86-54.18-4.84-106.2,30.51-147.19
					c14.76-17.12,34.92-23.79,48.09-26.76C806.51,268.23,794.69,260.95,782.88,253.68z"/>
				<path class="st1" d="M755.33,236.73c-11.34,1.59-29.9,6-46.12,20.05c-21.61,18.72-27.49,44.56-32.81,69.42
					c-9.35,43.69,3.22,47.87-8.01,71.38c-10.4,21.76-21.05,17.95-54.15,58.69c-13.89,17.1-20.96,25.94-27.08,40.44
					c-9.97,23.64-3.83,29.96-13.76,53.85c-8.7,20.92-21.45,35.38-30.82,46c-16.54,18.76-22.34,18.71-33.2,33.58
					c-8.03,10.98-14.48,24.17-19.89,45.56c-19.25,76.04,10.28,115.01-16.28,147.34c-7.45,9.07-6.55,2.07-51.19,33.87
					c-23.78,16.94-35.45,27.05-43.08,43.08c-5.9,12.39-7.38,24.07-7.7,31.96c-3.42-2.28-6.83-4.55-10.25-6.83
					c0.35-7.35,1.81-19.02,7.78-31.71c7.12-15.14,17.07-24.17,24.59-30.84c11.57-10.28,17.03-11.43,39.43-26
					c17.37-11.3,26.06-16.95,29.92-20.94c27.12-28.07-4.72-69.32,14.36-141.8c3.63-13.81,8.75-31.83,22.74-50.26
					c11.79-15.54,17-14.28,33.51-33.51c7.33-8.54,20.5-24.11,29.92-46.67c9.55-22.87,4.5-27.19,13.76-49.66
					c7.41-17.99,16.43-29.49,29.32-45.47c31.48-39.02,43.5-35.18,53.25-57.44c10.52-24.02-3.38-28.74,4.19-68.21
					c3.03-15.83,9.7-51.16,39.03-74.77c14.13-11.38,28.94-16.57,39.55-19.11C746.65,231.39,750.99,234.06,755.33,236.73z"/>
			</g>
		</g>
		<path class="st2" d="M818.33,275.5L818.33,275.5c-11.82-7.27-23.64-14.54-35.45-21.82c-9.18-5.65-18.36-11.3-27.54-16.95h0
			c-4.34-2.67-8.68-5.34-13.02-8.01c-43.41-26.71-86.81-53.42-130.22-80.13c-29.31,6.4-55.46,18.81-70.18,41.83
			c-15.16,23.71-5.79,39.31-21.17,70.55c-18.38,37.35-39.11,29.97-57.44,62.82c-24.67,44.2,6.3,69.29-17.95,116.67
			c-16.96,33.14-34.99,26.49-53.85,64.62c-18.09,36.56-4.06,47.83-21.54,77.18c-21.95,36.87-49.54,28.27-70,62.82
			c-19.05,32.17-2.87,52.66-14.36,89.75c-8.07,26.04-29.51,59.41-89.3,89.44l256.81,158.03c1.73,1.07,3.46,2.13,5.19,3.2
			l23.53,14.48c76.89-49.43,98.77-95.86,103.53-130.53c6.65-48.46-19.21-80.57,3.59-114.88c22.62-34.03,56.86-21.64,78.98-59.23
			c19.4-32.97-1-53.93,21.69-90.45c16.67-26.82,30.35-19.82,48.31-47.77c23.5-36.56,4.45-56.68,26.92-84.36
			c23.75-29.25,50.85-18.31,66.41-46.67c13.19-24.04-1.35-40.87,11.67-65.18c11.81-22.05,36.43-31.83,54.69-36.63
			C871.2,308.03,844.76,291.77,818.33,275.5z"/>
		<g>
			<path class="st0" d="M387.51,851.41L101.97,675.7c59.79-30.03,81.23-63.4,89.3-89.44c11.49-37.09-4.69-57.58,14.36-89.75
				c20.46-34.55,48.05-25.96,70-62.82c17.48-29.36,3.45-40.62,21.54-77.18c18.86-38.13,36.89-31.48,53.85-64.62
				c24.25-47.39-6.72-72.47,17.95-116.67c18.33-32.85,39.06-25.47,57.44-62.82c15.38-31.24,6.01-46.84,21.17-70.55
				C462.3,18.81,488.46,6.4,517.76,0c95.18,58.57,190.36,117.14,285.54,175.71c-18.26,4.8-42.87,14.58-54.68,36.63
				c-13.02,24.31,1.52,41.15-11.67,65.18c-15.56,28.36-42.67,17.42-66.41,46.67c-22.48,27.68-3.43,47.81-26.92,84.36
				c-17.96,27.94-31.64,20.95-48.31,47.77c-22.69,36.52-2.3,57.48-21.69,90.45c-22.12,37.6-56.36,25.2-78.98,59.23
				c-22.8,34.3,3.06,66.42-3.59,114.88C486.27,755.55,464.4,801.98,387.51,851.41z"/>
			<path class="st1" d="M688.55,105.09c-39.59,12.64-54.64,30.84-61.1,44.98c-13.94,30.52,7.98,51.12-7.24,94
				c-9.08,25.59-26.19,44.5-34.05,53.19c-22.05,24.37-30.45,20.75-43.08,39.49c-14.85,22.03-7.3,33.07-19.74,71.8
				c-5.3,16.51-13.34,41.52-32.31,64.62c-28.2,34.33-50.02,27.24-66.41,57.44c-9.03,16.63-9.61,32.04-10.77,62.82
				c-1.72,45.73,9,51.26,1.79,77.18c-9.57,34.47-37.12,55.66-39.49,57.44c-20.64,15.47-33.46,12.46-44.87,26.92
				c-13.11,16.62-11.43,39.89-7.96,56.92c13.55,8.34,27.11,16.68,40.66,25.02c-5.19-14.41-9.33-33.85-0.39-49.63
				c7.66-13.52,18.53-15.02,35.9-26.92c24.55-16.83,46.84-44.66,54.24-73.44c5.19-20.16-2.83-17.85-2.19-70.16
				c0.63-51.34,8.41-64.68,14.36-71.8c10.4-12.44,17.79-10.37,35.9-23.33c28.25-20.22,41.21-47.41,50.26-66.41
				c21.25-44.6,7.54-54.74,25.13-87.95c22.14-41.8,46.18-30.09,68.21-66.41c32.86-54.18-4.84-106.2,30.51-147.19
				c14.76-17.12,34.92-23.79,48.09-26.76C712.18,119.64,700.37,112.36,688.55,105.09z"/>
			<path class="st1" d="M661.01,88.14c-11.34,1.59-29.9,6-46.12,20.05c-21.61,18.72-27.49,44.56-32.81,69.42
				c-9.35,43.69,3.22,47.87-8.01,71.38c-10.4,21.76-21.05,17.95-54.15,58.69c-13.89,17.1-20.96,25.94-27.08,40.44
				c-9.97,23.64-3.83,29.96-13.76,53.85c-8.7,20.92-21.45,35.38-30.82,46c-16.54,18.76-22.34,18.71-33.2,33.58
				c-8.03,10.98-14.48,24.17-19.9,45.56c-19.25,76.04,10.28,115.01-16.28,147.34c-7.45,9.07-6.55,2.07-51.19,33.87
				c-23.78,16.94-35.45,27.05-43.08,43.08c-5.9,12.39-7.38,24.07-7.7,31.96c-3.42-2.28-6.83-4.55-10.25-6.83
				c0.35-7.35,1.81-19.02,7.78-31.71c7.12-15.14,17.07-24.17,24.59-30.84c11.57-10.28,17.03-11.43,39.43-26
				c17.37-11.3,26.06-16.95,29.92-20.94c27.12-28.07-4.72-69.32,14.36-141.8c3.63-13.81,8.75-31.83,22.74-50.26
				c11.79-15.54,17-14.28,33.51-33.51c7.33-8.54,20.5-24.11,29.92-46.67c9.55-22.87,4.5-27.19,13.76-49.66
				c7.41-17.99,16.43-29.49,29.32-45.47c31.48-39.02,43.5-35.18,53.25-57.44c10.52-24.02-3.38-28.74,4.19-68.21
				c3.03-15.83,9.7-51.16,39.03-74.77c14.13-11.38,28.94-16.57,39.55-19.11C652.33,82.8,656.67,85.47,661.01,88.14z"/>
		</g>
	</g>
	<path class="st3" d="M477.57,111.02c-15.34,4.33-12.73,26.79-29.14,49.24c-15.48,21.19-26.74,13.41-38,31.66
		c-11.71,18.99-0.74,29.38-8.44,68.08c-3.35,16.84-6.79,34.08-19.27,51.22c-12.55,17.23-20.15,15.02-40.36,39.02
		c-8.56,10.16-26.46,31.43-20.05,42.22c2.11,3.54,6.11,4.74,7.92,5.28c8.2,2.45,17.99-1.1,38.52-17.94
		c17.75-14.56,26.69-21.89,36.89-35.75c25.02-33.99,30.77-70.71,32.24-80.88c3.45-23.78-0.6-28.94,6.33-42.22
		c10.51-20.13,24.42-17.07,39.05-36.94c17.96-24.4,21.24-61.98,7.92-71.24C485.59,108.87,478.29,110.82,477.57,111.02z"/>
</g>
</svg>
