<?xml version="1.0" encoding="utf-8"?>
<!-- Generator: Adobe Illustrator 23.0.1, SVG Export Plug-In . SVG Version: 6.00 Build 0)  -->
<svg version="1.1" id="Слой_1" xmlns="http://www.w3.org/2000/svg" xmlns:xlink="http://www.w3.org/1999/xlink" x="0px" y="0px"
	 viewBox="0 0 1000 1000" style="enable-background:new 0 0 1000 1000;" xml:space="preserve">
<style type="text/css">
	.st0{fill:#D39F9A;}
	.st1{fill:#E9AEA8;}
	.st2{fill:#E8D4D3;}
	.st3{opacity:0.1;fill:#644C48;}
	.st4{opacity:0.1;fill:#FFFFFF;}
</style>
<g>
	<g id="ветчина">
		<g>
			<g>
				<g>
					<g>
						<ellipse class="st0" cx="239.2" cy="356.16" rx="238.09" ry="203.94"/>
					</g>
					<path class="st0" d="M379.27,501.29c-8.86-15.76-23.55-37.9-46.79-59.44c-8.62-7.99-29.63-27.2-56.91-39.21
						c-58.81-25.89-119.19-6.21-139.12,1.26c17.28-5.34,50.34-12.93,90.64-5.48c14.31,2.64,54.91,10.71,91.48,45.11
						c26.81,25.22,39.18,53.04,44.69,68.3C368.59,508.32,373.93,504.8,379.27,501.29z"/>
					<path class="st0" d="M153.72,535.44c1.49-9.19,5.17-23.28,15.18-37.1c24.06-33.24,64.15-36.61,70.85-37.06
						c-9.54-0.52-30.44-0.3-52.3,11.77c-33.36,18.42-44.11,50.74-46.37,58.18C145.29,532.63,149.51,534.03,153.72,535.44z"/>
					<g>
						<path class="st0" d="M477.2,361.53c-0.25,14.81-2.31,37.05-11.72,61.77c-27.54,72.29-94.36,103.52-116.66,113.94
							c-72.46,33.87-139.69,23-161.8,18.43c-17.39-3.6-118.24-24.49-164.41-113.19C9.39,417.08,4.39,393.21,2.3,376.64
							C43.42,481.17,147.42,546.8,256.59,538.39C357.87,530.59,445.62,460.45,477.2,361.53z"/>
					</g>
					<path class="st0" d="M68.99,479.79c2.48-6.57,5.73-16.58,7.59-29.09c5.03-33.91-6.67-42.16-0.84-70.4
						c1.78-8.63,7.47-30.13,25.51-48.06c5.34-5.31,10.45-9.01,14.12-11.38c-7.39,3.8-19.68,11.31-30.78,24.87
						c-4.77,5.83-14.13,17.52-18.13,34.57c-5.53,23.57,4.85,33.24,0.42,58.6c-2.31,13.24-7.37,23.38-10.96,29.51
						C60.27,472.2,64.63,476,68.99,479.79z"/>
					<path class="st0" d="M448.83,439.32c-11.1-9.37-26.46-24.68-37.94-47.22c-12.04-23.63-11.76-39.36-18.55-60.71
						c-6.42-20.19-20.02-48.05-52.28-77.57c27.35,26.35,37.79,50.57,42.16,68.3c3.18,12.9,1.99,17.67,7.59,41.31
						c4.7,19.83,8.7,36.24,18.56,54.83c5.2,9.81,13.8,23.55,27.82,37.92C440.39,450.56,444.61,444.94,448.83,439.32z"/>
					<path class="st0" d="M390.44,355.85c-3.6-5.32-10.15-13.16-20.76-18.23c-4.7-2.25-10.46-5-17.81-4.22
						c-13.03,1.38-20.55,12.71-21.92,14.86c1.09-2.8,3.85-8.7,10.08-12.83c0,0,4.33-2.87,10.26-3.93c10.63-1.9,26.91,4.48,42.9,17.6
						C392.26,351.35,391.35,353.6,390.44,355.85z"/>
				</g>
			</g>
			<path class="st0" d="M47.77,479.32c24.23,29.91,48.46,59.82,72.69,89.74c25.33-12.25,50.65-24.5,75.98-36.74
				C146.88,514.65,97.32,496.98,47.77,479.32z"/>
			<path class="st0" d="M432.35,237.34c24.97,31.17,49.93,62.35,74.9,93.52c-19.22,9.11-38.43,18.22-57.65,27.34
				C443.84,317.91,438.09,277.63,432.35,237.34z"/>
			<g>
				<ellipse class="st1" cx="323.3" cy="460.35" rx="238.09" ry="203.94"/>
				<path class="st2" d="M463.37,605.48c-8.86-15.76-23.55-37.9-46.79-59.44c-8.62-7.99-29.63-27.2-56.91-39.21
					c-58.81-25.89-119.19-6.21-139.12,1.26c17.28-5.34,50.34-12.93,90.64-5.48c14.31,2.64,54.91,10.71,91.48,45.11
					c26.81,25.22,39.18,53.04,44.69,68.3C452.69,612.51,458.03,608.99,463.37,605.48z"/>
				<path class="st2" d="M237.83,639.63c1.49-9.19,5.17-23.28,15.18-37.1c24.06-33.24,64.15-36.61,70.85-37.06
					c-9.54-0.52-30.44-0.3-52.3,11.77c-33.36,18.42-44.11,50.74-46.37,58.18C229.4,636.82,233.61,638.22,237.83,639.63z"/>
				<path class="st2" d="M561.31,465.72c-0.25,14.81-2.31,37.05-11.72,61.77c-27.54,72.29-94.37,103.52-116.66,113.94
					c-72.46,33.87-139.69,23-161.8,18.43c-17.39-3.6-118.24-24.49-164.41-113.19c-13.23-25.4-18.22-49.27-20.31-65.84
					c41.12,104.53,145.12,170.16,254.29,161.75C441.97,634.78,529.72,564.64,561.31,465.72z"/>
				<path class="st2" d="M153.09,583.98c2.48-6.57,5.73-16.58,7.59-29.09c5.03-33.91-6.67-42.16-0.84-70.4
					c1.78-8.63,7.47-30.13,25.51-48.06c5.34-5.31,10.45-9.01,14.12-11.38c-7.39,3.8-19.68,11.31-30.78,24.87
					c-4.77,5.83-14.13,17.52-18.13,34.57c-5.53,23.57,4.85,33.24,0.42,58.6c-2.31,13.24-7.37,23.38-10.96,29.51
					C144.38,576.39,148.73,580.19,153.09,583.98z"/>
				<path class="st2" d="M532.93,543.51c-11.1-9.37-26.46-24.68-37.94-47.22c-12.04-23.63-11.76-39.36-18.55-60.71
					c-6.42-20.19-20.02-48.05-52.28-77.57c27.35,26.35,37.79,50.57,42.16,68.3c3.18,12.9,1.99,17.67,7.59,41.31
					c4.7,19.83,8.7,36.24,18.56,54.83c5.2,9.81,13.8,23.55,27.82,37.92C524.5,554.75,528.72,549.13,532.93,543.51z"/>
				<path class="st2" d="M474.54,460.04c-3.6-5.32-10.15-13.16-20.76-18.23c-4.7-2.25-10.46-5-17.81-4.22
					c-13.03,1.38-20.55,12.71-21.92,14.86c1.09-2.8,3.85-8.7,10.08-12.83c0,0,4.33-2.87,10.26-3.93c10.63-1.9,26.91,4.48,42.9,17.6
					C476.37,455.54,475.46,457.79,474.54,460.04z"/>
			</g>
		</g>
		<g>
			<g>
				<g>
					<g>
						
							<ellipse transform="matrix(0.0112 -0.9999 0.9999 0.0112 -69.3194 1316.4563)" class="st0" cx="630.99" cy="693.28" rx="153.99" ry="273.06"/>
					</g>
					<path class="st0" d="M875.16,730.55c-20.62-6.42-51.68-14.59-90.2-19.21c-14.28-1.71-48.89-5.72-83.66-2.95
						c-74.93,5.97-115.47,40.64-128.08,52.69c11.83-9.74,36.53-26.76,79.78-37.2c15.35-3.71,59.37-13.88,120.38-6.31
						c44.72,5.55,78.09,18.1,95.21,25.46C870.78,738.87,872.97,734.71,875.16,730.55z"/>
					<path class="st0" d="M692.77,835.77c-5.85-6.23-13.52-16.29-15.12-28.55c-3.84-29.48,30.71-46.52,36.56-49.3
						c-9.25,3.24-28.48,11.17-39.26,26.78c-16.45,23.81-0.99,47.76,2.76,53.19C682.74,837.18,687.76,836.47,692.77,835.77z"/>
					<g>
						<path class="st0" d="M856.03,607.79c11.42,9.23,27.02,23.72,37.73,42.48c31.34,54.87-6.08,99.07-18.56,113.82
							c-40.57,47.93-111.5,66.31-135.6,71.74c-18.97,4.27-128.97,29.01-241.62-8.48c-32.26-10.74-55.68-23.6-70.66-33.04
							c120.42,49.14,268.55,50.82,363.22,4.91C878.36,756.61,904.58,680.6,856.03,607.79z"/>
					</g>
					<path class="st0" d="M570.36,833.05c-2.86-4.98-7.73-12.37-15.85-20.78c-22.02-22.8-39.37-23.52-56.19-43.12
						c-5.14-5.99-16.78-21.38-14.16-39.16c0.78-5.27,2.61-9.46,4.14-12.29c-3.87,5.1-9.36,14.32-8.98,26.83
						c0.16,5.38,0.68,16.08,10.39,28.09c13.42,16.6,30.66,18.7,46.51,35.99c8.27,9.03,11.56,17.17,13.06,22.29
						C556.31,831.62,563.33,832.34,570.36,833.05z"/>
					<path class="st0" d="M890.92,666.36c-17.67-1.64-43.97-5.35-72.36-14.97c-29.76-10.08-41.89-19.89-64.99-30.53
						c-21.85-10.06-56.39-22.17-109.55-28.35c46.11,6.05,74.86,17.1,92.86,26.4c13.1,6.77,15.75,10.16,39.55,22.66
						c19.97,10.48,36.6,19.11,60.36,26.9c12.54,4.11,31.33,9.38,55.65,13.01C891.95,676.44,891.43,671.4,890.92,666.36z"/>
					<path class="st0" d="M771.06,636.65c-7.53-1.94-19.77-4.33-33.61-3.5c-6.13,0.37-13.63,0.82-19.84,4.05
						c-11,5.71-9.06,15.51-8.64,17.35c-1.19-2.13-3.28-6.8-0.74-11.68c0,0,1.76-3.39,6.42-6.25c8.36-5.14,28.49-7.28,53.65-5.15
						C769.21,633.2,770.14,634.93,771.06,636.65z"/>
				</g>
			</g>
			<path class="st0" d="M357.94,691.53c0.6-14.46,1.2-28.93,1.8-43.39c18.86,12.07,37.72,24.15,56.58,36.22
				C396.86,686.75,377.4,689.14,357.94,691.53z"/>
			<path class="st0" d="M905.86,698.07c0.49-12.79,0.98-25.58,1.46-38.37c-6.14,7.73-12.28,15.46-18.41,23.19
				C894.55,687.94,900.2,693.01,905.86,698.07z"/>
			<g>
				
					<ellipse transform="matrix(0.0112 -0.9999 0.9999 0.0112 -33.7219 1283.9208)" class="st1" cx="632.34" cy="659.01" rx="153.99" ry="273.06"/>
				<path class="st2" d="M876.5,696.28c-20.62-6.42-51.68-14.59-90.2-19.21c-14.28-1.71-48.89-5.72-83.66-2.95
					c-74.93,5.97-115.47,40.64-128.08,52.69c11.83-9.74,36.53-26.76,79.78-37.2c15.35-3.71,59.37-13.88,120.38-6.31
					c44.72,5.55,78.09,18.1,95.21,25.46C872.13,704.6,874.31,700.44,876.5,696.28z"/>
				<path class="st2" d="M694.12,801.5c-5.85-6.23-13.52-16.29-15.12-28.55c-3.84-29.48,30.71-46.52,36.56-49.3
					c-9.25,3.24-28.48,11.17-39.26,26.78c-16.45,23.81-0.99,47.76,2.76,53.19C684.09,802.91,689.11,802.21,694.12,801.5z"/>
				<path class="st2" d="M857.38,573.52c11.42,9.23,27.02,23.72,37.73,42.48c31.34,54.87-6.08,99.07-18.56,113.82
					c-40.57,47.93-111.5,66.31-135.6,71.74c-18.97,4.27-128.97,29.01-241.62-8.48c-32.26-10.74-55.68-23.6-70.66-33.04
					c120.42,49.14,268.55,50.82,363.22,4.91C879.71,722.34,905.93,646.33,857.38,573.52z"/>
				<path class="st2" d="M571.71,798.79c-2.86-4.98-7.73-12.37-15.85-20.78c-22.02-22.8-39.37-23.52-56.19-43.12
					c-5.14-5.99-16.78-21.38-14.16-39.16c0.78-5.27,2.61-9.46,4.14-12.29c-3.87,5.1-9.36,14.32-8.98,26.83
					c0.16,5.38,0.68,16.08,10.39,28.09c13.42,16.6,30.66,18.7,46.51,35.99c8.27,9.03,11.56,17.17,13.06,22.29
					C557.65,797.36,564.68,798.07,571.71,798.79z"/>
				<path class="st2" d="M892.27,632.1c-17.67-1.64-43.97-5.35-72.36-14.97c-29.76-10.08-41.89-19.89-64.99-30.53
					c-21.85-10.06-56.39-22.17-109.55-28.35c46.11,6.05,74.86,17.1,92.86,26.4c13.1,6.77,15.75,10.16,39.55,22.66
					c19.97,10.48,36.6,19.11,60.36,26.9c12.54,4.11,31.33,9.38,55.65,13.01C893.29,642.18,892.78,637.14,892.27,632.1z"/>
				<path class="st2" d="M772.41,602.39c-7.53-1.94-19.77-4.33-33.61-3.5c-6.13,0.37-13.63,0.82-19.84,4.05
					c-11,5.71-9.06,15.51-8.64,17.35c-1.19-2.13-3.28-6.8-0.74-11.68c0,0,1.76-3.39,6.43-6.25c8.36-5.14,28.49-7.28,53.65-5.15
					C770.56,598.93,771.48,600.66,772.41,602.39z"/>
			</g>
		</g>
	</g>
	<path class="st3" d="M822.67,754.59c-28.62,6.58-85.95,16.68-157.59,6.88c-62.04-8.48-104.52-27.74-119.27-34.86
		c-37.03-17.87-55.36-34.49-67.69-49.32c-8.39-10.09-19.83-24.14-25.53-45.64c-5.24-19.74-3.49-37.59-1.73-55.48
		c1.35-13.74,3.64-24.97,5.48-32.64c5.83-12.68,15.48-29.65,31.29-46.34c26.94-28.42,57.22-40.62,73.51-45.83
		c-0.35-6.95-1.16-14.86-2.77-23.48c-1.56-8.39-3.59-15.88-5.7-22.36c-20.36,6.79-52.18,20.33-83.54,47.69
		c-22.56,19.69-37.59,40.17-47.22,55.79c-17.45,6.96-51.89,23.55-80.03,59.71c-16.91,21.74-25.82,43.2-30.65,58.4
		c-25.15-1.64-64.43-7.61-105.39-30.08c-27.85-15.28-44.4-32.98-78.8-67.1c-40.56-40.22-74.02-74.01-97.88-127.43
		c-15.1-33.79-21.23-63.98-24.03-83.86c-3.43,17.1-6.71,45.37,0.77,78.48c5.21,23.02,14.01,41.25,21.21,53.52
		c4.27,7.28,9.23,13.85,18.97,26.71c18.19,24,28.66,35.59,55.36,68.26c17.43,21.33,14.77,18.59,18.99,23.44
		c14.84,17.07,42.97,48.76,89.92,71.21c9.36,4.48,47.14,21.82,99.6,24.56c19.89,1.04,36.74-0.29,49.14-1.91
		c-0.21-5.96,0.09-12.55,1.24-19.6c5.06-30.88,23.58-51.79,33.86-61.66c-0.67,13.42-0.33,33.49,5.54,56.63
		c20.79,81.95,91.12,124.31,109.58,135.43c52.37,31.54,100.85,35.68,158.82,40.63c60.96,5.2,111.67-0.31,145.9-6.16
		c14.24-5.99,36.99-17.82,57.8-40.47c12.43-13.53,20.61-27.05,25.95-37.78C879.37,737.91,853.9,747.41,822.67,754.59z"/>
	<g>
		<g>
			<g>
				<g>
					
						<ellipse transform="matrix(0.0112 -0.9999 0.9999 0.0112 103.9836 1326.1787)" class="st0" cx="722.56" cy="610.51" rx="153.99" ry="273.06"/>
				</g>
				<path class="st0" d="M966.72,647.78c-20.62-6.42-51.68-14.59-90.2-19.21c-14.28-1.71-48.89-5.72-83.66-2.95
					c-74.93,5.97-115.47,40.64-128.08,52.69c11.83-9.74,36.53-26.76,79.78-37.2c15.35-3.71,59.37-13.88,120.38-6.31
					c44.72,5.55,78.09,18.1,95.21,25.46C962.35,656.1,964.53,651.94,966.72,647.78z"/>
				<path class="st0" d="M784.34,753c-5.85-6.23-13.52-16.29-15.12-28.55c-3.84-29.48,30.71-46.52,36.56-49.3
					c-9.25,3.24-28.48,11.17-39.26,26.78c-16.45,23.81-0.99,47.76,2.76,53.19C774.31,754.41,779.33,753.71,784.34,753z"/>
				<g>
					<path class="st0" d="M947.6,525.02c11.42,9.23,27.02,23.72,37.73,42.48c31.34,54.87-6.08,99.07-18.56,113.82
						c-40.57,47.93-111.5,66.31-135.6,71.74c-18.97,4.27-128.97,29.01-241.62-8.48c-32.26-10.74-55.68-23.6-70.66-33.04
						c120.42,49.14,268.55,50.82,363.22,4.91C969.93,673.84,996.14,597.83,947.6,525.02z"/>
				</g>
				<path class="st0" d="M661.93,750.29c-2.86-4.98-7.73-12.37-15.85-20.78c-22.02-22.8-39.37-23.52-56.19-43.12
					c-5.14-5.99-16.78-21.38-14.16-39.16c0.78-5.27,2.61-9.46,4.14-12.29c-3.87,5.1-9.36,14.32-8.98,26.83
					c0.16,5.38,0.68,16.08,10.39,28.09c13.42,16.6,30.66,18.7,46.51,35.99c8.27,9.03,11.56,17.17,13.06,22.29
					C647.87,748.86,654.9,749.57,661.93,750.29z"/>
				<path class="st0" d="M982.49,583.6c-17.67-1.64-43.97-5.35-72.36-14.97c-29.76-10.08-41.89-19.89-64.99-30.53
					c-21.85-10.06-56.39-22.17-109.55-28.35c46.11,6.05,74.86,17.1,92.86,26.4c13.1,6.77,15.75,10.16,39.55,22.66
					c19.97,10.48,36.6,19.11,60.36,26.9c12.54,4.11,31.33,9.38,55.65,13.01C983.51,593.68,983,588.64,982.49,583.6z"/>
				<path class="st0" d="M862.63,553.89c-7.53-1.94-19.77-4.33-33.61-3.5c-6.13,0.37-13.63,0.82-19.84,4.05
					c-11,5.71-9.06,15.51-8.64,17.35c-1.19-2.13-3.28-6.8-0.74-11.68c0,0,1.76-3.39,6.43-6.25c8.36-5.14,28.49-7.28,53.65-5.15
					C860.78,550.43,861.7,552.16,862.63,553.89z"/>
			</g>
		</g>
		<path class="st0" d="M449.51,608.76c0.6-14.46,1.2-28.93,1.8-43.39c18.86,12.07,37.72,24.15,56.58,36.22
			C488.42,603.98,468.96,606.37,449.51,608.76z"/>
		<path class="st0" d="M997.42,615.3c0.49-12.79,0.98-25.58,1.46-38.37c-6.14,7.73-12.28,15.46-18.41,23.19
			C986.12,605.18,991.77,610.24,997.42,615.3z"/>
		<g>
			
				<ellipse transform="matrix(0.0112 -0.9999 0.9999 0.0112 139.5811 1293.6432)" class="st1" cx="723.9" cy="576.24" rx="153.99" ry="273.06"/>
			<path class="st2" d="M968.07,613.51c-20.62-6.42-51.68-14.59-90.2-19.21c-14.28-1.71-48.89-5.72-83.66-2.95
				c-74.93,5.97-115.47,40.64-128.08,52.69c11.83-9.74,36.53-26.76,79.78-37.2c15.35-3.71,59.37-13.88,120.38-6.31
				c44.72,5.55,78.09,18.1,95.21,25.46C963.69,621.83,965.88,617.67,968.07,613.51z"/>
			<path class="st2" d="M785.69,718.73c-5.85-6.23-13.52-16.29-15.12-28.55c-3.84-29.48,30.71-46.52,36.56-49.3
				c-9.25,3.24-28.48,11.17-39.26,26.78c-16.45,23.81-0.99,47.76,2.76,53.19C775.66,720.15,780.67,719.44,785.69,718.73z"/>
			<path class="st2" d="M948.95,490.75c11.42,9.23,27.02,23.72,37.73,42.48c31.34,54.87-6.08,99.07-18.56,113.82
				c-40.57,47.93-111.5,66.31-135.6,71.74c-18.97,4.27-128.97,29.01-241.62-8.48c-32.26-10.74-55.68-23.6-70.66-33.04
				c120.42,49.14,268.55,50.82,363.22,4.91C971.28,639.57,997.49,563.56,948.95,490.75z"/>
			<path class="st2" d="M663.28,716.02c-2.86-4.98-7.73-12.37-15.85-20.78c-22.02-22.8-39.37-23.52-56.19-43.12
				c-5.14-5.99-16.78-21.38-14.16-39.16c0.78-5.27,2.61-9.46,4.14-12.29c-3.87,5.1-9.36,14.32-8.98,26.83
				c0.16,5.38,0.68,16.08,10.39,28.09c13.42,16.6,30.66,18.7,46.51,35.99c8.27,9.03,11.56,17.17,13.06,22.29
				C649.22,714.59,656.25,715.3,663.28,716.02z"/>
			<path class="st2" d="M983.84,549.33c-17.67-1.64-43.97-5.35-72.36-14.97c-29.76-10.08-41.89-19.89-64.99-30.53
				c-21.85-10.06-56.39-22.17-109.55-28.35c46.11,6.05,74.86,17.1,92.86,26.4c13.1,6.77,15.75,10.16,39.55,22.66
				c19.97,10.48,36.6,19.11,60.36,26.9c12.54,4.11,31.33,9.38,55.65,13.01C984.86,559.41,984.35,554.37,983.84,549.33z"/>
			<path class="st2" d="M863.97,519.62c-7.53-1.94-19.77-4.33-33.61-3.5c-6.13,0.37-13.63,0.82-19.84,4.05
				c-11,5.71-9.06,15.51-8.64,17.35c-1.19-2.13-3.28-6.8-0.74-11.68c0,0,1.76-3.39,6.42-6.25c8.36-5.14,28.49-7.28,53.65-5.15
				C862.13,516.16,863.05,517.89,863.97,519.62z"/>
		</g>
	</g>
	<path class="st4" d="M628.15,452.05c-14.05,1.81-39.39,6.42-68.95,20.93c-3.68,1.81-47.26,23.2-44.32,32.01
		c3.3,9.92,63.51-2.11,71.41-3.69c25.1-5.02,42.81-11.38,54.17-16.01c11.79-4.81,51.24-20.88,49.25-29.55
		C687.81,447.53,649.49,449.31,628.15,452.05z"/>
</g>
</svg>
