<?xml version="1.0" encoding="utf-8"?>
<!-- Generator: Adobe Illustrator 23.0.1, SVG Export Plug-In . SVG Version: 6.00 Build 0)  -->
<svg version="1.1" id="Слой_1" xmlns="http://www.w3.org/2000/svg" xmlns:xlink="http://www.w3.org/1999/xlink" x="0px" y="0px"
	 viewBox="0 0 1000 1000" style="enable-background:new 0 0 1000 1000;" xml:space="preserve">
<style type="text/css">
	.st0{fill:#E9AEA8;}
	.st1{fill:#BE3E41;}
	.st2{fill:#E8D4D3;}
	.st3{opacity:0.2;fill:#852C2B;}
	.st4{opacity:0.1;fill:#FFFFFF;}
</style>
<g id="говядина_2_">
	<path class="st0" d="M965.72,197.65c-51.92-69.77-154.38-90.62-231.87-74.41C626.07,145.78,631.9,226.37,518.58,266.75
		c-121.06,43.14-168.77-34.19-302.97,7.97c-23.82,7.48-144.6,45.42-194.01,159.46c-50.39,116.29,7.98,231.97,15.95,247.16
		c86.69,165.37,324.05,219.4,499.64,188.69c266.57-46.61,416.81-293.06,451.8-467.75C999.52,349.73,1015.34,264.33,965.72,197.65z"
		/>
	<path class="st1" d="M934.06,220.69c-55.35-71.71-161.88-65.88-166.55-65.56c-115.44,7.99-121.82,107.18-249.99,145.61
		c-115.46,34.61-153.15-33.02-285.07,7.16c-40.16,12.23-129.78,39.53-171.87,120.08c-48.2,92.23-8.63,205.51,35.44,269.31
		c125.72,182.02,411.58,140.11,423.46,138.2c240.39-38.71,389.61-249.41,430.54-412.83C961.89,375.25,984.3,285.77,934.06,220.69z"
		/>
	<circle class="st0" cx="746.25" cy="374.83" r="90.36"/>
	<circle class="st2" cx="746.25" cy="374.83" r="67.97"/>
	<path class="st0" d="M685.15,441.38C642.51,632.84,509.73,770.5,364.43,785c-46.54,4.64-133.08,0.52-213.5-55.81
		c-73.1-51.2-103.85-119.39-114.72-147.5c4.39,28.81,21.07,112.39,93.46,177.62c35.51,32,72.35,48.69,97.89,57.58
		c128.62,21.76,209.16-4.28,257.82-30.25c112.51-60.04,153.7-172.52,249.79-166.42c6.15,0.39,51.93,3.3,65.11,30.56
		c15.93,32.95-25.18,81.95-22.59,83.72c2.28,1.56,32.99-37.36,132.88-176.74c-16.28,11.66-49.67,32.09-95.68,35.88
		c-28.19,2.32-83.8,6.9-108.96-30.56c-19.29-28.72-14.26-72.57,11.16-109.25C706.45,449.68,695.8,445.53,685.15,441.38z"/>
	<path class="st0" d="M819.66,337.56c8.06-17.62,24-46.53,53.71-73.46c26.98-24.45,54.25-37.23,71.76-43.85
		c8.42,12.85,16.83,25.69,25.25,38.54c-10.17-1.93-43.44-6.9-77.07,11.96c-50.28,28.19-57.1,84.8-57.7,90.6
		C830.29,353.41,824.98,345.48,819.66,337.56z"/>
</g>
<path class="st3" d="M50.79,704.01c52.65,30.39,142.12,73.28,260.79,89.72c129.29,17.9,228.73-4.53,250.56-9.76
	c239.19-57.27,371.89-253.56,406.85-309.1c-8.39,23.97-20.95,55.49-39.56,90.86c-33.38,63.44-68.9,106.28-83.7,123.36
	c-36.29,41.88-68.79,68.24-76.91,74.74c-45.88,36.68-86.15,56.92-98.08,62.75c-19.58,9.56-67.5,31.37-133.55,43.47
	c-13.08,2.4-71.08,12.51-148.31,6.08c-32.27-2.69-94.4-8.37-167.58-38.93c-26.94-11.25-62.67-26.49-101.83-58.48
	C86.82,752.04,64.75,724.32,50.79,704.01z"/>
<path class="st4" d="M219.39,368.54c-13.99,4.39-63.88,21.98-85.69,67.25c-3.91,8.12-6.53,15.08-4.34,22.78
	c8.08,28.35,76.75,38.63,130.16,27.12c57.6-12.42,117.38-54.49,111.72-82.44c-0.81-4.01-3.02-8.81-13.02-16.27
	C322.9,360.62,269.31,352.86,219.39,368.54z"/>
</svg>
