<?xml version="1.0" encoding="utf-8"?>
<!-- Generator: Adobe Illustrator 23.0.1, SVG Export Plug-In . SVG Version: 6.00 Build 0)  -->
<svg version="1.1" id="Слой_1" xmlns="http://www.w3.org/2000/svg" xmlns:xlink="http://www.w3.org/1999/xlink" x="0px" y="0px"
	 viewBox="0 0 1000 1000" style="enable-background:new 0 0 1000 1000;" xml:space="preserve">
<style type="text/css">
	.st0{fill:#EFE0C7;}
	.st1{opacity:0.2;fill:#FFFFFF;}
	.st2{fill:#ECB886;}
	.st3{opacity:0.2;fill:#A28162;}
</style>
<g>
	<g>
		<path class="st0" d="M217.03,313.52c-9.86-7.65-40.01-28.98-82.61-28.44c-56.27,0.71-91.13,39.03-97.51,46.05
			c-58.47,64.28-30.92,158.83-27.09,172c2.71,9.31,14.2,46.27,48.76,85.32c19.58,22.13,59.96,60.06,170.64,93.45
			c104.32,31.47,121.93,13.91,306.07,43.34c18.64,2.98,65.24,10.63,127.31,10.83c32.24,0.1,58.29-1.84,78.55-4.06
			c0,0,101.01-11.1,147.62-51.46c2.71-2.34,6.35-5.5,9.48-10.83c6.85-11.67,3.2-20.03,8.13-31.15c3.07-6.94,7.87-11.31,16.25-17.61
			c39.48-29.67,63.15-30.57,73.13-50.11c10.61-20.79-0.17-51.11-16.25-66.36c-11.14-10.56-21.45-10.69-43.34-17.61
			c-23.11-7.3-40.24-17.06-74.49-36.57c-50.72-28.89-52.89-40.36-92.09-56.88c-22.93-9.66-24.89-6.87-51.46-16.25
			c-52.11-18.39-67.72-37.26-109.7-59.59c-50.42-26.82-94.27-34.9-132.72-41.98c-58.63-10.8-98.12-17.52-135.43,2.71
			c-15.4,8.35-20.33,15.81-40.63,24.38C268.07,316.01,237.74,315.8,217.03,313.52z"/>
		<path class="st1" d="M620.62,554.59c7.87-23.68-223.8-117.19-285.76-142.2c-78.83-31.82-136.44-54.82-142.2-44.69
			c-7.54,13.26,74.14,82.78,167.93,128.66C481.22,555.36,614.89,571.82,620.62,554.59z"/>
		<path class="st2" d="M130.36,319.61c-1.72,0.92,37.5,61.31,65.01,154.39c11.84,40.07,18,74.33,21.41,98.12
			c10.01,4.82,20.02,9.64,30.02,14.45c-7.47-30.63-20.02-74.95-41.18-126.25C171.19,376.82,132.05,318.7,130.36,319.61z"/>
		<path class="st2" d="M250.21,382.59c19.52,41.43,38.87,87.18,56.88,137.12c12.58,34.87,23.31,68.49,32.5,100.56
			c9.4,3.08,18.8,6.17,28.2,9.25c-12.61-39.65-29.55-84.43-52.58-132.16C294.02,453.44,271.61,415.18,250.21,382.59z"/>
		<path class="st2" d="M381.24,438.45c19.79,36.31,39.68,77.64,57.9,123.92c10.68,27.14,19.73,53.3,27.42,78.21
			c7.45,3.72,14.9,7.45,22.35,11.17c-8.21-27.67-19.32-58.6-34.53-91.42C431.27,510.52,405.01,469.97,381.24,438.45z"/>
		<path class="st2" d="M510.24,499.4c30.81,55.19,61.62,110.38,92.43,165.56c-8.46-4.06-16.93-8.13-25.39-12.19
			C554.93,601.65,532.59,550.52,510.24,499.4z"/>
		<path class="st3" d="M4.51,394.34c38.16,47.3,100.51,112.97,192.89,167.01c29.35,17.17,93.12,51.53,258,91.42
			c92.3,22.33,218.9,47.02,373.36,59.39c-18.51,5.99-44.93,13.37-77.28,18.44c-18.01,2.82-56.58,7.87-121.17,4.68
			c-43.63-2.15-48.97-5.59-125.37-14.71c-88.91-10.62-92.75-7.29-159.43-16.8c-53.23-7.59-85.74-12.38-129.39-25.96
			c-37.65-11.71-68.07-21.43-102.81-44.68c-20.45-13.68-58.5-39.15-84.92-86.91C-6.66,482.85,0.34,419.22,4.51,394.34z"/>
		<path class="st3" d="M274.77,355.93c53.29,0.73,98.74,3.48,133.9,6.34c225.39,18.32,278.46,61.4,302.69,89.38
			c8.4,9.7,29.7,34.3,22.35,52.82c-10.06,25.36-71.84,34.29-106.51,13.62c-4.5-2.68-5.9-4.29-25.91-17.62
			c-7.07-4.71-20.92-13.92-37.99-24.5c-12.81-7.94-29.29-18.16-51.63-30.18c-19.25-10.35-33.48-18.01-54.15-26.34
			c-19.63-7.91-37.47-13.36-46.33-15.94c-14.24-4.14-19.04-4.85-37.02-10.26c-4.08-1.23-16.56-5.03-32.7-10.67
			c-8.95-3.13-24.95-8.91-44.72-17.13C287.8,361.73,280.31,358.43,274.77,355.93z"/>
	</g>
	<path class="st2" d="M257.32,348.05c0.17-0.36,25.12,12.3,61.96,26.41c47.3,18.11,83.72,26.93,93.45,29.46
		c39.84,10.36,104.87,38.15,215.34,114.78c-69.63-43.84-128.23-69.68-169.63-85.32c-24.82-9.37-42.17-14.6-81.26-30.47
		C308.86,375.16,257.08,348.57,257.32,348.05z"/>
</g>
</svg>
