<?xml version="1.0" encoding="utf-8"?>
<!-- Generator: Adobe Illustrator 23.0.1, SVG Export Plug-In . SVG Version: 6.00 Build 0)  -->
<svg version="1.1" id="Слой_1" xmlns="http://www.w3.org/2000/svg" xmlns:xlink="http://www.w3.org/1999/xlink" x="0px" y="0px"
	 viewBox="0 0 1000 1000" style="enable-background:new 0 0 1000 1000;" xml:space="preserve">
<style type="text/css">
	.st0{fill:#CAA05F;}
	.st1{fill:#5B9323;}
	.st2{fill:#64A027;}
	.st3{fill:#71B62B;}
	.st4{fill:#68A728;}
	.st5{fill:#FFDE7A;}
	.st6{fill:#E6C970;}
	.st7{opacity:0.1;fill:#FFFFFF;}
	.st8{opacity:0.2;fill:#FFFFFF;}
	.st9{opacity:0.2;fill:#D5BB68;}
</style>
<g>
	<path class="st0" d="M296.53,996.14L190.4,934.86c-1.05-0.61-1.41-1.95-0.8-3l14.12-24.46l109.94,63.47l-14.12,24.46
		C298.93,996.38,297.58,996.74,296.53,996.14z"/>
	<path class="st1" d="M584.36,437.16c31.75-31.68,73.51-80.67,107.9-148.95c26.28-52.18,40.57-100.35,48.66-137.95
		c-66.01,95.91-132.02,191.83-198.04,287.74C556.72,437.73,570.54,437.45,584.36,437.16z"/>
	<path class="st2" d="M603.4,375.81c30.47-40.16,57.21-60.47,88.86-87.59c75.13-64.38,175.48-165.05,167.57-175.19
		c-7.29-9.33-107.39,56.78-185.34,123.14c-53.42,45.47-97,91.52-117.21,157.41c-6.97,22.72-12.93,53.56-7.19,55.86
		C556.63,452.06,573.27,415.52,603.4,375.81z"/>
	<path class="st3" d="M520.89,373.27c40.04-141.95,204.15-260.85,215.81-269.13C820.55,44.58,924-10.37,932.51,1.69
		c5.52,7.82-34.24,36.28-105.68,112.61c-81.66,87.24-117.49,143.81-220.89,245.01c-40.12,39.27-73.9,69.08-86.32,60.93
		C509.71,413.74,517.37,385.73,520.89,373.27z"/>
	<path class="st4" d="M801.06,231.94c8.31-8.19,78.61-77.82,70.2-88.45c-7.63-9.65-76.84,33.57-79.98,35.54
		c-39.33,24.73-134.63,86.49-182.8,206.92c-9.32,23.31-22.27,62.28-15.23,66.01c10.97,5.82,50.56-84.62,147.26-166.3
		C754.65,273.72,773.98,258.62,801.06,231.94z"/>
	<path class="st5" d="M618.15,618.27c-19.24-26.11-24.61-48.58-25.32-65.58c-0.64-15.29,2.55-24.97,18.62-78.71
		c16.04-53.64,20.05-68.01,14.39-71.94c-11.46-7.95-50.06,35.47-62.63,26.24c-8.43-6.19,1.9-30.91-5.92-34.7
		c-7.57-3.67-21.84,17.26-31.31,12.69c-3.52-1.7-4.79-6.16-5.92-10.16c-3.53-12.44,2.58-21.67,0.85-22.85
		c-4.44-3.02-37.55,62.61-93.94,86.32c-25.08,10.55-48.81,10.29-62.84,9.07l0,0c-115.66-21.13-223.66,13.17-272.09,97.07
		c-67.48,116.88,6.18,285.73,164.52,377.15c158.34,91.42,341.4,70.78,408.88-46.1C712.83,814.64,690.54,706.83,618.15,618.27z"/>
	<path class="st6" d="M463.76,455.78c-27.21,11.54-69.69,26.02-123.3,29.17c-36.13,2.12-43.14-2.92-71.22,1
		c-17.23,2.4-89.19,12.16-133.24,71c-43.39,57.96-33.73,125.76-29.19,157.65c7.69,53.98,31.33,92.43,43.82,112.3
		c21.4,34.03,45.31,57.91,63.05,73.21c-15.75-18.29-36.7-45.78-55.43-82.52c-13.92-27.29-30.61-60.02-35.97-104.1
		c-3.39-27.92-11.45-94.24,31.07-149.35c38.55-49.96,98.51-61.86,120.79-66.38c30.34-6.15,38.83-1.26,75.51-6.15
		C399.27,485,438.2,468.78,463.76,455.78z"/>
	<path class="st6" d="M469.48,467.84c-0.75-1.48-40.18,21.03-111.71,45.7c-34.63,11.94-31.54,8.78-47.6,15.23
		c-25.69,10.31-98.55,38.86-126.37,107.25c-18.57,45.64-11.38,90.29-6.29,121.89c4.35,26.98,11.84,48.43,17.77,65.38
		c13,37.17,28.12,66.52,39.99,86.96c-7.63-20.52-18.05-50.36-28.52-87.16c-8.57-30.12-13.06-45.89-15.91-65.81
		c-4.05-28.29-10.05-70.2,6.35-112.98c28.27-73.79,105.93-103.41,122.5-109.81c14.14-5.46,11.71-2.84,35.67-11.09
		C423.21,500.02,470.31,469.48,469.48,467.84z"/>
	<path class="st6" d="M485.98,477.36c-0.48-0.56-35.64,31.11-92.63,72.05c-28.92,20.78-30.82,20.61-41.72,29.08
		c-50.5,39.27-71.63,96.47-82.94,126.95c-34.32,92.5-22.34,176.81-13.12,218.77c-4.83-54.02-3.65-132.92,28.56-217.08
		c12.02-31.39,29.02-74.5,69.82-116.79c9.96-10.32,12.19-9.93,50.57-41.89C451.1,509.69,486.46,477.93,485.98,477.36z"/>
	<path class="st6" d="M523.43,488.79c-7.47,25.48-16.17,63.89-16.75,111.21c-0.35,28.85,2.58,39.9,2.39,59.36
		c-0.6,62.11-31.98,109.55-53.33,141.95c-54.3,82.37-129.38,122.56-168.67,139.94c46.42-28.04,109.36-75.65,158.17-151.39
		c18.21-28.25,42.92-67.46,52.9-125.37c3.65-21.19,1.3-32.75,3.98-63.46C506.35,552.42,516,513.74,523.43,488.79z"/>
	<path class="st6" d="M536.12,498.31c-1.88,30.74-0.21,75,19.3,122.71c6.73,16.46,8.33,15.59,14.02,29.68
		c7.21,17.85,35.76,95.5-1.9,165.74c-23.28,43.43-62.25,66.39-89.82,82.64c-23.54,13.88-44.84,21.79-61.67,28.05
		c-36.91,13.72-69.16,20.81-92.46,24.72c20.67-7.23,50.29-18.25,85.3-33.67c28.66-12.63,43.66-19.24,60.82-29.76
		c24.36-14.94,60.45-37.08,82.92-77c37.85-67.25,13.32-142.85,6.34-164.39c-3.62-11.16-4.41-10.15-8.81-23.07
		C533.02,573.61,533.16,528.8,536.12,498.31z"/>
	<path class="st6" d="M577.38,510.37c-1.65,33.16,1.33,80.3,26.97,126.41c12.84,23.09,19.56,24.68,31.41,47
		c5.72,10.77,41.54,77.67,17.24,149.99c-23.06,68.63-84.35,99.19-113.17,113.57c-48.79,24.33-93.87,26.71-117.31,27.71
		c-40.16,1.72-73.4-4.4-96.06-10.32c24,2.58,58.52,4.2,99.4-1.24c30.37-4.04,66.79-8.89,106.1-29.52
		c24.9-13.06,84.07-44.1,105.27-110.39c18.81-58.8-3.15-111.26-13.97-137.12c-8.85-21.13-14.09-23.36-23.94-43.89
		C577.4,596.87,574.12,550.12,577.38,510.37z"/>
	<path class="st6" d="M268.9,931.83c20.21-51.32,43.32-104.83,69.82-159.95c52.61-109.45,109.1-205.63,164.4-288.8
		C453.77,581.52,402.6,681,349.51,781.4C322.71,832.09,295.83,882.23,268.9,931.83z"/>
	<path class="st7" d="M856.03,50.4c-6.54-8.95-115.28,40.71-203.96,136.26c-80.43,86.66-122.12,187.11-113.41,192.96
		c7.11,4.77,45.71-54.87,143.03-157.41C793.77,104.1,861.49,57.89,856.03,50.4z"/>
	<path class="st8" d="M752.78,110.49c-3.54-3.7-50.21,30.26-91.4,74.48c-58.68,62.99-93.47,133.08-88.86,136.26
		c2.31,1.59,13.72-14.14,71.09-81.25C726.29,143.24,755.81,113.65,752.78,110.49z"/>
	<path class="st7" d="M415.95,507.41c-8.15-28.14-100.48-26.88-146.71-21.46c-29.18,3.42-55.39,6.5-85.18,23.15
		c-65.72,36.74-85.69,104.22-88.02,112.56c-23.31,83.51,21.97,151.11,34.7,170.11c16.06,23.98,63.95,85.6,93.94,74.48
		c37.35-13.86-10.92-119.09,45.7-219.19C322.81,554.36,424.69,537.61,415.95,507.41z"/>
	<path class="st7" d="M324.55,517.56c-11.58-20.88-91.49-13.79-141.33,31.31c-51.65,46.73-51.02,116.2-50.78,143.03
		c0.69,76.54,38.81,150.4,57.55,147.26c19.32-3.24-5-84.47,39.78-181.96C270.72,568.04,335.99,538.19,324.55,517.56z"/>
	<path class="st8" d="M217.06,539.99c-6.05-4.12-30.67,18.34-44.43,36.81c-62.54,83.91-7.67,228.45,2.09,227.25
		c7.64-0.94-21.5-90.02,20.33-198.47C206.47,576.01,223.41,544.31,217.06,539.99z"/>
	<path class="st9" d="M625.83,402.04c-3.86-1.23-18,27.24-35.12,72.78c-17.97,47.81-26.96,71.72-29.2,88.86
		c-8.14,62.42,28.5,83.82,41.89,153.6c9.9,51.62,4.61,116.84-20.31,158.68c-46.04,77.3-177.25,105.39-321.23,69.92
		c18.38,10.44,43.7,23,75.21,33.41c20.26,6.7,57.21,18.62,105.15,20.21c34.39,1.14,93.12,3.08,151.54-32.49
		c16.25-9.9,53.15-33.03,76.74-79.72c22.13-43.8,20.33-84.58,19.34-102.65c-1.94-35.18-12.05-61.34-17.82-75.89
		c-9.25-23.36-26.14-56.16-43.24-76.47c-2.03-2.42-8.65-10.09-15.88-21.62c-4.46-7.1-9.06-14.44-12.93-24.76
		c-2.75-7.34-9.44-25.77-6.27-47.86c0.61-4.23,2.04-9.66,4.89-20.53c2.37-9,4.04-14.28,7.52-25.7c8.52-27.94,6.42-22.36,11.07-37.1
		c3.32-10.53,5.72-21.33,8.83-31.92c0,0,0.37-1.28,1.58-8.1c0.89-5.07,1.26-8.17-0.38-10.95
		C626.64,402.77,626.29,402.19,625.83,402.04z"/>
</g>
</svg>
