<?xml version="1.0" encoding="utf-8"?>
<!-- Generator: Adobe Illustrator 23.0.1, SVG Export Plug-In . SVG Version: 6.00 Build 0)  -->
<svg version="1.1" id="Слой_1" xmlns="http://www.w3.org/2000/svg" xmlns:xlink="http://www.w3.org/1999/xlink" x="0px" y="0px"
	 viewBox="0 0 1000 1000" style="enable-background:new 0 0 1000 1000;" xml:space="preserve">
<style type="text/css">
	.st0{fill:#E5E5E5;}
	.st1{fill:#DECAB2;}
	.st2{opacity:0.1;fill:#978B7B;}
	.st3{opacity:0.2;fill:#FFFFFF;}
	.st4{opacity:0.3;fill:#FFFFFF;}
	.st5{opacity:0.1;fill:#FFFFFF;}
</style>
<g>
	<path class="st0" d="M790.62,236.71C743.3,114.24,618.86,71,599.18,64.51c0,0,0,0,0,0c-54.12-23.11-117.05-36.36-184.2-36.36
		c-95.68,0-182.78,26.88-248.05,70.89C142.29,115.65-12.63,224.05,2.18,392.63c10.2,116.14,94.76,189.06,118.17,207.95
		c16.72-27.39,33.43-54.77,50.15-82.16c0.03-7.2,0.06-14.4,0.08-21.6c64.85,42.56,150.49,68.46,244.39,68.46
		c85.74,0,164.59-21.58,227.02-57.73c4.66,34.33,9.32,68.67,13.98,103C786.72,519.15,839.1,362.15,790.62,236.71z"/>
	<ellipse class="st1" cx="394.03" cy="422" rx="366.47" ry="268.57"/>
	<path class="st0" d="M998.81,733.7c-0.68-74.46-54.66-118.91-62.12-124.85c1.66,16.95,3.32,33.91,4.98,50.86
		c-35.37-35.04-89.72-65.24-160.48-85.84c-194.34-56.55-438.69-19.21-545.79,83.41c-0.16,0.15-0.3,0.3-0.46,0.45
		c-7.28-6.75-15.66-12.55-25.02-17.04c-8.63,12.43-26.93,42.38-29.67,85.03c-2.87,44.75,13.03,78.08,20.25,91.3
		c28.09,52.81,94.7,99.87,192.86,128.44c194.34,56.55,438.69,19.21,545.79-83.41c7.62-7.3,14.31-14.74,20.15-22.28c0,0,0,0,0,0
		C968.01,829.68,999.33,790.94,998.81,733.7z"/>
	<ellipse class="st1" cx="587.27" cy="713.6" rx="401.77" ry="212.14"/>
	<path class="st2" d="M791,434.97c-130.18-22.52-236.17-20.3-308.66-14c-43.51,3.78-83.37,7.44-132.88,21.26
		c-118.39,33.04-200.26,98.53-246.76,143.08c11.68,10.69,25.71,22.17,42.24,33.44c20.95,14.28,40.91,24.78,58.22,32.54
		c6.87-10.83,17.28-25.25,32.25-40.09c18.73-18.56,35.84-29.07,51.59-38.61c28.99-17.56,53.54-26.78,71.67-33.49
		c24.15-8.94,43.1-13.81,55.71-17.01c6.85-1.74,34.22-8.57,71.34-13.74c9.67-1.35,33.58-4.48,64.78-6.02
		c24.58-1.21,46.67-1.09,65.66-0.37c31.42,1.2,55.94,4.12,67.95,5.7c21.24,2.8,37.71,5.98,44.66,7.36
		c7.64,1.53,14.13,2.96,19.07,4.09c8.89-12.71,18.28-27.96,27.06-45.78C781.59,459.72,786.85,446.78,791,434.97z"/>
	<path class="st3" d="M550.55,69.72c-150.63-39.91-296.77,23.18-295,33.22c0.89,5.07,39.08-5.59,115.61-1.33
		c31.43,1.75,133.38,7.42,220.59,49.17c136.5,65.35,179.13,191.44,192.68,183.38c13.67-8.13-20.65-141.85-129.51-217.91
		C612.23,86.44,572.47,75.53,550.55,69.72z"/>
	<path class="st4" d="M361.85,81.68c0-7.15,71.98-21.29,150.16-7.97c27.32,4.65,89.5,16.01,150.16,63.78
		c53.46,42.11,88.61,99.01,82.39,104.98c-7.94,7.62-70-80.43-189.95-126.76C450.4,75.45,361.86,89.6,361.85,81.68z"/>
	<path class="st5" d="M565.61,530.83c4.75-18.58,107.38-18.6,202.87,18.6c38.11,14.85,184,71.69,183.18,159.28
		c-1,106.7-218.89,171.84-228.36,156.99c-7.51-11.78,120.03-67.85,115.39-143.53C832.02,613.25,557.65,561.92,565.61,530.83z"/>
	<path class="st3" d="M631.16,546.77c1.35-5.14,31.89,0,31.89,0c73.81,12.41,256.31,63.81,258.68,150.6
		c1.45,52.93-64.6,100.32-74.42,93.9c-9.01-5.89,36.21-52.72,24.81-102.76C849.79,590.45,627.97,558.94,631.16,546.77z"/>
</g>
</svg>
