<?xml version="1.0" encoding="utf-8"?>
<!-- Generator: Adobe Illustrator 23.0.1, SVG Export Plug-In . SVG Version: 6.00 Build 0)  -->
<svg version="1.1" id="Слой_1" xmlns="http://www.w3.org/2000/svg" xmlns:xlink="http://www.w3.org/1999/xlink" x="0px" y="0px"
	 viewBox="0 0 1000 1000" style="enable-background:new 0 0 1000 1000;" xml:space="preserve">
<style type="text/css">
	.st0{fill:#DBDBCA;}
	.st1{fill:#D6D5C5;}
	.st2{fill:#EBE9D7;}
	.st3{opacity:0.1;fill:#FFFFFF;}
	.st4{opacity:0.2;fill:#FFFFFF;}
</style>
<g>
	<polygon class="st0" points="749.02,766.83 142.56,416.69 142.56,70.5 749.02,420.64 	"/>
	<path class="st1" d="M791.01,103.37c9.36,7.88,22.09,19.36,35.86,34.44c0,0,51.2,56.08,79.45,132.99
		c46.39,126.31,29.92,353.97-112.16,468.07c-17.82,14.31-34.12,24.02-45.13,29.99c0-116.06,0-232.11,0-348.17
		c7.36-4.2,17.29-10.27,28.48-18.38c11-7.98,29.82-21.81,48.53-43.94c8.52-10.08,19.4-23.12,28.96-43.18
		c13.86-29.11,15.62-53.44,15.93-58.64c0.6-9.94,0.96-15.86-0.43-23.11c-8.31-43.27-62.89-49.36-77.42-94.22
		C790.56,131.46,788.29,119.6,791.01,103.37z"/>
	<path class="st2" d="M749.02,420.69c164.04-96.85,162.92-252.13-3.42-348.17s-435.29-96.68-603.04-1.98L749.02,420.69z"/>
	<path class="st2" d="M557.81,872.98L53.08,581.57l210.51-121.54c55.26-31.9,123.34-31.9,178.6,0l504.73,291.41L736.42,872.98
		C681.16,904.88,613.07,904.88,557.81,872.98z"/>
	<path class="st0" d="M557.8,872.88L53.07,581.48v0.06c0,63.81,34.04,122.77,89.3,154.68L557.8,976.06
		c55.26,31.9,123.34,31.9,178.6,0l121.21-69.98c55.26-31.9,89.3-90.87,89.3-154.68v-0.06L736.41,872.88
		C681.15,904.79,613.07,904.79,557.8,872.88z"/>
	<path class="st1" d="M641.83,896.83c-0.01,34.36-0.01,68.72-0.02,103.08c8.17,0.27,19.96,0.09,33.87-2.22
		c16.22-2.69,33.59-7.85,69.83-26.88c20.94-11,23.52-13.49,61.18-35.32c50.13-29.05,51.06-27.82,63.3-37.26
		c13.81-10.66,36.74-28.72,54.22-59.68c19.03-33.73,22.52-66.7,22.72-87.09c0,0-107.63,64.52-201.21,116.17
		c-12.43,6.86-37.79,22.36-74.2,27.51C658.74,896.93,648.2,896.99,641.83,896.83z"/>
	<path class="st3" d="M681.48,348.9c122.94-72.59,122.1-188.97-2.57-260.94s-326.24-72.46-451.97-1.48L681.48,348.9z"/>
	<path class="st4" d="M623.41,279.57c78.94-46.61,78.4-121.34-1.65-167.55s-209.48-46.53-290.21-0.95L623.41,279.57z"/>
	<path class="st3" d="M392.27,780.1L53.08,584.27l121.06-46.34c31.78-12.16,74.23-6.45,111.37,14.99L624.7,748.75l-121.06,46.34
		C471.86,807.25,429.41,801.54,392.27,780.1z"/>
	<path class="st4" d="M370.47,733.7L169.82,617.86l71.62-27.41c18.8-7.2,43.92-3.82,65.88,8.87l200.65,115.85l-71.62,27.41
		C417.55,749.77,392.44,746.39,370.47,733.7z"/>
	<path class="st1" d="M198.8,449.16c20.25-14,53.21-33.27,97.62-44.63c11.15-2.85,38.69-9.72,71.17-9.23
		c60.41,0.92,105.51,26.82,134.29,43.2c70.06,39.89,150.85,84.57,244.28,137.51c0.96,20.39,1.91,40.78,2.87,61.18
		c-102.28-59.05-204.55-118.1-306.83-177.15c-11.6-6.68-27.78-14.29-48.11-19.1c-13.39-3.17-37.44-7.23-66.77-2.96
		c-22.77,3.31-39.25,10.27-48.99,14.45c-15.95,6.86-28.58,14.56-37.71,20.88C226.68,465.25,212.74,457.21,198.8,449.16z"/>
</g>
</svg>
