<?xml version="1.0" encoding="utf-8"?>
<!-- Generator: Adobe Illustrator 23.0.1, SVG Export Plug-In . SVG Version: 6.00 Build 0)  -->
<svg version="1.1" id="Слой_1" xmlns="http://www.w3.org/2000/svg" xmlns:xlink="http://www.w3.org/1999/xlink" x="0px" y="0px"
	 viewBox="0 0 1000 1000" style="enable-background:new 0 0 1000 1000;" xml:space="preserve">
<style type="text/css">
	.st0{fill:#8D8D0F;}
	.st1{fill:#A1A011;}
	.st2{fill:#CFD412;}
	.st3{fill:#B3B112;}
	.st4{fill:#E1E03F;}
	.st5{opacity:0.3;fill:#8D8D0F;}
	.st6{opacity:0.1;fill:#FFFFFF;}
</style>
<g>
	<path class="st0" d="M449.56,254.36c-12.67-1.44-25.79-3.03-37.04,4.8c-3.93,2.74-6.57,5.89-8.23,8.23
		c-2.18-0.52-12.59-2.78-22.63,3.43c-6.59,4.07-9.74,9.76-10.97,12.35c-3.1-1.63-8.45-3.81-15.09-3.43
		c-17.17,0.97-26.18,18.09-26.75,19.2c-3.6-0.41-10.25-0.68-17.83,2.06c-9.85,3.55-15.57,10.1-17.83,13.03
		c-3.33-0.55-11.86-1.51-21.26,2.74c-7.82,3.54-12.38,8.93-14.4,11.66c-4.64,1.4-11.29,3.85-18.52,8.23
		c-7.54,4.57-10.84,8.3-15.09,11.66c-12.18,9.64-19.51,6.26-36.35,13.03c-16.91,6.79-13.56,11.82-39.09,26.75
		c-12.63,7.38-13.94,6.44-30.86,15.78c-15.91,8.78-27.85,16.83-32.24,19.89c-10.58,7.38-38,26.52-58.98,61.04
		c-8.42,13.85-24.56,40.82-26.06,78.19c-0.57,14.05-1.17,28.98,6.17,45.27c17.09,37.92,61.89,49.23,70.64,51.44
		c51.25,12.94,98.18-10.81,122.09-23.32c303.51-158.83,362.29-206.71,370.37-263.37c1.5-10.53,5.55-38.94-9.6-66.53
		c-17.51-31.87-50.4-43.99-58.3-46.64C496.45,258.1,501.58,260.29,449.56,254.36z"/>
	<g>
		<path class="st1" d="M462.24,415.35c-32.36,6.11-54.92,16.91-69.5,25.61c-16.2,9.66-17.73,13.84-37.49,24.69
			c-26.09,14.32-35.47,13.65-53.04,25.61c-9.22,6.28-21.83,16.81-33.84,34.75c-22.66,9.38-49.53,22.78-77.73,42.07
			c-20.24,13.84-37.23,28.02-51.21,41.15c-30.28,15.82-49.58,35.05-60.36,47.55c-13.32,15.45-39.84,46.23-42.98,91.45
			c-0.89,12.82-2.58,37.08,11.89,61.27c15.78,26.4,41.15,36.57,53.04,41.15c37.92,14.6,73.29,7.22,85.96,4.57
			C250,842.07,424.17,758.85,648.8,627.52C586.62,556.79,524.43,486.07,462.24,415.35z"/>
		<path class="st2" d="M37.76,735.09c1.64-6.43,3.28-12.85,4.92-19.28c2.92-6.73,5.84-13.46,8.75-20.19
			c5.64-8.63,11.28-17.26,16.91-25.89c5.84-1.35,14.64-3.68,24.9-7.69c29.33-11.45,47.35-27.48,62.41-39.78
			c21.86-17.85,45.78-33.05,69.27-48.7c57.09-38.04,94.57-63.01,145.65-91.21c53.84-29.73,104.6-52.99,105.52-51.24
			c0.83,1.57-39.34,21.4-100.27,60.15c-42.11,26.77-78.6,53.29-151.58,106.31c-44.56,32.37-35.76,27.92-54.87,41.15
			c-50.8,35.19-66.87,38.64-80.25,61.73c-17.85,30.8-16.65,71.94-6.17,76.13c5.36,2.14,13.39-5.26,19.2-11.66
			c19.77-24.92,38.26-43.14,51.44-55.56c15.12-14.25,48.67-37.32,102.88-76.82c50.64-36.9,63.08-30.53,163.24-85.05
			c38.99-21.22,69.82-40,89.16-52.13c-17.8,14.32-45.16,35.35-80.25,58.3c-79.53,52.02-101.7,51.52-159.12,88.48
			c-93.8,60.38-171.92,150.8-158.44,170.78c0.57,0.84,2.11,2.76,12.35,4.8c37.6,7.51,70.94-7.55,76.82-10.29
			c68.1-31.79,141.29-84.36,141.29-84.36c96.71-71.69,133.17-92.44,157.06-104.94c32.35-16.92,59.93-28.25,77.5-34.98
			c-23.43,12.27-57.76,31.34-97.39,57.61c-10.64,7.06-47.07,31.5-128.94,98.77C318.69,765.07,277.64,799.6,230,841.98
			c-23.32,10.63-43.9,14.51-57.71,16.07c-11.27,1.27-28.5,3.07-50.36-1.38c-8.75-1.78-27.96-5.82-47.26-19.28
			c-10.94-7.63-17.19-14.94-18.58-16.59c-7.08-8.42-11.08-16.41-13.12-21.09c-6.07-13.87-6.87-25.73-7.36-34.14
			C35.17,758.1,35.26,747.55,37.76,735.09z"/>
		<path class="st2" d="M249.62,698.85c9.08-2.96,33.38,32.6,27.43,39.78c-3.6,4.35-20.62,1.11-28.35-11.43
			C241.78,715.95,244.37,700.56,249.62,698.85z"/>
		<path class="st2" d="M118.62,690.16c-4.15,1.62-6.72,12.32-1.14,19.43c6.29,8.03,18.9,6.32,21.03,2.29
			C141.69,705.85,125.25,687.58,118.62,690.16z"/>
		<path class="st2" d="M273.86,612.43c3.63-6.4-12.8-26.26-20.58-23.78c-4.85,1.55-8.28,12.41-3.66,20.12
			C255.6,618.73,271.22,617.09,273.86,612.43z"/>
		<path class="st2" d="M343.82,614.71c9.43-2.19,27.45,23.88,22.41,31.09c-3.61,5.16-22.16,5.19-28.35-7.32
			C333.06,628.77,337.99,616.06,343.82,614.71z"/>
		<path class="st2" d="M438.92,583.62c6.77-3.26,36.51,35.99,31.55,41.61c-2.75,3.12-17.4-2.71-25.61-13.72
			C436.89,600.79,435.2,585.41,438.92,583.62z"/>
		<path class="st2" d="M442.13,472.97c5.81-2.45,26.91,26.48,22.41,32.01c-2.27,2.78-11.15-0.16-16.46-4.57
			C437.46,491.6,438.27,474.59,442.13,472.97z"/>
		<path class="st2" d="M423.45,695.65c5.65-1.25,19.82,28.31,15.09,32.24c-2.5,2.07-10.83-2.58-15.09-8.92
			C417.07,709.47,419.97,696.42,423.45,695.65z"/>
		<path class="st2" d="M554.84,622.26c7.6-2.86,30.31,28.05,25.38,34.29c-2.95,3.73-17.59,0.98-24.69-9.6
			C549.11,637.39,550.48,623.9,554.84,622.26z"/>
	</g>
	<g>
		<path class="st3" d="M933.21,800.35c-10.49,8.41-26.16,20.72-50.3,27.43c-39.77,11.06-73.67-1.11-87.79-6.4
			c-33.59-12.59-53.13-32.64-78.65-59.44c-21.68-22.77-50.8-58.04-76.82-107.91c-4.41-3.03-9.56-7.19-14.63-12.8
			c-9.08-10.06-13.89-20.38-16.46-27.43c-5.47-3.63-11.92-8.68-18.29-15.55c-10.84-11.69-16.82-23.68-20.12-32.01
			c-6.54-2.94-16.91-8.65-26.52-19.2c-13.14-14.44-17.58-29.99-19.2-37.49c-2.14-0.42-15.85-3.33-21.95-15.55
			c-2.05-4.12-2.63-8.07-2.74-10.97c-6.5-3.52-15.7-9.1-25.61-17.38c-16.13-13.48-25.71-27.09-32.92-37.49
			c-12.02-17.33-8.61-16.95-20.12-33.84c-12.39-18.18-18.34-18.23-36.58-42.07c-5.58-7.29-7.66-10.62-14.63-19.2
			c-8.46-10.42-15.95-18.5-21.03-23.78c-7.22-8.89-18.03-24.59-23.78-46.64c-3.39-13-10.91-41.91,3.66-71.33
			c19.79-39.96,64.24-48.33,70.42-49.38c28.29-4.85,51.01,3.96,60.36,8.23c5.07,3.14,10.26,6.49,15.55,10.06
			c5.44,3.68,10.62,7.34,15.55,10.97c7.38,11.51,15.29,17.12,21.03,20.12c8.5,4.43,12.41,3.21,23.78,8.23
			c11.55,5.1,19.23,11.54,22.86,14.63c15.28,13.01,11.88,18.58,24.69,29.26c11.95,9.96,17.74,7.47,32.01,17.38
			c9.11,6.32,15.72,15.2,23.78,24.69c4.68,5.52,8.39,10.29,10.97,13.72c4.46,0.76,10.77,2.44,17.38,6.4
			c13.23,7.93,19.01,19.84,21.03,24.69c3.51,0.88,13.07,3.75,21.03,12.8c8.11,9.22,9.67,19.29,10.06,22.86
			c6.74,1.24,16.94,4.05,27.43,10.97c19.03,12.55,26.69,30.48,29.26,37.49c6.31,2.05,18.37,6.92,29.26,18.29
			c8.1,8.45,12.39,17.19,14.63,22.86c7.68,4.49,17.06,10.96,26.52,20.12c12.56,12.16,20.6,24.57,25.61,33.84
			c4.53-0.55,11.16-0.7,18.29,1.83c13.85,4.91,20.97,16.91,24.69,22.86c18.56,29.66,24.14,23.09,45.72,56.7
			c23.8,37.05,38.54,60.01,39.32,91.45C1001.54,745.56,945.42,790.56,933.21,800.35z"/>
		<path class="st2" d="M322.33,209.59c9.42,23.98,25.49,58.4,52.82,94.48c23.41,30.9,34.73,36.14,92.8,92.3
			c34.6,33.46,30.23,31.26,106.78,108.6c35.97,36.34,65.19,65.38,83.22,83.22c-20.67-24.98-46.92-56.03-78-91.21
			c-50.1-56.7-75.15-85.06-100.33-109.06c-40.68-38.79-63.24-51.31-94.19-94.19c-17.79-24.65-46.49-60.89-34.75-79.56
			c6.7-10.65,23.59-11.08,26.46-11.15c48.41-1.22,77.77,66.47,133.12,131.86c52.08,61.52,65.59,47.8,172.84,138.55
			c39.42,33.36,96.53,85.08,160.49,156.84c-60.35-77.77-117.3-132.09-158.21-167.35c-67.85-58.49-107.89-78.64-165.52-139
			c-53.69-56.24-87.96-111.03-108.37-148.15c16.82,6.4,43.03,17.55,72.7,35.67c33.34,20.35,43.96,33.6,112.48,91.91
			c46.94,39.94,44.9,36.34,76.82,64.47c45.32,39.95,76.98,71.48,85.05,79.56c45.94,46.01,73.59,78.3,73.16,77.73
			c-45.66-59.93-87.35-104.63-117.06-134.43c-56.05-56.24-78.79-69.94-164.61-149.06c-43.15-39.78-77.37-73.23-99.24-94.97
			c-2.63-0.82-5.27-1.65-7.9-2.47c-3.48-0.95-7.91-1.96-13.09-2.67c-7.95-1.1-14.21-1.01-16.95-0.93
			c-3.55,0.11-10.64,0.53-19.39,2.55c-1.86,0.43-8.29,1.97-16.33,5.25c-7.69,3.14-13.13,6.36-14.63,7.26
			c-9.13,5.49-15.03,11.01-16.24,12.15c-6.6,6.25-10.65,12.04-12.03,14.09C327.52,191.83,324.11,201.77,322.33,209.59z"/>
		<path class="st4" d="M370.79,248.91c8.56-10.46,16.53-16.61,20.12-14.63c3.84,2.12,5.37,15.01-2.68,19.66
			C382.71,257.14,374.74,255.22,370.79,248.91z"/>
		<path class="st4" d="M444.87,329.39c-3.81-7.49,16.84-30.1,26.52-26.52c5.74,2.13,8.75,13.9,4.57,21.95
			C469.39,337.49,447.9,335.36,444.87,329.39z"/>
		<path class="st4" d="M538.15,321.16c-3.74-8.15,13.09-26.55,21.03-23.78c5.93,2.07,11.32,17.44,2.74,25.61
			C554.25,330.29,540.72,326.75,538.15,321.16z"/>
		<path class="st4" d="M552.78,449.19c-2.69-9.4,22.8-29.12,32.01-23.78c5.93,3.44,7.85,18.88-0.91,27.43
			C573.29,463.17,554.74,456.03,552.78,449.19z"/>
		<path class="st4" d="M594.85,377.86c-2.16-7.73,15.65-22.11,22.86-18.29c5.1,2.7,8.03,16.14,0,22.86
			C609.45,389.35,596.41,383.44,594.85,377.86z"/>
		<path class="st4" d="M639.66,529.66c-2.27-10.88,27.95-30.83,36.58-24.69c5.95,4.23,6.47,24.3-7.32,32.01
			C656.74,543.8,641.11,536.64,639.66,529.66z"/>
		<path class="st4" d="M653.37,633c-2.55-8.47,37.99-32.61,43.9-26.52c3.55,3.67-3,20.8-17.38,27.43
			C669.12,638.89,654.75,637.58,653.37,633z"/>
		<path class="st4" d="M791.46,541.55c-2.42-8.61,20.6-26.24,27.43-21.95c4.94,3.1,5.82,20.36-5.49,26.52
			C804.76,550.84,792.96,546.87,791.46,541.55z"/>
		<path class="st4" d="M773.17,662.27c-2.56-7.54,28.17-28.63,33.84-23.78c3.55,3.04-0.01,18.59-11.89,24.69
			C786.45,667.63,774.58,666.41,773.17,662.27z"/>
		<path class="st4" d="M880.17,618.37c-1.35-8.48,28.8-24.14,34.75-18.29c3.75,3.69,0.52,18.53-10.97,23.78
			C893.58,628.59,880.98,623.47,880.17,618.37z"/>
		<path class="st4" d="M732.94,728.11c-2.07-8.11,26.21-26.01,32.01-21.03c3.85,3.31,1.02,19.48-10.97,24.69
			C745.37,735.5,734.11,732.71,732.94,728.11z"/>
		<path class="st4" d="M853.65,714.39c-2.57-9.06,29.51-30.41,36.58-24.69c4.43,3.59,2.16,20.37-10.06,27.43
			C869.48,723.32,855.17,719.74,853.65,714.39z"/>
		<path class="st4" d="M691.78,454.68c-2.61-7.35,23.86-27.05,29.26-22.86c3.68,2.85,1.02,19.44-10.97,24.69
			C703.04,459.58,693.18,458.59,691.78,454.68z"/>
	</g>
	<path class="st5" d="M436.85,421.59c2.53,4.04,6.07,9.38,10.65,15.4c4.91,6.46,12.38,16.16,24.1,26.43
		c6.56,5.75,15.87,12.92,28.15,19.6c0.16,2.83,0.91,8.91,5.15,14.84c6.83,9.59,17.43,11.37,19.54,11.68
		c1.73,7.9,4.28,14.11,6.38,18.41c3.25,6.66,10.52,19.26,24.63,29.69c5.67,4.19,10.92,6.9,14.72,8.61
		c2.37,5.98,5.82,13.06,10.91,20.44c9.23,13.39,19.89,21.98,27.5,27.11c0.51,3.74,1.94,10.48,6.63,17.38
		c3.34,4.9,7.12,8.12,9.83,10.06c-3.07,1.81-7.46,4.4-12.75,7.47c-2.66,1.54-10.34,6.01-29.69,16.97
		c-11.5,6.52-19.67,11.14-31.31,17.65c-9.95,5.56-21.61,12.04-34.71,19.24c-33.74-31.65-72.29-73.27-109.18-126.27
		c-26.08-37.46-46.3-73.38-62.01-105.53c3.23-1.56,7.07-3.53,11.32-5.92c6.13-3.45,10.76-6.47,13.1-8.03
		c5.48-3.66,5.43-4.2,12.73-9.24c4.76-3.28,7.79-5.15,8.62-5.66c1-0.61,4.68-2.86,9.72-5.54c1.92-1.02,5.41-2.83,9.91-4.9
		c1.5-0.69,4.78-2.18,9.05-3.9C424.24,425.81,429.97,423.69,436.85,421.59z"/>
	<path class="st6" d="M403.26,175.75c3.49-9.32,13.16-15.85,21.95-17.83c22.5-5.06,43.02,18.89,72.7,46.64
		c45.75,42.77,40.25,26.3,91.44,72.73c58.9,53.42,55.24,65.3,104.51,108.71c43.28,38.13,45.2,28.17,100.35,72.33
		c26.11,20.91,132.25,105.91,115.11,140.55c-0.62,1.26-3.71,7.11-14.37,11.07c-42.61,15.81-101.13-37.7-242.32-161.56
		c-66.01-57.9-123.32-125.21-189.01-183.47C439.97,243.95,393.02,203.11,403.26,175.75z"/>
	<path class="st6" d="M434.81,188.1c3.74-4.47,69.38,41.14,128.94,91.91c51.54,43.93,56,55.47,128.94,124.83
		c81.83,77.8,130.43,114.81,126.2,120.71c-3.65,5.09-44.25-16.23-76.82-37.04C663.5,438.3,636,393.78,541.81,296.47
		C471.9,224.25,431.8,191.7,434.81,188.1z"/>
</g>
</svg>
