<?xml version="1.0" encoding="utf-8"?>
<!-- Generator: Adobe Illustrator 23.0.1, SVG Export Plug-In . SVG Version: 6.00 Build 0)  -->
<svg version="1.1" id="Слой_1" xmlns="http://www.w3.org/2000/svg" xmlns:xlink="http://www.w3.org/1999/xlink" x="0px" y="0px"
	 viewBox="0 0 1000 1000" style="enable-background:new 0 0 1000 1000;" xml:space="preserve">
<style type="text/css">
	.st0{fill:#79A645;}
	.st1{fill:#B3CC4B;}
	.st2{opacity:0.31;fill:#51722E;}
	.st3{fill:#0F0906;}
	.st4{fill:#191210;}
	.st5{fill:#1D1813;}
	.st6{fill:#37342F;}
	.st7{fill:#2C2A25;}
	.st8{fill:#302D29;}
	.st9{fill:#3B3833;}
	.st10{opacity:0.1;fill:#FFFFFF;}
	.st11{opacity:0.7;fill:#FFFFFF;}
	.st12{opacity:0.3;fill:#0F0906;}
</style>
<g>
	<path class="st0" d="M168.89,613.02c-48.03,16.45-77.53,39.07-91.31,50.73c-21.53,18.22-44.02,37.25-39.31,52
		c4.3,13.47,29.09,16.44,50.73,19.02c10.97,1.31,47.62,4.87,125.55-17.75c45.69-13.26,51.43-19.81,54.53-25.36
		c15.05-26.95-6.05-76.8-39.31-88.77C214.53,597.39,199.32,602.6,168.89,613.02z"/>
	<path class="st0" d="M626.71,591.46c19.33-1.82,33.52,7.99,59.61,26.63c38.78,27.71,81.9,73.24,72.29,88.77
		c-3.91,6.32-13.23,2.34-48.19,7.61c-24.2,3.65-30.79,7.21-41.85,8.88c-37.33,5.63-98.64-14.09-105.26-54.53
		C557.78,635.15,591.43,594.79,626.71,591.46z"/>
	<path class="st0" d="M647,313.73c3.4-30.11,33.02-46.63,49.46-55.8c14.1-7.86,46.64-26.02,68.48-11.41
		c22.55,15.08,17.38,54.16,16.49,60.87c-3.95,29.79-25.73,81.6-68.48,81.16C675.83,388.17,643.06,348.61,647,313.73z"/>
	<path class="st0" d="M277.95,388.55c0.95-3.95,9.5-41.71-10.15-65.95c-8.93-11.02-18.9-13.32-38.05-35.51
		c-7.58-8.79-8.5-11.29-12.68-12.68c-17.18-5.69-47.88,21.27-59.61,52c-14.05,36.82,1.72,72.32,15.22,102.72
		c7.56,17.02,11.51,25.6,20.29,29.17C218.61,468.72,267.17,433.44,277.95,388.55z"/>
	<path class="st0" d="M191.72,424.06c-15.73-9.55-32.37-6.57-59.61-1.27c-8.07,1.57-26.36,5.56-71.02,25.36
		c-39.92,17.7-59.91,26.76-60.87,36.78c-1.81,18.79,35.46,36.6,57.07,46.92c31,14.81,53.23,25.44,81.16,20.29
		c41.38-7.62,82.43-47.46,78.63-86.24C215.57,450.48,206.75,433.18,191.72,424.06z"/>
	<path class="st0" d="M674.9,462.81c21.46-11.1,39.01-0.93,106.53-1.14c31.09-0.1,33.62-2.28,53.26-2.29
		c80.85-0.05,167.46,36.73,164.87,59.5c-1.11,9.71-17.79,11.04-72.29,32.04c-74.48,28.7-72.77,37.58-102.72,44.63
		c-71,16.69-169.56-12.3-182.62-61.79C635.24,508.41,650.39,475.48,674.9,462.81z"/>
	<path class="st1" d="M646.84,511.58c19.7,4.05,50.48,9.12,88.46,9.87c47.22,0.93,71.48-5.49,122.22-8.58
		c26.83-1.64,66.26-2.66,115.09,1.29c-15.22,0.18-38.95,0.73-68.01,2.57c-46.91,2.97-59.72,6.26-106.53,9.01
		c-40.12,2.36-60.74,3.46-88.46,0C682.77,522.39,661.22,516.34,646.84,511.58z"/>
	<path class="st1" d="M857.52,518.86c1.96-5.43,5.88-13.6,13.79-20.45c20.98-18.17,50.14-9.84,52.79-9.04
		c-6.65-0.7-19.83-1.18-34.72,4.76C871.6,501.22,861.51,513.42,857.52,518.86z"/>
	<path class="st1" d="M861.65,520.26c6,2.67,13.89,5.48,23.45,7.2c18.55,3.33,34.15,0.87,43.28-1.29
		c-3.04,1.82-21.24,12.29-43.28,6.87C873.1,530.08,865.32,523.73,861.65,520.26z"/>
	<path class="st1" d="M806.84,517.42c-0.31-3.43-0.79-14.09,6.93-24.29c11.25-14.88,30.39-16.18,32.81-16.31
		c-11.8-3.43-24.69-0.79-33.29,6.87C803.6,492.32,800.96,505.87,806.84,517.42z"/>
	<path class="st1" d="M811.35,524.89c4.07,4.67,12.47,12.96,26.19,18.45c20.1,8.03,38.48,4.79,44.7,3.43
		c-1.59,0.82-25.71,12.75-48.98,1.29C818.67,540.87,812.95,528.69,811.35,524.89z"/>
	<path class="st1" d="M768.02,520.89c-0.93-3.33-2.62-11.36,1.05-20.47c5.71-14.17,19.88-19.68,22.35-20.6
		c-12.37-1.07-23.98,5.13-28.53,15.02C758.91,503.49,760.92,513.64,768.02,520.89z"/>
	<path class="st1" d="M769.51,527.3c2.33,4.51,6.14,10.41,12.4,16.03c14.39,12.93,31.88,15.61,38.52,16.31
		c-15.98,5.17-33.07,1.65-42.8-8.58C768.73,541.71,769.27,530.22,769.51,527.3z"/>
	<path class="st1" d="M595,628.72c18.42,1.95,42.01,6.33,68.01,16.17c38.27,14.49,65.91,34.83,83.23,49.94
		c-19.88-13.33-44.95-27.91-75.14-40.9C643.04,641.85,617.1,633.97,595,628.72z"/>
	<path class="st1" d="M710.11,672.92c-3.17,6.02-2.61,13.3,1.41,18.58c4.45,5.83,12.34,8.17,19.5,5.71
		c-12.87,4.62-24.54-1.36-26.63-9.04C702.38,680.77,709.67,673.35,710.11,672.92z"/>
	<path class="st1" d="M712.69,669.75c0.41-0.69,4.07-6.53,11.2-7.27c5.6-0.59,11.14,2.19,14.27,7.13c-1.69-1.12-6.54-4.01-13.32-3.8
		C718.73,665.99,714.4,668.59,712.69,669.75z"/>
	<path class="st1" d="M681.81,658.69c-0.68,0.65-9.65,9.52-7.38,21.39c1.96,10.3,11.53,18.4,23.3,19.02
		c-15.44,2.71-28.46-7.6-29.49-19.02C667.5,671.88,672.96,663.23,681.81,658.69z"/>
	<path class="st1" d="M685.11,654.39c-0.49-6.16,2.63-11.99,7.87-14.74c6.04-3.17,13.81-1.66,18.55,3.8
		c-0.83-0.44-8.46-4.34-16.65-0.48C687.65,646.39,685.44,653.28,685.11,654.39z"/>
	<path class="st1" d="M651.94,646.18c-1.2,1.16-10.06,10.02-8.9,23.43c1.33,15.46,14.75,22.81,15.69,23.3
		c-12.02-1.99-20.9-11.92-21.4-23.3C636.9,659.88,642.68,650.57,651.94,646.18z"/>
	<path class="st1" d="M652.66,641.21c0.41-2.41,1.66-7.66,6.07-12.02c9.06-8.97,22.61-5.42,23.3-5.23
		c-4.81,1.34-11.26,3.71-18.07,8.08C659.2,635.11,655.47,638.37,652.66,641.21z"/>
	<path class="st1" d="M239.27,644.41c-27.08,1.67-65.77,7.29-108.61,25.07c-29.33,12.17-52.71,26.76-70.21,39.61
		c27.86-15.01,61.55-30.54,100.82-43.75C189.27,655.92,215.52,649.22,239.27,644.41z"/>
	<path class="st1" d="M102.62,682.44c-1.89-1.18-11.28-6.78-23.46-4.1c-13.34,2.93-19.63,13.51-20.61,15.22
		c2.96-2.84,9.86-8.72,20.61-11.41C89.86,679.45,98.68,681.34,102.62,682.44z"/>
	<path class="st1" d="M107.92,685.95c1.62,2.29,3.36,5.65,3.58,9.82c0.45,8.63-5.83,17.3-15.85,21.88
		c2.52-2.41,6.43-6.78,9.19-13.32C108.14,696.54,108.17,689.59,107.92,685.95z"/>
	<path class="st1" d="M132.47,668.74c-0.35-0.66-7.37-13.6-22.23-14.5c-14.13-0.85-22.52,9.95-23.14,10.78
		c3.16-1.77,13.57-7.1,26.95-4.76C123.17,661.86,129.46,666.29,132.47,668.74z"/>
	<path class="st1" d="M136.34,674.3c2.54,0.8,9.27,3.32,12.57,9.74c4.65,9.05,0.79,22.51-10.78,31.07
		c1.19-1.28,9.24-10.27,7.61-23.14C144.47,681.93,138.12,675.88,136.34,674.3z"/>
	<path class="st1" d="M164.78,657.44c-0.62-2.5-2.97-10.62-10.79-16.2c-12.18-8.7-26.48-3.29-27.58-2.85c4.32-0.12,14,0.2,24.1,6.02
		C157.88,648.67,162.4,654.09,164.78,657.44z"/>
	<path class="st1" d="M169.38,662.67c2.78,1.02,9.05,3.79,12.83,10.27c5.36,9.22,3.46,22.16-5.07,32.02
		c1.23-1.99,6.67-11.32,4.12-23.46C178.92,670.39,171.42,664.24,169.38,662.67z"/>
	<path class="st1" d="M180.3,490.32c-19.41-5.45-43.24-10.46-70.7-12.68c-36.87-2.99-68.63-0.02-92.9,4.12
		c29.05-0.92,60.68-0.62,94.48,1.59C135.58,484.94,158.66,487.36,180.3,490.32z"/>
	<path class="st1" d="M61.09,481.37c-0.46,2.46-2.09,9.36-8.24,14.66c-10.38,8.94-24.01,5.07-25.05,4.76
		c3.36,0.08,11.91-0.18,20.61-5.71C55.73,490.43,59.5,484.36,61.09,481.37z"/>
	<path class="st1" d="M62.7,476.81c-0.31-1.76-1.42-6.66-5.73-10.59c-6.71-6.12-15.42-4.64-16.49-4.44c3.11,0.53,9.11,2,14.9,6.66
		C59,471.35,61.3,474.52,62.7,476.81z"/>
	<path class="st1" d="M85.14,482c4.7,8.45,4.47,18.81-0.59,27.03c-5.1,8.29-14.36,13.16-24.1,12.68
		c1.87-0.32,13.97-2.61,21.24-14.27C89,495.74,85.68,483.81,85.14,482z"/>
	<path class="st1" d="M86.15,476.49c0.52-0.41,7.08-5.8,6.33-13.75c-0.68-7.22-7.1-13.46-15.54-14.27c0.84,0.32,9.36,3.76,11.73,13
		C90.68,469.27,86.81,475.46,86.15,476.49z"/>
	<path class="st1" d="M215.5,433.57c5.95-12.89,12.25-30.37,15.22-51.68c6.03-43.38-5.13-78.46-12.36-96.38
		c5.24,17.96,10.82,44.59,9.83,77.04C227.27,392.28,221.16,416.62,215.5,433.57z"/>
	<path class="st1" d="M227.39,333.92c-3.83-1.67-9.52-4.83-14.43-10.68c-11.73-13.98-9.07-31.53-8.56-34.56
		c-0.44,0.91-7.81,16.86,1.59,31.39C213.26,331.31,225.33,333.57,227.39,333.92z"/>
	<path class="st1" d="M230.86,332.92c1.98-1.24,6.27-4.3,9.04-10c3.79-7.79,2.12-15.11,1.59-17.12c-0.12,3.8-0.81,9.83-3.8,16.49
		C235.57,326.98,232.97,330.5,230.86,332.92z"/>
	<path class="st1" d="M228.28,353.36c-2.98,0.56-13.12,2.06-23.25-3.81c-15.04-8.71-16.67-25.94-16.8-27.58
		c-2.31,11.46,2.35,23.13,11.73,29.49C213.05,360.33,227.65,353.66,228.28,353.36z"/>
	<path class="st1" d="M232.39,352.72c1.41,0.04,10.94,0.13,17.98-7.61c6.45-7.08,6.11-15.56,6.02-17.12
		c3.49,7.66,1.61,16.6-4.44,21.88C246.69,354.47,239.04,355.57,232.39,352.72z"/>
	<path class="st1" d="M227.3,377.11c-0.81,0.67-11.65,9.23-24.8,5.09c-10.24-3.22-17.61-12.81-18.39-24.1
		c-1.23,9.85,2.98,19.43,10.78,24.41C204.69,388.78,218.63,386.79,227.3,377.11z"/>
	<path class="st1" d="M231.14,378.58c5.15,5.87,13.17,8.28,20.5,6.16c8.07-2.33,13.86-9.75,14.27-18.39
		c1.22,8.72-3.67,17.13-11.65,20.28C245.81,389.96,235.93,386.59,231.14,378.58z"/>
	<path class="st1" d="M676.09,361.44c11.82-8.32,26.87-20.81,41.14-38.76c20.25-25.48,30.05-50.76,34.95-67.29
		c-1.19,11.97-5.08,34.61-20.21,58.02C712.93,342.86,687.17,356.4,676.09,361.44z"/>
	<path class="st1" d="M738.08,290.44c-1.09-1.05-8.83-8.72-8.01-20.54c0.74-10.72,7.97-16.98,9.27-18.07
		c-9.66,4.11-15.21,13.78-13.75,22.98C727.26,285.33,737.27,290.07,738.08,290.44z"/>
	<path class="st1" d="M743.12,292c3.01-0.5,7.77-1.71,12.63-4.98c8.81-5.94,11.92-14.62,12.84-17.6
		c-0.01,1.04-0.38,12.86-10.22,19.26C751.89,292.89,745.15,292.26,743.12,292z"/>
	<path class="st1" d="M727.82,311.69c-2.89-2.46-9.45-8.71-12.4-19.08c-4.37-15.36,2.51-28.03,3.95-30.57
		c-8.25,7.64-11.76,19.03-9.04,29.61C713.88,305.52,726.33,311.06,727.82,311.69z"/>
	<path class="st1" d="M731.97,313.41c2.19,0.75,10.53,3.32,20.01-0.44c10.53-4.18,14.81-13.13,15.65-15.01
		c-0.05,0.99-0.76,11.94-10.06,17.68C749.88,320.38,739.54,319.55,731.97,313.41z"/>
	<path class="st2" d="M274.03,332.46c0.9,1.87,2.84,6.28,4.29,12.09c0.7,2.79,1.11,5.2,1.36,7.02c-3.12,3.33-7.93,8.48-13.78,14.78
		c-25.97,28.03-46.12,50.72-49.46,54.53c-29.97,34.29-63.23,102.76-77.99,134.43c-19.24-4.21-38.48-8.42-57.72-12.63
		c-11.41-5.3-22.82-10.61-34.22-15.91c3.5-13.3,10.53-33.29,25.36-53.9c19.88-27.62,43.75-42.44,57.2-49.47
		c12.89-1.85,25.78-3.7,38.67-5.55c-4.17-11.91-8.35-23.81-12.52-35.72c0.93-7.95,4.63-30.4,23.18-48.76
		c31.01-30.71,75.01-21.75,78.53-20.98C259.58,314.47,269.05,322.12,274.03,332.46z"/>
	<path class="st2" d="M126.56,631.09c-5.39,2.79-10.96,5.91-16.67,9.4c-12.45,7.62-23.19,15.6-32.32,23.26
		c29.26,21.81,58.52,43.61,87.78,65.42c19.04-3.34,40.4-8.47,63.23-16.41c10.89-3.79,21.05-7.85,30.47-12.01
		c-5.96-33.05-11.92-66.09-17.88-99.14C202.97,611.43,164.77,621.26,126.56,631.09z"/>
	<path class="st2" d="M614.53,717.32c6.95-5.32,19.2-16.19,27.89-34.08c10.87-22.38,9.95-42.97,9.02-51.83
		c6.34-8.14,12.69-16.28,19.03-24.42c-4.68-3.19-10.01-6.47-15.98-9.62c-8.62-4.55-16.76-7.88-23.97-10.34
		c-25.89,6.54-46.31,26.44-53.26,52c-10.4,38.2,15.22,67.24,16.92,69.09C600.96,711.18,607.74,714.25,614.53,717.32z"/>
	<path class="st1" d="M734.86,527.77c-0.99,4.08-1.58,9.41-0.36,15.38c4.12,20.18,25.3,30.07,28.62,31.56
		c-1.11-0.02-18-0.69-27.03-15.62C727,544.09,734.37,528.72,734.86,527.77z"/>
	<path class="st1" d="M710.13,333.84c-3.95-3.01-10.38-8.77-15.07-18.01c-7.27-14.31-5.75-27.84-4.93-32.84
		c-1.11,1.9-7.84,13.91-3.18,28.3C692.4,328.09,708.6,333.37,710.13,333.84z"/>
	<path class="st1" d="M710.48,333.22c2.64,2.52,6.85,5.87,12.77,8.12c12.97,4.93,24.72,1.03,28.3-0.32
		c-1.73,1.85-7.21,7.22-15.58,7.95C725.88,349.86,715.71,343.63,710.48,333.22z"/>
	<path class="st1" d="M735.3,521.45c0.08-3.89,0.53-8.38,1.74-13.24c3.85-15.51,13.07-25.77,18.44-30.85
		c-1.53,0.54-17.62,6.5-21.94,22.9C730.93,510.18,734.03,518.51,735.3,521.45z"/>
	<path class="st1" d="M707.78,525.07c-1.88,2.22-7.71,9.66-7.63,20.35c0.13,17.32,15.62,26.81,16.54,27.35
		c-11.64-3.05-19.96-12.92-20.67-24.17C695.1,534.22,707.12,525.53,707.78,525.07z"/>
	<path class="st1" d="M709.37,520.62c-3.75-3.37-5.49-6.74-6.36-9.22c-4.18-11.88,2.93-27.52,17.81-39.11
		c-2.7,2.47-14.84,14.11-14.95,31.8C705.83,511.11,707.7,516.83,709.37,520.62z"/>
	<path class="st1" d="M634.01,634.78c-0.19-0.52-3.56-10.46,3.18-18.76c6.65-8.19,16.88-7.07,17.49-7c-5.96-3.19-12.93-3.33-17.81,0
		C629.84,613.81,627.62,625.44,634.01,634.78z"/>
	<path class="st1" d="M632.42,640.19c-2.22,0.95-6.77,3.28-9.86,8.27c-6.6,10.67,0.01,22.98,0.32,23.53
		c-0.68-3.29-1.79-11.01,1.59-19.72C626.75,646.39,630.17,642.41,632.42,640.19z"/>
	<path class="st1" d="M197.71,655.13c2.59,1.26,7.34,4.08,10.18,9.54c4.46,8.58,2.35,20.1-5.41,28.94c1.5-4.1,4.49-14.06,1.27-25.76
		C202.23,662.29,199.76,658.03,197.71,655.13z"/>
	<path class="st1" d="M113.13,477.69c0.9-0.76,7.98-6.94,7.63-16.85c-0.27-7.63-4.84-14.59-11.86-18.13
		c1.97,2.45,5.4,7.44,6.77,14.63C117.53,467.1,114.43,474.86,113.13,477.69z"/>
	<path class="st1" d="M146.52,477.37c0.94-2.43,4.6-12.75,0-24.49c-3.92-10.01-11.48-15.02-13.99-16.54
		c4.35,5.82,10.17,15.38,12.72,28.3C146.16,469.31,146.49,473.61,146.52,477.37z"/>
	<path class="st2" d="M656.56,558.25c3.82,3.77,8.59,7.93,14.45,12.03c8.13,5.7,15.98,9.62,22.46,12.33
		c6.29-6.54,21.52-24.22,23.28-50c0.8-11.8-1.46-21.68-3.8-28.61c8.4,1.62,21.92,3.07,37.41-0.57c35.98-8.46,52.4-37.31,55.2-42.45
		c-14.39,0.16-28.78,0.31-43.17,0.47c-42.16,5.67-84.31,11.33-126.47,17C642.81,505.04,649.68,531.64,656.56,558.25z"/>
	<g>
		<path class="st3" d="M316.09,392.79c-46.94,11.74-66.76,56.78-68.48,60.87c-17.75,42.16-10.42,104.7,27.9,124.28
			c19.64,10.04,34.18-0.94,77.36-8.88c78.72-14.48,95.92,10.18,150.83-0.43c80.82-15.62,153.7-90.31,142.23-129.77
			c-6.7-23.03-41.36-31.42-77.55-40.17c-83.69-20.25-109.38,14.47-200.29-3.37C351.56,392.08,336.33,387.72,316.09,392.79z"/>
		<path class="st4" d="M464.38,302.31c9.42-9.4,26.47-6.46,41.85-3.8c21.28,3.67,72.44,18.91,74.82,52
			c2.28,31.62-40.97,66.21-74.82,59.61C461.56,401.39,443.67,322.96,464.38,302.31z"/>
		<path class="st5" d="M655.88,388.55c31.6-30.03,74.29-19.81,77.36-19.02c30.89,7.96,65.94,36.55,62.14,68.48
			c-4.31,36.22-55.46,50.49-60.87,52c-32.76,9.14-86.75,6.3-101.46-27.9C622.03,436.46,638.28,405.27,655.88,388.55z"/>
		<path class="st6" d="M673.63,425.33c30.9-27.55,17.77-83.62,16.49-88.77c-10.74-43.3-46.68-74.17-84.97-83.7
			c-11.78-2.93-47.83-11.91-74.82,8.88c-32.51,25.04-32.98,78.69-16.49,112.87C542.47,433.93,634.56,460.17,673.63,425.33z"/>
		<path class="st5" d="M357.85,416.45c-28.72-21.28-30.09-56.02-30.44-64.68c-0.26-6.56-1.44-59.21,41.85-82.43
			c27.49-14.75,62.51-12.05,87.51,7.61c40.19,31.61,27.39,85.79,26.63,88.77c-1.9,7.46-11.56,41.28-45.66,57.07
			C414.49,433.56,382.51,434.71,357.85,416.45z"/>
		<path class="st7" d="M247.52,354.31c-46.94,11.74-66.76,56.78-68.48,60.87c-17.75,42.16-10.42,104.7,27.9,124.28
			c30.26,15.46,65.92-2.97,77.36-8.88c6.89-3.56,63.09-33.77,63.41-91.31c0.17-30.62-15.48-68.19-48.19-82.43
			C276.84,346.97,255.3,352.36,247.52,354.31z"/>
		<path class="st6" d="M190.45,467.18c-5.32-1.59-39.54-11.24-71.02,8.88c-30.78,19.67-36.57,53.5-38.05,62.14
			c-5.25,30.67,3.38,68.6,30.44,91.31c43.59,36.58,124.22,24.62,149.65-25.36C288.05,551.88,241.8,482.56,190.45,467.18z"/>
		<path class="st8" d="M527.79,424.06c34.58-22.56,92.09,12.77,115.41,31.71c15.01,12.19,51.31,41.65,46.92,81.16
			c-3.21,28.94-26.39,46.41-30.44,49.46c-34.44,25.96-88.64,21.94-121.75-5.07C487.73,540.34,489.33,449.16,527.79,424.06z"/>
		<path class="st6" d="M399.7,365.72c-37.84,24.91-36.96,73.4-36.78,78.63c1.4,40.72,29.51,76.38,65.95,90.04
			c42.7,16.01,100.75,3.28,121.75-39.31c23.38-47.44-13.44-103.03-52-125.55C493.13,366.32,442.27,337.69,399.7,365.72z"/>
		<path class="st9" d="M586.73,533.82c-7.29-6.65-28.67-26.15-58.94-26.06c-42.7,0.13-77.2,39.14-88.77,76.09
			c-15.27,48.75,7.18,100.88,43.12,126.82c7.47,5.39,33.16,23.94,67.21,19.02c33.44-4.83,53.26-29.17,59.61-38.05
			C641.94,645.45,628.34,571.77,586.73,533.82z"/>
		<path class="st9" d="M359.12,511.57c-32.61-1.58-56.86,15.13-73.56,26.63c-16.63,11.45-47.88,32.99-57.07,73.56
			c-1.84,8.14-10.64,51.68,15.22,81.16c33.45,38.14,101.86,26.55,142.04,3.8c10.9-6.17,78.92-46.67,68.48-107.8
			C446.44,543.26,399.54,513.52,359.12,511.57z"/>
		<path class="st10" d="M580.82,557.8c-4.86-4.43-19.09-17.41-39.24-17.35c-28.43,0.08-51.4,26.06-59.1,50.66
			c-10.16,32.45,4.78,67.16,28.71,84.43c4.97,3.59,22.08,15.94,44.75,12.66c22.26-3.22,35.46-19.42,39.68-25.33
			C617.58,632.12,608.52,583.07,580.82,557.8z"/>
		<path class="st11" d="M583.52,594.63c0-13.39-10.86-24.25-24.25-24.25c-13.39,0-24.25,10.86-24.25,24.25
			c0,6.29,2.41,11.99,6.33,16.3c-2.02,2.04-3.28,4.85-3.28,7.95c0,6.24,5.06,11.3,11.3,11.3c6.24,0,11.3-5.06,11.3-11.3
			c0-0.02-0.01-0.05-0.01-0.07C573.4,618.08,583.52,607.55,583.52,594.63z"/>
		<path class="st10" d="M368.28,537.02c-22.33-1.08-38.93,10.36-50.37,18.24c-11.39,7.84-32.79,22.59-39.08,50.37
			c-1.26,5.58-7.29,35.39,10.42,55.58c22.9,26.12,69.75,18.18,97.27,2.61c7.47-4.23,54.04-31.96,46.9-73.82
			C428.08,558.73,395.96,538.36,368.28,537.02z"/>
		<circle class="st11" cx="390.11" cy="592.49" r="22.11"/>
		<path class="st10" d="M438.71,386.49c-25.27,16.64-24.68,49.01-24.56,52.5c0.94,27.19,19.7,51,44.04,60.13
			c28.51,10.69,67.28,2.19,81.3-26.25c15.61-31.68-8.97-68.8-34.72-83.84C501.1,386.89,467.14,367.77,438.71,386.49z"/>
		<path class="st11" d="M520.97,417.16c0-12.21-9.9-22.11-22.11-22.11c-12.21,0-22.11,9.9-22.11,22.11c0,5.83,2.28,11.12,5.97,15.07
			c-3.14,1.87-5.27,5.26-5.27,9.18c0,5.92,4.8,10.71,10.71,10.71c5.92,0,10.71-4.8,10.71-10.71c0-0.74-0.08-1.46-0.22-2.15
			c0.07,0,0.14,0.01,0.2,0.01C511.07,439.27,520.97,429.37,520.97,417.16z"/>
		<path class="st10" d="M658.2,380.17c18.47-16.47,10.62-49.98,9.85-53.06c-6.42-25.88-27.91-44.33-50.79-50.03
			c-7.04-1.75-28.59-7.12-44.73,5.31c-19.44,14.97-19.71,47.04-9.85,67.47C579.79,385.32,634.84,401,658.2,380.17z"/>
		<circle class="st11" cx="625.94" cy="313.92" r="18.04"/>
		<path class="st10" d="M708.52,402.21c15.97-15.18,37.54-10.01,39.1-9.61c15.61,4.02,33.33,18.47,31.4,34.61
			c-2.18,18.3-28.03,25.51-30.76,26.28c-16.56,4.62-43.84,3.19-51.27-14.1C691.42,426.43,699.63,410.66,708.52,402.21z"/>
		<path class="st10" d="M596.65,456.9c15.06-9.83,40.11,5.56,50.27,13.81c6.54,5.31,22.35,18.15,20.44,35.36
			c-1.4,12.61-11.49,20.22-13.26,21.55c-15,11.31-38.61,9.56-53.04-2.21C579.2,507.56,579.9,467.83,596.65,456.9z"/>
		<path class="st10" d="M175.65,473.22c-2.64,0.05-19.51,0.66-29.84,15.7c-10.1,14.71-6.6,32.53-5.71,37.07
			c3.17,16.15,13.78,33.73,29.82,40.78c25.84,11.35,59.39-7.41,61.69-36.41C234.02,500.04,201.14,472.76,175.65,473.22z"/>
		<path class="st10" d="M280.49,380.14c-21.7,5.43-30.86,26.25-31.66,28.14c-8.21,19.49-4.82,48.4,12.9,57.45
			c13.99,7.15,30.47-1.37,35.76-4.1c3.19-1.65,29.16-15.61,29.31-42.21c0.08-14.15-7.16-31.52-22.28-38.11
			C294.05,376.75,284.09,379.24,280.49,380.14z"/>
		<path class="st10" d="M412.05,341.1c-10.97-8.12-11.49-21.39-11.62-24.7c-0.1-2.51-0.55-22.61,15.98-31.48
			c10.5-5.63,23.87-4.6,33.41,2.91c15.34,12.07,10.46,32.76,10.17,33.9c-0.72,2.85-4.41,15.76-17.43,21.79
			C433.67,347.63,421.46,348.07,412.05,341.1z"/>
		<path class="st12" d="M481.78,313.64c-12.64-2.51-43.49-6.83-78.27,7.06c-43.81,17.5-64.48,52.15-70.17,62.53
			c1.84,5.14,5.01,12.18,10.58,19.43c7.39,9.63,15.69,15.33,21.08,18.43c1.09-6.51,3.48-16.28,9.25-26.89
			c2.93-5.38,9.09-16.43,21.82-25.92c2.7-2.01,13.46-9.74,29.66-13.22c17.79-3.81,32.38-0.4,41.63,1.87
			c7.1,1.74,12.82,3.89,16.74,5.55c0.67-3.66,1.34-8.37,1.65-13.9c0.49-8.94-0.22-15.71-0.44-17.67
			C484.77,326.19,483.76,320.28,481.78,313.64z"/>
		<path class="st12" d="M171.69,440.92c11.59,0.2,26.08,1.99,41.59,7.87c50.39,19.1,71.7,66.27,76.81,78.56
			c-3.6,2.1-7.56,4.23-11.88,6.3c-5.18,2.48-10.12,4.5-14.71,6.16c-3.24-8.66-8.03-18.61-15.18-28.72
			c-6.46-9.14-12.81-15.55-16.66-19.14c-4.59-4.29-11.78-10.94-22.98-16.97c-14.66-7.9-27.32-9.99-30.88-10.51
			c-3.24-0.48-5.97-0.69-7.93-0.8c-0.02-3.25,0.08-6.73,0.35-10.42C170.53,448.8,171.06,444.68,171.69,440.92z"/>
		<path class="st12" d="M260.32,532.14c-15.13,9.32-24.89,19.86-30.56,26.98c-21.19,26.61-24.2,54.43-24.73,60.24
			c-1.03,11.35-0.07,20.82,0.95,27.16c6.53-2.55,13.06-5.09,19.58-7.64c-0.03-4.2,0.15-9.74,1.02-16.19
			c2.13-15.81,7.04-27.12,8.14-29.6c8.18-18.41,19.9-29.75,25.87-35.43c2.61-2.48,4.88-4.42,6.43-5.69
			c-0.55-2.45-1.23-5.05-2.07-7.76C263.56,539.7,261.95,535.67,260.32,532.14z"/>
		<path class="st12" d="M446.44,565.82c2.3,4.4,4.96,10.52,6.77,18.13c2.27,9.6,2.18,17.39,2.03,20.88
			c-0.61,14.26-5.17,24.63-7.43,29.65c-2.93,6.52-6.16,11.54-8.57,14.92c1.37,3.61,2.74,7.21,4.11,10.82
			c4.72-5.35,23.36-27.74,22.29-60.52c-0.68-21.03-9.16-36.43-13.73-43.55C450.09,559.37,448.26,562.6,446.44,565.82z"/>
		<path class="st12" d="M544.99,417.52c1.84,3.25,4.08,7.6,6.17,12.92c2.12,5.38,5.54,14.25,6.46,26.11
			c0.4,5.13,1.19,16.94-3.8,30.97c-3.55,9.99-8.64,17.2-12.25,21.57c3.87,0.78,8.27,1.97,12.98,3.79c2.6,1,4.98,2.08,7.14,3.16
			c4.86-7.38,12.8-21.65,14.92-41.25c3.07-28.3-7.95-49.7-12.34-57.3c-3.64-0.55-7.98-0.89-12.84-0.64
			C549.12,416.97,546.97,417.21,544.99,417.52z"/>
	</g>
	<path class="st10" d="M841.35,466.53c16.36-3.96,32.37-1.99,58.02,6.44c38.82,12.75,90.11,37.12,86.55,45.48
		c-2.25,5.29-23.84-1.97-105.1-12.01c-52.08-6.44-73.9-7.25-75.62-15.45C803.46,482.62,823.56,470.84,841.35,466.53z"/>
	<path class="st10" d="M764.31,251.58c13.05,3.2,15.01,66.29,3.8,69.43c-7.64,2.14-28.89-21.43-23.03-45.66
		C747.97,263.46,757.74,249.97,764.31,251.58z"/>
	<path class="st10" d="M686.32,636.48c9.83-6.7,62.97,44.19,56.41,55.32c-3.29,5.59-21.91,1.69-33.96-5.77
		C685.87,671.87,680.07,640.74,686.32,636.48z"/>
</g>
</svg>
