<?xml version="1.0" encoding="utf-8"?>
<!-- Generator: Adobe Illustrator 23.0.1, SVG Export Plug-In . SVG Version: 6.00 Build 0)  -->
<svg version="1.1" id="Слой_1" xmlns="http://www.w3.org/2000/svg" xmlns:xlink="http://www.w3.org/1999/xlink" x="0px" y="0px"
	 viewBox="0 0 1000 1000" style="enable-background:new 0 0 1000 1000;" xml:space="preserve">
<style type="text/css">
	.st0{fill:#537D24;}
	.st1{fill:#554B23;}
	.st2{fill:#76AE33;}
	.st3{fill:#689A2D;}
	.st4{fill:#558025;}
	.st5{fill:#99C32A;}
	.st6{fill:#72AA41;}
	.st7{opacity:0.2;fill:#537D24;}
	.st8{fill:#6DA12F;}
	.st9{opacity:0.1;fill:#F5F7EA;}
</style>
<g>
	<path class="st0" d="M383.59,380.25c-27.53,0.87-48.33,24.85-69.33,49.06c-15.19,17.51-23.26,32.88-25.51,37.28
		c-3.2,6.27-35.85,71.48-16.35,90.26c20,19.27,83.91-20.86,146.51-60.17c26.75-16.8,36.62-25.47,39.24-38.59
		C464.73,425.23,422.91,379.01,383.59,380.25z"/>
	<path class="st1" d="M733.19,381.89c-11.07,0.44-25.05,2.14-40.54,6.9c-28.26,8.69-48.1,23.47-59.53,33.58
		c4.87,6.41,9.74,12.82,14.61,19.23c11.33-8.88,29.54-20.77,54.39-27.95c13.59-3.92,25.9-5.49,35.98-6
		C736.46,399.06,734.83,390.48,733.19,381.89z"/>
	<path class="st1" d="M364.3,532c16.68-14.06,33.36-28.13,50.04-42.19c10.14,14.39,20.28,28.78,30.41,43.17
		c-22.24,12.43-44.48,24.85-66.72,37.28C373.45,557.51,368.88,544.75,364.3,532z"/>
	<path class="st2" d="M228.06,481.41c-23.05,1.64-47.3,3.31-72.08,13.96c-33.14,14.23-52.53,38.15-69.33,58.87
		c-3.62,4.46-13.24,19.28-32.49,48.91c-4.21,6.48-19,29.35-35.53,59.66c-18.43,33.8-19.85,41.55-17.01,48.4
		c1.2,2.88,5.58,11.62,37.94,20.93c26.86,7.73,49.4,9.07,91.57,10.47c33.67,1.11,50.51,1.56,53.63,1.37
		c17.31-1.07,68.48-4.24,109.88-33.42c40.01-28.19,90.4-94.4,66.72-156.32c-16.07-42.02-61.34-69.06-98.11-73.26
		C252.05,479.7,241.67,480.44,228.06,481.41z"/>
	<path class="st2" d="M724.53,394.64c-5.28-1.86-30.46-11.33-39.24-35.32c-11.46-31.27,12.77-65.79,37.61-79.47
		c24.4-13.44,49.93-6.78,80.12,0.98c10.7,2.75,29.24,8.3,88.62,42.38c73.24,42.03,86.81,57.56,95.82,74.04
		c5.49,10.04,14.61,27.27,11.38,48.35c-3.5,22.88-19.57,37.41-33.62,49.76c-21.69,19.06-42.17,26.8-75.38,39.24
		c-19.03,7.13-47.34,16.44-84.21,23.55c-47.39,9.13-71.66,13.51-99.42,3.92c-12.33-4.26-32.32-11.48-44.48-31.4
		c-16.3-26.71-6.73-56.99-5.23-61.48c7.23-21.71,23.37-35.94,52.33-61.48C715.15,402.15,720.62,397.72,724.53,394.64z"/>
	<path class="st3" d="M370.51,511.07c-29.19-20.07-41.82-20.46-57.03-31.89c-17.82-13.4-9.51-19.67-31.93-42.67
		c-5.62-5.77-36.32-37.26-53.63-28.78c-9.6,4.7-11.12,19.76-11.77,26.16c-3.73,36.88,25.58,66.22,28.78,69.33
		c48.17,46.86,135.37,29.82,137.35,18.31C382.45,520.6,382.15,519.07,370.51,511.07z"/>
	<path class="st3" d="M395.37,545.08c1.99,1.09,9.91,5.44,14.39,14.39c4.61,9.22,3.14,18.45,2.62,22.24
		c-3.67,26.66,5.9,30.25,3.92,66.72c-1.42,26.18-2.51,46.27-17.01,64.1c-3.76,4.62-15.61,19.2-35.32,22.24
		c-22.33,3.44-39.96-10.19-47.09-15.7c-24.09-18.62-37.03-50.44-35.32-81.1c3.05-54.87,51.65-81.88,57.56-85.03
		C346.08,549.21,374.89,533.84,395.37,545.08z"/>
	<path class="st4" d="M403.21,588.9c7.02,6.53,18.2,5.22,40.55,2.62c30.42-3.55,49.52-15.74,54.6-19.15
		c1.4-0.94,5.66-3.84,10.15-7.67c22.17-18.92,47.2-58.31,37.28-75.22c-13.5-23.01-99.7-17.96-133.43,30.09
		C397.17,541.23,389.46,576.12,403.21,588.9z"/>
	<path class="st2" d="M494.93,574.56c-12.97,10.89-22.13,18.73-30.23,32.65c-21.06,36.2-13.11,75.98-8.5,97.46
		c10.29,47.91,35.06,78.09,68.68,119.04c17.56,21.39,45.13,51.36,84.38,77.18c21.34,14.04,43.95,25.42,71.95,26.82
		c11.19,0.56,18.72,0.93,27.47-2.62c7.81-3.17,27.54-13.9,44.48-88.3c5.5-24.17,11.5-51.25,12.43-90.92
		c1.75-74.89-16.19-125.84-20.93-138.66c-10.99-29.71-19.17-50.94-41.21-67.37c-24.52-18.27-51.28-19.49-68.68-20.28
		C564.23,516.37,512.94,559.44,494.93,574.56z"/>
	<path class="st5" d="M575.24,566.34c13.69,33.87,27.13,68.87,40.23,104.98c28.06,77.41,51.68,152.21,71.62,223.69"/>
	<path class="st5" d="M573.27,575.17c-10.64,4.33-40.33,18.04-59.85,51.02c-28.09,47.47-12.37,96.46-9.81,104
		c-2.54-12.11-8.58-48.71,9.81-89.28C531.58,600.87,562.47,581.34,573.27,575.17z"/>
	<path class="st5" d="M602.05,643.19c-17.58,6.21-28.66,15.31-35.32,22.24c-29.44,30.63-33.91,82.7-13.74,133.43
		c-3.83-9.95-16.4-46.18-1.96-88.95C564.42,670.23,592.79,649.43,602.05,643.19z"/>
	<path class="st5" d="M620.87,686.37c-9.79,11.6-21.84,28.98-29.94,52.32c-18.85,54.33-2.97,102.66,3.27,119.04
		c-4.92-17.15-10.86-46.18-6.54-81.76C592.88,732.99,610.45,702.02,620.87,686.37z"/>
	<path class="st5" d="M643.91,762.23c-6.78,9.18-16.99,25.61-21.58,48.4c-7.11,35.3,3.71,63.74,8.5,74.56
		c-2.96-15.15-5.53-37.18-2.62-63.44C631.03,796.44,637.95,776.14,643.91,762.23z"/>
	<path class="st5" d="M580.04,573.57c10.94-3.52,42.5-12.08,78.64,0.66c52.02,18.34,71.44,65.98,74.32,73.4
		c-5.84-10.91-24.72-42.85-64.87-62.12C628.51,566.48,592.29,571.36,580.04,573.57z"/>
	<path class="st5" d="M603.64,642.88c17.46-6.54,31.8-6.68,41.35-5.64c42.24,4.57,79.11,41.59,96.24,93.44
		c-3.46-10.08-17.1-45.93-55.64-69.43C649.85,639.43,614.75,641.71,603.64,642.88z"/>
	<path class="st5" d="M619.97,689.94c14.96,2.6,35.35,8.18,56.55,20.86c49.35,29.53,68.22,76.77,73.96,93.33
		c-7.25-16.31-21.34-42.37-47.51-66.86C671.38,707.7,638.02,695.25,619.97,689.94z"/>
	<path class="st5" d="M648.03,763.43c11.09,2.68,29.47,8.71,47.63,23.23c28.13,22.49,38.1,51.23,41.38,62.61
		c-7.46-13.51-19.64-32.05-38.75-50.3C679.88,781.37,661.54,770.26,648.03,763.43z"/>
	<g>
		<path class="st2" d="M461.38,365.38c29.55-23.7,40-56.17,43.87-68.84c3.52-11.51,14.12-47.93,0-88.95
			c-12.46-36.21-37.18-55.69-62.79-75.87c-47.72-37.6-94.11-47.51-128.23-54.79c-27.24-5.81-49.12-7.06-72.08-0.93
			c-11.97,3.2-22.01,5.75-31.23,13.86c-25.39,22.32-22.12,63.03-19.62,94.19c3.66,45.64,18.65,78.67,22.24,86.34
			c14.52,31.03,37.83,80.82,92.88,105.96C349.99,396.23,415.94,401.82,461.38,365.38z"/>
		<path class="st5" d="M450.96,359.32c-14.5-31.64-34.12-67.77-60.83-105.31c-46.36-65.17-97.18-110.86-137.35-141.28
			c24.15,23.09,49,48.75,73.91,77.18C378.29,248.8,418.97,306.74,450.96,359.32z"/>
		<path class="st5" d="M321.9,173.11c3.18-5.81,10.66-21.35,8.06-41.41c-4.04-31.14-29.01-47.39-32.7-49.71
			c6.43,6.53,21.25,23.39,26.16,49.71C326.77,149.66,324.12,164.59,321.9,173.11z"/>
		<path class="st5" d="M356.16,218.85c4.04-8.89,8.42-21.4,9.89-36.78c3.15-32.94-8.99-58.45-15.04-69.33
			c4.72,14.76,9.58,35.61,9.81,60.83C360.98,191.32,358.8,206.68,356.16,218.85z"/>
		<path class="st5" d="M385.46,255.52c7.48-9.1,16.39-22.15,23.04-39.3c13.87-35.76,9.6-67.97,6.54-83.07
			c4.04,9.28,8.04,22,8.5,37.28C424.96,216.93,392.57,248.83,385.46,255.52z"/>
		<path class="st5" d="M413.95,295.88c8.16-3.93,22.43-12.2,34.39-28.05c18.46-24.46,19.13-50.7,18.97-59.52
			c1.33,5.23,6.61,28.43-6.54,52.33C445.72,287.97,418.34,294.85,413.95,295.88z"/>
		<path class="st5" d="M437.14,337.95c6.99-2.66,20.92-9.07,32.77-23.32c15.82-19.04,17.8-39.89,18.15-47.09
			c0.96,4.4,4.63,23.65-6.87,42.68C466.71,334.18,440.34,337.59,437.14,337.95z"/>
		<path class="st5" d="M317.95,174.76c-5.85,3.09-21.51,10.33-41.53,7.43c-31.07-4.51-46.94-29.73-49.2-33.46
			c6.44,6.53,23.07,21.61,49.3,26.92C294.43,179.27,309.39,176.85,317.95,174.76z"/>
		<path class="st5" d="M356.03,216.56c-9.12,3.49-21.87,7.09-37.32,7.61c-33.07,1.12-57.79-12.56-68.28-19.26
			c14.44,5.62,34.96,11.75,60.11,13.52C328.26,219.68,343.73,218.45,356.03,216.56z"/>
		<path class="st5" d="M385.46,255.95c-10.62,5.1-25.42,10.64-43.66,13.01c-38.04,4.94-68.3-6.87-82.23-13.44
			c8.05,6.14,19.45,13.05,34.18,17.14C338.56,285.12,377.26,261.26,385.46,255.95z"/>
		<path class="st5" d="M413.95,295.44c-6.13,6.66-18.2,17.91-36.83,24.74c-28.77,10.55-54.07,3.56-62.46,0.84
			c4.62,2.79,25.28,14.59,51.97,8.96C397.14,323.54,411.69,299.34,413.95,295.44z"/>
		<path class="st5" d="M437.14,337.95c-4.58,5.92-14.76,17.38-31.84,24.57c-22.82,9.6-43.34,5.43-50.34,3.67
			c3.93,2.19,21.29,11.31,42.83,5.84C424.93,365.14,435.86,340.91,437.14,337.95z"/>
	</g>
	<path class="st5" d="M320.15,549.66c-29.53,0.92-69.12,5.66-112.83,21.58c-87.31,31.81-140.1,89.67-163.84,119.69
		c26.15-26.47,67.44-62.31,125.58-92.22C228.56,568.09,282.96,555.38,320.15,549.66z"/>
	<path class="st5" d="M289.81,551.85c-5.6-7.29-12.84-14.94-22.16-21.82c-39.7-29.3-87.38-22.64-101.54-20.11
		c14.89-1.18,41.71-1.31,72.11,10.3C262.45,529.48,279.56,542.6,289.81,551.85z"/>
	<path class="st5" d="M228.15,567.27c-9.07-5.59-21.49-11.71-37.04-15.33c-40.09-9.34-73.6,4.29-86.34,10.3
		c14-4.5,36.67-9.9,64.75-8.34C194.95,555.31,215.14,561.88,228.15,567.27z"/>
	<path class="st5" d="M175.29,584.72c-8.75-3.2-25.79-8.06-46.95-5.14c-30.64,4.23-50.01,22.02-56.41,28.45
		c10.13-7.27,29.24-18.91,55.92-23.55C147.61,581.05,164.31,582.71,175.29,584.72z"/>
	<path class="st5" d="M111.17,626.67c-5.44-1.69-19.06-5.12-35.32-0.49c-19.6,5.58-30.24,19.21-33.36,23.55
		c7.23-5.11,17.7-11.37,31.29-16.1C88.68,628.43,101.87,626.98,111.17,626.67z"/>
	<path class="st5" d="M287.92,551.15c1.63,9.05,2.42,19.55,1.24,31.07c-5.03,49.09-42.03,79.88-53.43,88.66
		c10.89-10.22,29.03-29.98,40.89-60.29C286.07,586.45,287.87,564.95,287.92,551.15z"/>
	<path class="st5" d="M230.3,567.27c1.07,10.6,1.15,24.45-2.38,40.01c-9.1,40.14-36,64.34-46.96,73.18
		c10.16-10.63,24.91-28.67,35.77-54.61C226.56,602.35,229.47,581.32,230.3,567.27z"/>
	<path class="st5" d="M176.02,588.02c0.51,9.31,0.2,27.02-8.76,46.41c-12.97,28.08-35.63,41.43-43.65,45.68
		c9.9-7.57,26.61-22.46,38.82-46.64C171.47,615.57,174.74,599.11,176.02,588.02z"/>
	<path class="st5" d="M110.23,625.6c0.83,5.64,2.11,19.62-4.98,34.97c-8.54,18.5-23.65,26.9-28.42,29.32
		c6.16-6.35,13.97-15.73,20.75-28.42C105.01,647.55,108.49,634.74,110.23,625.6z"/>
	<path class="st5" d="M724.53,394.64c21.55-2.19,45.51-3.18,71.46-1.96c73.92,3.47,134.29,23.47,176.6,42.19
		c-36.53-12.97-82.11-25.76-135.39-33.36C795.16,395.51,757.11,394,724.53,394.64z"/>
	<path class="st5" d="M745.98,394.56c-1.63,2.68-26.17,44.79-3.96,89.37c14.85,29.81,44.94,49.34,78.49,51.02
		c-31.63,2.6-62.14-11.14-79.47-36.3C720.03,468.14,721.72,425.69,745.98,394.56z"/>
	<path class="st5" d="M795.98,392.68c-4.79,5.91-19.76,25.95-16.68,51.02c4,32.51,36.83,60.95,80.45,63.77
		c-35.52-3.55-64.43-26.5-72.6-56.9C779.58,422.4,792.64,398.44,795.98,392.68z"/>
	<path class="st5" d="M837.19,401.51c0.67,9.14,3.6,31.82,20.6,52.98c24.56,30.58,59.75,34.65,66.72,35.32
		c-11.23-3.19-36.8-12.1-58.87-36.3C847.48,433.59,840.2,412.64,837.19,401.51z"/>
	<path class="st5" d="M896.66,412.65c0.05,5.81,1.01,18.17,9.21,30.07c16.04,23.29,45.16,23.57,48.07,23.55
		c-6.69-1.37-23.52-5.74-38.26-20.6C903.21,433.09,898.48,419.3,896.66,412.65z"/>
	<path class="st5" d="M745.98,392.79c-0.94-4.16-7.27-34.47,13.21-60.94c17.69-22.87,42.94-26.78,48.07-27.47
		c-5.68,0.06-28.02,0.95-45.62,18.15C743.84,339.93,737.86,367.2,745.98,392.79z"/>
	<path class="st5" d="M794.04,395.35c-0.97-2.75-11.66-34.61,6.85-57.61c20.82-25.87,61.14-18.85,61.32-17.66
		c0.18,1.21-40.8-1.51-59.85,23.55C790.46,359.29,791.4,380.19,794.04,395.35z"/>
	<path class="st5" d="M836.54,398.92c0.72-3.27,7.45-31.3,35.52-44.38c26.89-12.54,51.62-1.2,54.91,0.37
		c-7.01-1.76-26.15-5.58-47.71,2.92C850.73,369.06,838.97,393.54,836.54,398.92z"/>
	<path class="st5" d="M896.66,410.11c2.52-5.23,8.67-16,21.15-23.27c24.44-14.23,50.9-2.05,53.53-0.79
		c-6.63-1.62-23.72-4.84-43.4,2.31C911.3,394.42,901.14,404.87,896.66,410.11z"/>
	<path class="st5" d="M363.32,549.17c-9.12,9.25-19.57,22.47-26.98,40.23c-23.73,56.91,3.91,112.27,9.32,122.64
		c-5.87-14.11-15.99-43.79-12.26-81.92C337.32,589.96,354.53,561.74,363.32,549.17z"/>
	<path class="st5" d="M327.5,624.76c-5.07,3.15-14.1,9.8-20.1,21.54c-12.36,24.15-1.09,48.7,0.49,52
		c-1.78-6.98-4.88-23.14,0.98-42.19C313.74,640.26,322.54,629.85,327.5,624.76z"/>
	<path class="st5" d="M333.65,627.74c5.89,0.97,16.38,3.6,26.23,11.69c20.45,16.78,20.64,42.68,20.6,46.6
		c-1.21-7.38-5.42-26.72-22.07-42.68C349.44,634.76,340.04,630.18,333.65,627.74z"/>
	<path class="st5" d="M333.8,596.07c-4.82,1.13-19.86,5.3-31.31,19.65c-8.94,11.21-11.12,22.89-11.77,28.13
		c2.15-6.47,6.57-17.02,15.7-27.47C316.42,604.91,327.41,598.95,333.8,596.07z"/>
	<path class="st5" d="M340.02,597.02c6.06,1.3,14.51,3.92,23.3,9.54c16.86,10.77,24.54,25.91,27.47,32.7
		c-4.76-6.58-11.37-14.45-20.28-22.24C359.38,607.3,348.45,601.03,340.02,597.02z"/>
	<path class="st5" d="M334.54,523.49c-10.33-1.01-37.3-5.05-62.14-26.16c-31.25-26.56-37.3-61.58-38.59-70.64
		c2.85,11.63,10.76,37.05,33.36,60.17C293.12,513.42,322.98,521.13,334.54,523.49z"/>
	<path class="st5" d="M263.24,480.98c2.42-2.89,5.11-7.03,6.54-12.43c4.78-18.05-8.91-33.61-10.47-35.32
		c2.78,5.2,7.29,15.4,7.19,28.78C266.46,469.92,264.81,476.43,263.24,480.98z"/>
	<path class="st5" d="M284.64,501.79c1.74-3.69,5.02-11.97,4.11-22.77c-1.01-12.08-6.68-20.33-9.16-23.55
		c2.47,1.85,9.14,7.35,11.77,17.01C295.59,487.95,285.73,500.46,284.64,501.79z"/>
	<path class="st5" d="M259.69,484.59c-2.74,0.08-11.58-0.01-19.99-6.22c-7.27-5.37-10.15-12.31-11.12-15.04
		c-0.01,1.54,0.1,10.49,7.19,17.01C242.03,486.06,251.29,487.69,259.69,484.59z"/>
	<path class="st5" d="M282.41,504.89c-4.15,1.34-11.18,2.9-19.16,0.95c-11.33-2.77-18.72-11.17-18.31-11.77
		c0.37-0.54,6.95,5.18,18.31,8.5C270.91,504.81,277.69,505.06,282.41,504.89z"/>
	<path class="st6" d="M386.86,528.07c-6.03-17.23-47.33-24.33-72.6-7.19c-12.67,8.59-25.96,26.42-20.93,39.9
		c6.08,16.31,36.82,20.48,58.21,12.43C372.81,565.2,391.9,542.46,386.86,528.07z"/>
	<path class="st7" d="M498,315.54c-17.94,8.15-32.26,16.35-42.66,22.84c-10.38,6.48-19.39,12.15-29.98,21.22
		c-13.77,11.8-23.4,23.51-29.66,32.1c-6.18,0.27-12.73,0.3-19.62,0c-20.18-0.89-37.84-4.44-52.39-8.65
		c14.95-18.41,35.36-39.89,62.39-60.37c47.4-35.91,94.33-52.94,125.92-61.44c-0.77,9.98-2.63,22.05-6.74,35.29
		C503.06,303.6,500.55,309.94,498,315.54z"/>
	<path class="st7" d="M704.82,293.75c4.47,6.31,12.81,19.92,14.64,39.08c2.54,26.7-9.26,46.39-13.24,52.45
		c-1.8-1.23-3.73-2.7-5.71-4.43c-2.68-2.35-4.88-4.69-6.66-6.82c0.38-3.73,0.78-8.9,0.87-15.07c0.07-4.97,0.15-12.11-1.07-21.3
		c-1.26-9.51-3.09-15.11-4.41-18.55c-0.32-0.84-0.6-1.53-0.8-2c1.74-3.68,4.08-7.95,7.24-12.44
		C698.79,300.22,701.98,296.61,704.82,293.75z"/>
	<path class="st7" d="M411.55,592.98c-2.87-0.98-8.18-3.28-11.82-8.56c-4.18-6.05-3.87-12.7-3.53-20.02
		c0.19-4.09,0.9-10.13,3.43-17.2c-2.88-1.6-4.41-2.45-4.41-2.45s-3.09-1.2-8.83-3.43c-2.65,5.37-8.21,14.78-18.74,22.79
		c-13.6,10.35-27.58,12.34-33.28,12.84c-10.19,0.89-18.51-0.85-23.67-2.35c-2.69-0.53-9.4-2.27-13.98-8.27
		c-7.45-9.76-2.86-22.34-2.06-24.51c1.91-5.23,4.92-8.8,6.87-10.79c-12.17-2.66-21.75-6.57-28.45-9.81
		c-8.63-4.18-23.39-11.52-36.17-27c-4.09-4.95-6.95-9.51-8.83-12.79c-9.44,0.34-19.91,1.23-31.18,3
		c-8.06,1.26-15.57,2.82-22.47,4.53c18.14,29.34,37.94,45.43,53.51,54.83c16.57,10,28.44,12.47,33.36,24.53
		c7.03,17.25-8.12,34.59-16.68,54.94c-9.22,21.93-14.5,56.21,5.04,109.35c6.75-2.13,14.25-4.97,22.19-8.8
		c12.57-6.06,22.73-12.92,30.59-19.09c-3.45-5.18-7.77-12.44-11.7-21.61c-2.9-6.77-7.08-16.52-8.72-29.17
		c-0.49-3.78-2.8-23.66,6.62-46.67c2.34-5.71,5.06-10.75,7.87-15.17c12.85,3.29,31.92,6.21,54.07,2.22
		c6.9-1.24,13.13-2.98,18.64-4.91c4.41,3.73,10.92,8.43,19.62,12.26c9.57,4.22,18.21,5.8,24.25,6.43
		C412.56,603.05,412.06,598.02,411.55,592.98z"/>
	<path class="st7" d="M736.71,586.57c-3.1-7.1-6.31-13.68-9.52-19.73c-5.17-0.69-12.49-2.01-20.98-4.75
		c-8.41-2.72-17.77-5.78-27.49-13.25c-5.5-4.24-9.4-8.55-11.89-11.66c9.01-11.71,20.78-29.83,29.08-54.23
		c10.24-30.11,10.66-56.44,9.65-72.6c-7.11,6.54-14.21,13.08-21.32,19.63c-2.36,10.68-4.95,19.62-7.14,26.43
		c-6.34,19.74-13.09,33.47-14.66,36.63c-3.39,6.81-6.53,12.32-8.84,16.18c0.51,2.77,1.27,5.9,2.43,9.27
		c0.38,1.12,0.79,2.18,1.21,3.21c-0.04-0.08-0.08-0.17-0.12-0.25c-2.34-0.34-4.76-0.64-7.25-0.89c-1.13-0.11-2.25-0.21-3.35-0.3
		c-2.23,3.25-5.37,7.65-9.37,12.67c-8.11,10.18-15.07,17.04-21.55,23.39c-7.55,7.39-14.24,13.94-24.38,21.64
		c-6.37,4.83-12.23,9.24-21.01,13.63c-4.89,2.45-11.39,5.66-20.48,7.79c-3.83,0.9-16,3.45-31.59,1.09
		c-7.31-1.11-17.22-3.58-27.66-9.19c-3.62-1.95-6.53-3.86-8.62-5.33c-2.98,2.72-6.65,6.44-10.39,11.24
		c-1.64,2.1-5.93,7.81-10.02,16.09c-2.29,4.65-4.85,10.77-6.81,18.23c27.56,11.24,51.07,14.73,66.3,15.94
		c22.53,1.78,88.26,6.98,123.33-34.38c7.75-9.14,12.04-18.24,14.35-24.04c6.65,6.54,23.93,21.73,50.74,26.29
		c15.94,2.71,29.32,0.65,37.66-1.37C744.3,605.41,740.92,596.22,736.71,586.57z"/>
	<g>
		<path class="st8" d="M651.11,287.38c-57.48-18.16-117.68,10.65-153.11,28.16c-40.46,20.01-85.99,43.27-114.4,94.15
			c-11.23,20.12-29.39,52.63-15.04,77.83c12.89,22.64,48.22,32.75,87.65,24.2c-1.62,6.88-6.23,30.23,6.54,52.98
			c17.87,31.84,54.9,36.01,62.14,36.63c40.49,3.45,70.87-25.86,92.88-47.09c53.91-52.01,65.3-114.78,72.6-155.01
			c12.47-68.71-5.06-89.71-9.81-94.84C675.57,299.01,667.53,292.56,651.11,287.38z"/>
		<g>
			<path class="st5" d="M456.19,511.72c27.21-22.05,50.1-42.44,68.51-59.68c34.59-32.38,59.19-59.07,71.62-72.6
				c13.27-14.45,23.92-26.7,27.99-31.4c11.48-13.26,21.63-25.48,30.39-36.3"/>
			<path class="st5" d="M471.2,499.37c-7.94-3.5-29.13-14.17-41.16-38.01c-14.4-28.54-9.89-64.5,11.12-92.88
				c-3.21,5.19-21.92,36.56-11.12,75.71C439.45,478.34,464.98,495.45,471.2,499.37z"/>
			<path class="st5" d="M500.08,474.49c-8.07-9.43-12.99-18.63-16.09-26.38c-20.84-52.09,13.8-105.45,19.3-113.64
				c-7.62,13.48-26,50.36-18.31,96.48C488.01,449.16,494.28,463.85,500.08,474.49z"/>
			<path class="st5" d="M529.12,441.74c-5.27-8.75-10.39-20.3-12.26-34.34c-6.84-51.36,36.03-89.86,41.37-94.51
				c-8.48,8.8-36.63,40.19-36.95,86.17C521.15,416.68,525.15,431.33,529.12,441.74z"/>
			<path class="st5" d="M561.01,409.85c-1.91-10.23-2.96-24.12,0.49-39.73c10.51-47.53,53.81-70.35,61.48-74.24
				c-12.23,8.31-40.92,30.34-54.61,69.82C562.44,382.78,561.01,398.26,561.01,409.85z"/>
			<path class="st5" d="M473.11,500.15c3.5,7.94,14.17,29.13,38.01,41.16c28.54,14.4,64.5,9.89,92.88-11.12
				c-5.19,3.21-36.56,21.92-75.71,11.12C494.14,531.9,477.03,506.37,473.11,500.15z"/>
			<path class="st5" d="M497.99,471.27c9.43,8.07,18.63,12.99,26.38,16.09c52.09,20.84,105.45-13.8,113.64-19.3
				c-13.48,7.62-50.36,26-96.48,18.31C523.32,483.34,508.63,477.06,497.99,471.27z"/>
			<path class="st5" d="M530.74,442.22c8.75,5.27,20.3,10.39,34.34,12.26c51.36,6.84,89.86-36.03,94.51-41.37
				c-8.8,8.48-40.19,36.63-86.17,36.95C555.8,450.2,541.15,446.2,530.74,442.22z"/>
			<path class="st5" d="M562.63,410.34c10.23,1.9,24.12,2.96,39.73-0.49c47.53-10.51,70.35-53.81,74.24-61.48
				c-8.31,12.23-30.34,40.92-69.82,54.61C589.7,408.9,574.22,410.34,562.63,410.34z"/>
		</g>
	</g>
	<path class="st9" d="M397.16,452.53c-11.72-16.38,31.4-69.13,67.21-99.09c70.81-59.24,170.68-77.57,181.5-57.39
		c7.29,13.58-25.97,44.3-47.58,64.26C522.46,430.34,412.65,474.17,397.16,452.53z"/>
	<path class="st9" d="M363.97,284.76c11.71-13.3-37.16-72.87-44.31-81.58c-28.03-34.17-83.99-90.75-98.28-80.63
		c-14.07,9.96,9.78,86.26,64.1,130.81C314.19,276.91,355.21,294.71,363.97,284.76z"/>
	<path class="st9" d="M140.28,532c-14.36-7.11-55.51,50.5-61.48,58.87c-18.52,25.93-58.88,89.3-47.09,99.42
		c12.02,10.32,81.08-32.33,104.65-96.8C144.93,570.03,150,536.81,140.28,532z"/>
	<path class="st9" d="M479.09,668.04c-18.2,18.94,31.3,92.84,47.09,116.42c28.8,43,94.51,125.6,120.35,112.5
		c23.02-11.67,15.53-99.88-30.09-159.59C573.26,680.85,496.19,650.25,479.09,668.04z"/>
	<path class="st9" d="M740.72,307c9.79-16.84,86.57,10.82,125.58,28.78c36.87,16.98,101.41,53.56,95.49,71.95
		c-4.89,15.19-57.09,15.51-98.11,3.92C789.06,390.56,730.71,324.21,740.72,307z"/>
</g>
</svg>
