<?xml version="1.0" encoding="utf-8"?>
<!-- Generator: Adobe Illustrator 23.0.1, SVG Export Plug-In . SVG Version: 6.00 Build 0)  -->
<svg version="1.1" id="Слой_1" xmlns="http://www.w3.org/2000/svg" xmlns:xlink="http://www.w3.org/1999/xlink" x="0px" y="0px"
	 viewBox="0 0 1000 1000" style="enable-background:new 0 0 1000 1000;" xml:space="preserve">
<style type="text/css">
	.st0{fill:#A5BE57;}
	.st1{fill:#257B33;}
	.st2{fill:#1E7231;}
	.st3{fill:#186129;}
	.st4{fill:#E0DFB8;}
	.st5{fill:#EADEAE;}
	.st6{opacity:0.2;fill:#0A4219;}
	.st7{opacity:0.3;fill:#FFFFFF;}
	.st8{opacity:0.2;fill:#FFFFFF;}
</style>
<g>
	<g>
		<path class="st0" d="M508.09,307.87c3.98-6.74,9.07-16.93,12.25-30.07c4.49-18.58,3.06-34.35,1.11-46.78
			c-5.77-36.87-16.25-46.03-27.84-84.64c-7.71-25.68-15.98-54.33-10.02-89.1c3.1-18.12,7.46-43.6,27.84-53.46
			c18.84-9.12,40.07,0.58,45.66,3.34c-2.23,15.22-4.45,30.44-6.68,45.66c-5.23-1.57-19.39-5.13-27.84,2.23
			c-8.82,7.67-6.59,23-5.57,30.07c6.78,46.66,73,172.84,84.64,194.9C570.45,289.3,539.27,298.58,508.09,307.87z"/>
		<path class="st1" d="M638.5,266.95c7.85-8.18,20.97-19.96,39.98-29.25c11.17-5.46,29.35-14.33,51.23-13.36
			c31.84,1.41,54.01,22.87,64.6,33.41c24.42,24.31,33.95,51.25,49,109.14c16.01,61.58,19.86,87.4,35.64,163.72
			c18.84,91.15,25.27,111.96,13.36,143.67c-4.12,10.97-17.45,44.96-53.46,65.71c-24.84,14.31-49.03,15.74-61.25,15.59
			c-33.75-39.33-53.89-74.99-65.71-99.12c-16.48-33.63-36.14-84.36-62.37-294.02C644.47,321.99,640.81,288.76,638.5,266.95z"/>
		<path class="st1" d="M473.69,317.2c-13.54,0.3-33.05,1.78-55.82,7.37c-23.1,5.68-39.17,9.62-50.12,20.05
			c-8.06,7.67-23.36,28.38-8.91,95.78c3.87,18.06,19.43,84.03,91.32,182.65c4.9,6.72,53.34,72.3,126.96,131.42
			c20.06,16.11,41.88,31.64,73.46,39.08c31.07,7.32,58.07,3.63,74.66-0.1C641.4,634.69,557.55,475.95,473.69,317.2z"/>
		<path class="st2" d="M506.97,300.07c-26.44,11.88-33.76,15.93-41.21,24.5c-20.81,23.97-19.23,56.47-17.82,79.07
			c0.89,14.27,5.94,71.53,52.34,132.53c31.18,41,41.62,31.86,72.39,74.62c19.98,27.77,33.43,56.42,53.46,99.12
			c14.82,31.59,26.5,60.42,55.69,79.07c9.02,5.76,18.02,9.47,27.84,11.14c7.15,1.21,34.74,4.73,56.8-14.48
			c21.55-18.77,22.24-45.66,22.27-49c0.28-29.41-20.53-43.15-35.64-70.16c-18.28-32.67-13.49-58.41-13.36-114.71
			c0.25-111.49,0.42-188.1-44.55-241.68c-7.58-9.03-39.65-47.24-84.64-49C595.07,260.48,565.71,273.68,506.97,300.07z"/>
	</g>
	<g>
		<path class="st2" d="M306.95,485.63c-3.3,8.07-10.83,23.2-25.89,53.46c-11.29,22.67-22.25,40.99-26.73,48.45
			c-19.04,31.69-26.8,39.07-25.06,52.62c2.07,16.11,14.4,16.33,16.71,30.91c2.59,16.39-15.5,35.37-51.79,72.67
			c-13.46,13.84-22.54,22.24-36.75,39.26c-20.17,24.15-23.22,32.76-24.22,35.92c-8.62,27.07,5.38,53.66,8.35,59.31
			c12.78,24.28,37.59,39.48,148.68,66.82c80.12,19.72,120.17,29.58,167.06,32.58c78.28,5,133.93-5.55,157.87-10.86
			c71.29-15.81,96.94-37.36,109.42-50.12c18.89-19.3,29.21-40.49,33.41-49.28c4.08-8.53,14.63-32.18,20.05-81.86
			c5.75-52.68,8.67-79.45-1.53-108.46c-4.21-11.98-16.34-40.47-84.5-87.83c-67.56-46.94-80.29-36.08-179.59-88.54
			c-24.61-13-123.89-66.53-162.88-55.96c-17.64,4.78-28.4,15.87-28.4,15.87C313.61,468.35,310.89,475.99,306.95,485.63z"/>
		<path class="st3" d="M417.25,748.56c25.89,19.76,60.93,42.29,105.32,60.59c78.66,32.43,149.69,36.35,193.79,35.08
			c7.36-11.73,51.86-85.3,25.06-170.4c-17.79-56.48-57.75-88.7-69.51-97.93c-20.68-16.23-27.98-15.45-89.46-41.76
			c-31.36-13.43-71.61-31.67-170.13-72.47c-37.74-15.63-57.02-23.29-72.09-13.65c-21.31,13.63-20.23,52.93-19.79,68.78
			c0.92,33.58,12.16,58.62,16.71,68.49C367.75,651.77,396.63,708.92,417.25,748.56z"/>
		<path class="st0" d="M345.66,430.5c-18.71,5.39-28.25,15.61-30.12,17.68c-14.14,15.62-14.83,34.77-15.54,54.71
			c-1.28,35.72,10.56,58.63,22.27,81.3c3.42,6.63,7.62,13.76,15.04,15.59c13.48,3.33,27.07-13.5,27.84-14.48
			c2.01-2.56,7.88-10.21,8.35-21.16c0.34-8.01-2.22-14.93-8.91-25.62c-17.78-28.41-30.7-29.85-32.3-44.55
			c-1.26-11.52,5.36-23.91,14.48-29.51c10.14-6.23,22.11-3.32,41.21,2.78c41,13.1,67.94,25.62,67.94,25.62
			c34.13,15.86,20.72,7.67,77.4,32.85c42.36,18.82,63.54,28.22,88.54,41.76c42.53,23.03,62.28,38.71,78.52,58.47
			c21.31,25.94,21.33,40.38,19.49,48.45c-0.88,3.89-4.34,15.6-14.48,23.39c-10.75,8.26-20.26,5.57-25.62,14.48
			c-3.89,6.47-0.08,9.89-4.45,16.71c-5.8,9.03-15.4,7.58-16.71,13.36c-1.81,8.03,15.44,16.56,13.36,21.16
			c-1.77,3.92-15.15-0.36-16.71,3.34c-1.34,3.18,6.91,10.21,14.48,14.48c8.54,4.82,12.28,3.91,17.82,6.68
			c13.32,6.67,17.1,24.65,18.93,33.41c0.94,4.5,4.32,23.16-6.68,51.23c-1.42,3.63-14.92,36.96-46.22,61.81
			c-44.8,35.58-102.14,34.8-174.85,32.85c-79.66-2.13-133.62-17.26-197.13-35.08c-94.79-26.59-127.98-49.6-136.99-76.85
			c-1.59-4.82-6.02-18.22,0-30.07c1.99-3.92,8.43-14.18,53.46-25.62c35.27-8.96,45.24-6.19,51.79-16.15
			c9.27-14.1,3.41-41.09-5.57-44.55c-0.14-0.05-0.29-0.11-0.48-0.16c-7.91-2.04-16.01,4.25-19.57,6.84
			c-8.28,6.02-19.01,7.61-28.4,11.69c-37.37,16.24-34.54,14.79-37.31,16.15c-24.49,12.06-36.88,17.99-44.55,28.96
			c-16.85,24.11-7.41,58.28-5.57,64.6c7.67,26.31,35.65,62.9,178.19,100.23c31.73,8.31,271.67,69.13,389.8,1.11
			c37.13-21.38,63.22-56.05,64.6-57.91c12.49-16.88,29.09-39.97,27.84-69.05c-0.34-7.95-0.87-20.35-7.41-34.16
			c-7.18-15.16-14.92-17.89-14.86-28.21c0.04-7.04,3.66-8.1,15.59-28.96c6.01-10.51,9.52-16.63,12.25-24.5c0,0,5.2-14.97,4.45-33.41
			c-1.51-37.22-35.48-71.41-54.57-90.21c-8.7-8.56-28.53-27.2-62.37-49c-23.78-15.32-36.79-20.81-123.62-60.14
			c-3.53-1.6-30.76-13.5-85.2-37.31C401.71,433.08,375.29,421.96,345.66,430.5z"/>
		<path class="st0" d="M226.49,748.19c-12.31-2.36-22.52-5.44-30.07-8.07c20.2-1.83,32.92-11.37,32.85-19.77
			c-0.01-1.26-0.33-5.97-7.8-11.42c7.31,2.53,13.57-0.07,14.48-3.06c0.9-2.96-2.76-8.5-10.02-10.58
			c-5.36-5.65-12.99-13.91-21.72-24.22c-27.04-31.94-51.55-60.89-65.15-96.06c-6.43-16.63-29.72-76.81,0.84-131.97
			c19.96-36.04,53.17-52.39,67.66-58.47c7.52,12.53,15.04,25.06,22.55,37.59c-8.19,1.54-20.29,5.23-30.07,15.04
			c-22.01,22.07-15.06,57.86-11.69,75.18c2.79,14.34,11.49,59.12,51.79,80.19c20.18,10.55,39.81,10.72,50.12,10.02
			c2.31-3.36,4.83-7.82,6.68-13.36c4.58-13.72,2.36-25.87,0.84-31.74c5.57,8.02,11.13,16.09,16.71,24.22
			c4.21,6.14,8.38,12.26,12.53,18.38c33.3-4.42,64.15,8.96,76.01,32.58c19.4,38.61-23.36,81.89-27.56,86.03
			c-27.31,26.89-63.62,30.13-91.05,32.58C257.71,753.63,234.92,749.8,226.49,748.19z"/>
		<path class="st4" d="M203.1,395.42c-9.04,4.37-22.25,12.05-35.08,25.06c-1.91,1.94-23.51,24.25-31.46,53.46
			c-18.37,67.45,44.11,141.85,50.95,149.79c25.6,29.74,32.38,40.9,45.94,63.2c2.78,4.57,7.39,12.54,11.69,23.39
			c1.43,3.61,5.56,14.41,7.52,25.06c5.72,31.02-10.06,43.66-2.51,60.98c5.09,11.67,16.91,16.59,29.23,21.72
			c39.18,16.3,78.46,2.61,90.21-1.67c39.17-14.27,61.14-41.23,73.5-56.8c15.86-19.98,37.43-47.15,38.42-86.87
			c0.27-10.99,1.37-54.88-32.58-82.69c-15.67-12.84-45.22-27.52-70.16-18.38c-15.62,5.72-18.82,16.89-51.79,35.08
			c-9.39,5.18-15.18,8.07-21.72,10.02c-33.45,9.98-74.22-12.74-97.41-36.74c-27.83-28.8-52.76-82.64-30.38-126.7
			c10.08-19.84,26.45-31.21,36.75-37.03C210.52,409.34,206.81,402.38,203.1,395.42z"/>
		<path class="st5" d="M251.87,788c-7.73,1.37-11.08,12.51-9.19,20.05c0.41,1.64,1.56,6.23,5.01,7.52
			c6.64,2.48,20.42-7.8,18.38-17.54C264.83,792.13,257.9,786.93,251.87,788z"/>
		<path class="st5" d="M264.28,803.1c-7.12,3.29-7.53,14.92-3.78,21.73c0.82,1.48,3.1,5.62,6.76,5.99
			c7.06,0.71,17.76-12.74,13.3-21.64C277.86,803.79,269.84,800.53,264.28,803.1z"/>
		<path class="st5" d="M281.57,803.64c-6.82,3.89-6.23,15.51-1.91,21.97c0.94,1.41,3.57,5.34,7.25,5.39
			c7.09,0.1,16.61-14.22,11.4-22.7C295.17,803.17,286.9,800.6,281.57,803.64z"/>
		<path class="st5" d="M290.9,805.31c-5.88,5.2-2.93,16.45,2.61,21.9c1.21,1.19,4.58,4.5,8.2,3.8c6.96-1.35,13.36-17.31,6.53-24.55
			C304.11,802.07,295.49,801.25,290.9,805.31z"/>
		<path class="st5" d="M311.38,817.43c-4.23,6.61,1.69,16.63,8.52,20.34c1.49,0.81,5.64,3.07,8.92,1.41c6.33-3.2,8.1-20.3-0.45-25.4
			C323.2,810.7,314.68,812.27,311.38,817.43z"/>
		<path class="st5" d="M337.12,803.97c-6.82,3.89-6.23,15.51-1.91,21.97c0.94,1.41,3.57,5.34,7.25,5.39
			c7.09,0.1,16.61-14.22,11.4-22.7C350.72,803.5,342.44,800.94,337.12,803.97z"/>
		<path class="st5" d="M323.75,795.01c-6.82,3.89-6.23,15.51-1.91,21.97c0.94,1.41,3.57,5.34,7.25,5.39
			c7.09,0.1,16.61-14.22,11.4-22.7C337.35,794.54,329.07,791.97,323.75,795.01z"/>
		<path class="st5" d="M357.1,801.85c-5.32,5.78-1.23,16.67,4.84,21.51c1.32,1.06,5.02,4.01,8.54,2.94
			c6.79-2.05,11.51-18.58,3.98-25.09C369.91,797.27,361.25,797.34,357.1,801.85z"/>
		<path class="st5" d="M374.72,795.11c-3.32,7.11,3.88,16.26,11.13,19.04c1.58,0.61,6,2.3,9.03,0.22c5.85-4.01,5.34-21.2-3.8-25.12
			C385.54,786.87,377.31,789.56,374.72,795.11z"/>
		<path class="st5" d="M389.54,787.39c-3.05,7.23,4.47,16.1,11.83,18.61c1.6,0.55,6.08,2.07,9.03-0.12
			c5.7-4.22,4.56-21.38-4.73-24.96C400.05,778.76,391.92,781.74,389.54,787.39z"/>
		<path class="st5" d="M406.61,782.93c-2.28,7.51,6.13,15.55,13.71,17.27c1.65,0.38,6.26,1.43,8.97-1.06
			c5.22-4.8,2.3-21.74-7.31-24.33C416.16,773.24,408.39,777.06,406.61,782.93z"/>
		<path class="st5" d="M425.31,761.43c-6.82,3.89-6.23,15.51-1.91,21.97c0.94,1.41,3.57,5.34,7.25,5.39
			c7.09,0.1,16.61-14.22,11.4-22.7C438.9,760.95,430.63,758.39,425.31,761.43z"/>
		<path class="st5" d="M431.42,759.37c0.05,7.85,10.47,13.03,18.22,12.43c1.69-0.13,6.4-0.49,8.25-3.68
			c3.57-6.13-4.25-21.44-14.2-21.07C437.67,747.29,431.38,753.24,431.42,759.37z"/>
		<path class="st5" d="M444.06,743.47c-1.74,7.66,7.23,15.07,14.91,16.25c1.67,0.26,6.35,0.98,8.87-1.7
			c4.87-5.16,0.74-21.85-9.03-23.74C452.89,733.13,445.41,737.5,444.06,743.47z"/>
		<path class="st5" d="M463.34,721.07c-6.82,3.89-6.23,15.51-1.91,21.97c0.94,1.41,3.57,5.34,7.25,5.39
			c7.09,0.1,16.61-14.22,11.4-22.7C476.94,720.59,468.66,718.03,463.34,721.07z"/>
		<path class="st5" d="M464.09,703.33c-6.9,3.66-6.99,13.37-3.13,18.54c0.84,1.13,3.19,4.27,6.79,4.11
			c6.94-0.32,17.08-12.88,12.48-19.7C477.43,702.15,469.48,700.48,464.09,703.33z"/>
		<path class="st5" d="M462.97,705.74c3.58,6.99,15.21,6.93,21.86,2.91c1.45-0.88,5.5-3.32,5.72-6.99
			c0.43-7.08-13.44-17.24-22.16-12.43C463.11,692.14,460.17,700.28,462.97,705.74z"/>
		<path class="st5" d="M468.12,688.15c3.58,6.99,15.21,6.93,21.86,2.91c1.45-0.88,5.5-3.32,5.72-6.99
			c0.43-7.08-13.44-17.24-22.16-12.43C468.27,674.54,465.33,682.69,468.12,688.15z"/>
		<path class="st5" d="M470.35,680.73c7.32,2.84,15.97-4.93,18.27-12.35c0.5-1.62,1.9-6.13-0.38-9.03
			c-4.39-5.57-21.5-3.95-24.82,5.44C461.42,670.47,464.64,678.51,470.35,680.73z"/>
		<path class="st5" d="M468.12,656.62c3.58,6.99,15.21,6.93,21.86,2.91c1.45-0.88,5.5-3.32,5.72-6.99
			c0.43-7.08-13.44-17.24-22.16-12.43C468.27,643.02,465.33,651.16,468.12,656.62z"/>
		<path class="st5" d="M463.02,629.69c-1.17,7.76,8.32,14.5,16.06,15.11c1.69,0.13,6.4,0.51,8.72-2.35
			c4.48-5.5-0.87-21.84-10.76-23.02C471.07,618.72,463.93,623.63,463.02,629.69z"/>
		<path class="st5" d="M455.11,622.57c6.83,3.88,16.52-2.56,19.87-9.57c0.73-1.53,2.77-5.79,0.94-8.99
			c-3.53-6.15-20.7-7.03-25.34,1.77C447.77,611.12,449.78,619.54,455.11,622.57z"/>
		<path class="st5" d="M436.05,597.15c3.58,6.99,15.21,6.93,21.86,2.91c1.45-0.88,5.5-3.32,5.72-6.99
			c0.43-7.08-13.44-17.24-22.16-12.43C436.2,583.55,433.26,591.7,436.05,597.15z"/>
		<path class="st5" d="M428.89,585.21c7.27,2.96,16.05-4.67,18.47-12.05c0.53-1.61,2-6.1-0.23-9.03c-4.29-5.65-21.43-4.3-24.9,5.03
			C420.13,574.8,423.22,582.89,428.89,585.21z"/>
		<path class="st5" d="M417.72,581.38c7.42-2.57,8.98-14.1,5.92-21.24c-0.67-1.56-2.52-5.91-6.13-6.64
			c-6.95-1.41-18.94,10.91-15.39,20.21C404.27,579.34,411.93,583.38,417.72,581.38z"/>
		<path class="st5" d="M379.12,572.83c3.79,7.67,15.51,7.91,22.11,3.73c1.44-0.91,5.45-3.46,5.58-7.44
			c0.25-7.67-14-19.05-22.66-14.06C378.92,558.08,376.16,566.84,379.12,572.83z"/>
		<path class="st5" d="M296.7,822.78c-4.23,6.61,1.69,16.63,8.52,20.34c1.49,0.81,5.64,3.07,8.92,1.41c6.33-3.2,8.1-20.3-0.45-25.4
			C308.52,816.04,300,817.61,296.7,822.78z"/>
		<path class="st5" d="M347.24,817.97c-4.23,6.61,1.69,16.63,8.52,20.34c1.49,0.81,5.64,3.07,8.92,1.41c6.33-3.2,8.1-20.3-0.45-25.4
			C359.06,811.23,350.54,812.81,347.24,817.97z"/>
		<path class="st5" d="M378.2,808.33c-4.23,6.61,1.69,16.63,8.52,20.34c1.49,0.81,5.64,3.07,8.92,1.41c6.33-3.2,8.1-20.3-0.45-25.4
			C390.02,801.59,381.5,803.16,378.2,808.33z"/>
		<path class="st5" d="M406.4,799.17c-1.64,7.68,7.41,14.98,15.1,16.07c1.68,0.24,6.36,0.9,8.85-1.81
			c4.81-5.22,0.47-21.85-9.32-23.63C415.11,788.72,407.69,793.17,406.4,799.17z"/>
		<path class="st5" d="M430.28,767.03c-0.28,7.84,9.91,13.45,17.68,13.18c1.69-0.06,6.42-0.23,8.4-3.33
			c3.82-5.98-3.36-21.6-13.31-21.64C437.03,755.21,430.5,760.9,430.28,767.03z"/>
		<path class="st5" d="M463.43,728.95c3.62,6.97,15.25,6.84,21.88,2.78c1.44-0.88,5.48-3.35,5.68-7.03
			c0.38-7.08-13.55-17.16-22.23-12.29C463.5,715.35,460.61,723.51,463.43,728.95z"/>
		<path class="st5" d="M442.96,722.06c1.34,7.73,12.47,11.13,20.01,9.26c1.64-0.41,6.23-1.54,7.54-4.99
			c2.51-6.63-7.73-20.45-17.48-18.44C447.14,709.11,441.91,716.02,442.96,722.06z"/>
		<path class="st5" d="M408.35,753.65c-4.23,6.61,1.69,16.63,8.52,20.34c1.49,0.81,5.64,3.07,8.92,1.41c6.33-3.2,8.1-20.3-0.45-25.4
			C420.17,746.92,411.65,748.49,408.35,753.65z"/>
		<path class="st5" d="M357.17,786.24c-0.87,7.8,8.86,14.17,16.63,14.49c1.69,0.07,6.42,0.26,8.63-2.68
			c4.26-5.67-1.7-21.79-11.62-22.59C364.8,774.98,357.85,780.15,357.17,786.24z"/>
		<path class="st6" d="M359.23,356.61c56.73,2.72,148.85,14.88,247.69,65.8c166.51,85.77,243.8,225.74,269.8,278.98
			c-6.18,9.99-22.72,33.59-53.76,46.16c-14.47,5.85-27.69,7.54-37.31,7.87c1.72-5.26,2.43-9.86,2.74-13.36
			c0.84-9.68-0.9-17.43-1.9-21.7c-1.45-6.21-2.25-6.31-3.71-12.96c-1.59-7.24-1.84-12.61-2.01-14.86
			c-0.86-11.37-5.59-21.58-10.4-31.95c-8.97-19.35-21.35-32.8-35.06-47.5c-18.54-19.87-34.99-32.6-44.66-40.02
			c-19.02-14.59-35.37-24.42-44.44-29.6c-10.57-6.04-24.67-12.6-52.44-25.47c-21.84-10.12-39.11-17.82-50.12-22.72
			c-12.86-5.73-23.97-10.59-45.73-20.13c-5.51-2.41-8.91-3.89-29.05-12.71c-23.4-10.24-24.96-10.95-30.55-13.32
			c-20.46-8.69-30.69-13.03-37.75-14.9c-16.4-4.34-35.85-6.53-35.86-6.54l0,0c0,0-2.75,0.18-8.25,0.55
			c-2.12-11.05-2.97-20.52-3.32-27.69c-1.06-21.75,2.04-32.5,2.98-35.58C357.22,361.42,358.38,358.56,359.23,356.61z"/>
		<path class="st7" d="M704.66,264.54c4.21-8.6,23.3-10.8,38.42-6.68c54.11,14.75,73.71,111.47,90.21,193.79
			c10.73,53.52,17.43,112.36,11.69,113.6c-5.01,1.08-16.07-42.5-56.8-148.68c-23.18-60.45-29.56-72.3-38.42-85.2
			C725.25,295.66,698.71,276.67,704.66,264.54z"/>
		<path class="st8" d="M276.99,682.18c-17.51,17.19-20.59,54.66-3.18,69.71c13.68,11.83,35.57,5.98,49.96,2.13
			c26.44-7.07,64.09-27.82,61.83-46.76C382.57,681.92,307.33,652.39,276.99,682.18z"/>
	</g>
</g>
</svg>
