<?xml version="1.0" encoding="utf-8"?>
<!-- Generator: Adobe Illustrator 23.0.1, SVG Export Plug-In . SVG Version: 6.00 Build 0)  -->
<svg version="1.1" id="Слой_1" xmlns="http://www.w3.org/2000/svg" xmlns:xlink="http://www.w3.org/1999/xlink" x="0px" y="0px"
	 viewBox="0 0 1000 1000" style="enable-background:new 0 0 1000 1000;" xml:space="preserve">
<style type="text/css">
	.st0{fill:#A83839;}
	.st1{fill:#BE3E41;}
	.st2{fill:#E8D4D3;}
	.st3{opacity:0.2;fill:#852C2B;}
	.st4{opacity:0.1;fill:#FFFFFF;}
</style>
<g>
	<g>
		<path class="st0" d="M546.08,617.89c-1.75-143.93-3.5-287.85-5.25-431.78c-135.31,0.24-270.62,0.49-405.93,0.73
			c-1.17-0.02-2.34-0.02-3.51,0.01c0,0,0,0,0,0c-45.52,1.06-89.51,39.87-113.76,108.48C-18.94,398.77,3.22,530.71,67.11,590.04
			c23.77,22.07,49.96,30.97,75.37,28.14C277.01,618.08,411.54,617.98,546.08,617.89z"/>
		<g>
			<ellipse class="st1" cx="544.22" cy="401.98" rx="133.28" ry="215.91"/>
			<ellipse class="st2" cx="514.88" cy="242.41" rx="12.91" ry="20.91"/>
			<ellipse class="st2" cx="578.57" cy="417.74" rx="12.91" ry="20.91"/>
			<ellipse class="st2" cx="624.06" cy="337.62" rx="12.91" ry="20.91"/>
			<ellipse class="st2" cx="574.36" cy="246.56" rx="12.91" ry="20.91"/>
			<ellipse class="st2" cx="463.02" cy="317.23" rx="12.91" ry="20.91"/>
			<ellipse class="st2" cx="636.11" cy="447.08" rx="12.91" ry="20.91"/>
			<ellipse class="st2" cx="519.14" cy="402.78" rx="12.91" ry="20.91"/>
			<ellipse class="st2" cx="458.02" cy="445.38" rx="12.91" ry="20.91"/>
			<ellipse class="st2" cx="587.76" cy="541.77" rx="12.91" ry="20.91"/>
			<ellipse class="st2" cx="506.2" cy="538.3" rx="12.91" ry="20.91"/>
		</g>
		<rect x="667.57" y="584.62" class="st0" width="14.94" height="20.66"/>
		<g>
			<g>
				<ellipse class="st0" cx="627.39" cy="691.3" rx="223.26" ry="128.9"/>
				<ellipse class="st0" cx="455.32" cy="693.68" rx="21.62" ry="12.48"/>
				<ellipse class="st0" cx="658.16" cy="661.71" rx="21.62" ry="12.48"/>
				<ellipse class="st0" cx="598.15" cy="606.7" rx="21.62" ry="12.48"/>
				<ellipse class="st0" cx="485.52" cy="638.82" rx="21.62" ry="12.48"/>
				<ellipse class="st0" cx="507.25" cy="753.82" rx="21.62" ry="12.48"/>
				<ellipse class="st0" cx="712.64" cy="612.61" rx="21.62" ry="12.48"/>
				<ellipse class="st0" cx="617.2" cy="714.84" rx="21.62" ry="12.48"/>
				<ellipse class="st0" cx="632.92" cy="778.57" rx="21.62" ry="12.48"/>
				<ellipse class="st0" cx="785.94" cy="672.58" rx="21.62" ry="12.48"/>
				<ellipse class="st0" cx="746.74" cy="748.16" rx="21.62" ry="12.48"/>
			</g>
			<rect x="835.65" y="668.36" class="st0" width="14.94" height="20.66"/>
			<g>
				<ellipse class="st1" cx="627.39" cy="665.68" rx="223.26" ry="128.9"/>
				<ellipse class="st2" cx="455.31" cy="668.05" rx="21.62" ry="12.48"/>
				<ellipse class="st2" cx="658.16" cy="636.08" rx="21.62" ry="12.48"/>
				<ellipse class="st2" cx="598.15" cy="581.07" rx="21.62" ry="12.48"/>
				<ellipse class="st2" cx="485.52" cy="613.19" rx="21.62" ry="12.48"/>
				<ellipse class="st2" cx="507.25" cy="728.19" rx="21.62" ry="12.48"/>
				<ellipse class="st2" cx="712.64" cy="586.98" rx="21.62" ry="12.48"/>
				<ellipse class="st2" cx="617.2" cy="689.21" rx="21.62" ry="12.48"/>
				<ellipse class="st2" cx="632.92" cy="752.94" rx="21.62" ry="12.48"/>
				<ellipse class="st2" cx="785.94" cy="646.95" rx="21.62" ry="12.48"/>
				<ellipse class="st2" cx="746.74" cy="722.53" rx="21.62" ry="12.48"/>
			</g>
		</g>
	</g>
	<path class="st3" d="M579.89,539.72c9.23-9.14,22.1-20.15,38.99-30.3c17.9-10.75,34.61-17.1,47.52-20.94
		c1.79-6.65,3.47-13.79,4.96-21.37c1.3-6.63,2.32-12.99,3.13-19.04c-17.79,3.53-40.23,9.67-64.75,20.78
		c-22.31,10.11-40.3,21.59-54.01,31.73c-30.87,4.4-93.3,18.04-147.45,68.06c-0.54,0.5-1.05,1.01-1.58,1.51
		c-77.48,7.1-165.91,8.65-262.64-1.2c-37.16-3.78-72.48-8.94-105.84-15.02c6.23,11.35,16.82,26.94,34.09,40.69
		c8.91,7.09,22.87,17.95,43.92,22.25c6.34,1.3,11.74,1.68,15.5,1.78c96.06-0.22,192.13-0.45,288.19-0.67
		c5.14-6.82,12.96-16.14,23.87-25.68c25.33-22.16,51.3-31.51,73.3-38.7c-7.01,19.58-17.84,60.97-2.75,107.93
		c14.82,46.12,46.33,71.65,62.13,84.1c48.98,38.59,103.96,43.98,135.56,47.07c21.1,2.07,38.83,1.67,51.23,0.89
		c14.94-6.12,32.62-15.61,49.72-30.61c4.1-3.6,7.84-7.23,11.26-10.82C742.79,681.34,661.34,610.53,579.89,539.72z"/>
	<g>
		<g>
			<ellipse class="st0" cx="776.74" cy="626.2" rx="223.26" ry="128.9"/>
			<ellipse class="st0" cx="604.67" cy="628.58" rx="21.62" ry="12.48"/>
			<ellipse class="st0" cx="807.51" cy="596.61" rx="21.62" ry="12.48"/>
			<ellipse class="st0" cx="747.5" cy="541.59" rx="21.62" ry="12.48"/>
			<ellipse class="st0" cx="634.87" cy="573.71" rx="21.62" ry="12.48"/>
			<ellipse class="st0" cx="656.6" cy="688.71" rx="21.62" ry="12.48"/>
			<ellipse class="st0" cx="862" cy="547.5" rx="21.62" ry="12.48"/>
			<ellipse class="st0" cx="766.55" cy="649.73" rx="21.62" ry="12.48"/>
			<ellipse class="st0" cx="782.28" cy="713.46" rx="21.62" ry="12.48"/>
			<ellipse class="st0" cx="935.29" cy="607.47" rx="21.62" ry="12.48"/>
			<ellipse class="st0" cx="896.1" cy="683.05" rx="21.62" ry="12.48"/>
		</g>
		<rect x="985" y="603.26" class="st0" width="14.94" height="20.66"/>
		<g>
			<ellipse class="st1" cx="776.74" cy="600.57" rx="223.26" ry="128.9"/>
			<ellipse class="st2" cx="604.67" cy="602.95" rx="21.62" ry="12.48"/>
			<ellipse class="st2" cx="807.51" cy="570.98" rx="21.62" ry="12.48"/>
			<ellipse class="st2" cx="747.5" cy="515.96" rx="21.62" ry="12.48"/>
			<ellipse class="st2" cx="634.87" cy="548.08" rx="21.62" ry="12.48"/>
			<ellipse class="st2" cx="656.6" cy="663.08" rx="21.62" ry="12.48"/>
			<ellipse class="st2" cx="862" cy="521.87" rx="21.62" ry="12.48"/>
			<ellipse class="st2" cx="766.55" cy="624.1" rx="21.62" ry="12.48"/>
			<ellipse class="st2" cx="782.28" cy="687.84" rx="21.62" ry="12.48"/>
			<ellipse class="st2" cx="935.29" cy="581.84" rx="21.62" ry="12.48"/>
			<ellipse class="st2" cx="896.1" cy="657.43" rx="21.62" ry="12.48"/>
		</g>
	</g>
	<path class="st4" d="M720.21,488.17c-14.33,1.84-40.16,6.55-70.29,21.34c-3.75,1.84-48.18,23.65-45.19,32.63
		c3.37,10.11,64.75-2.16,72.8-3.77c25.59-5.11,43.64-11.6,55.23-16.32c12.02-4.9,52.24-21.28,50.21-30.12
		C781.04,483.56,741.96,485.37,720.21,488.17z"/>
	<path class="st4" d="M426.8,225.34c-3.09-25.86-146.99-26.36-156.9-26.35c-74.62,0.02-177.73,9.82-178.69,28.16
		c-0.08,1.57,0.6,2.78,1.08,3.54c17.83,28.07,132.03,26.32,160.98,25.72c142.09-2.9,169.75-14.38,173.22-27.92
		C426.71,227.59,426.95,226.62,426.8,225.34z"/>
</g>
</svg>
