<?xml version="1.0" encoding="utf-8"?>
<!-- Generator: Adobe Illustrator 23.0.1, SVG Export Plug-In . SVG Version: 6.00 Build 0)  -->
<svg version="1.1" id="Слой_1" xmlns="http://www.w3.org/2000/svg" xmlns:xlink="http://www.w3.org/1999/xlink" x="0px" y="0px"
	 viewBox="0 0 1000 1000" style="enable-background:new 0 0 1000 1000;" xml:space="preserve">
<style type="text/css">
	.st0{fill:#D3AF52;}
	.st1{fill:#FDE9B4;}
	.st2{fill:#BC9D4A;}
	.st3{opacity:0.15;fill:#FFFFFF;}
	.st4{opacity:0.2;fill:#FFFFFF;}
</style>
<g id="реджанито_1_">
	<g id="реджанито">
		<path class="st0" d="M80.43,316.71c-13.16,17.42-30.62,43.46-45.82,77.64c-17.39,39.1-42.22,94.96-32.37,167.56
			C3.9,574.17,14.17,643,67.99,701.9c18.93,20.71,36.47,32.79,57.93,47.56c12.67,8.73,56.15,37.78,125.11,62.57
			c100.42,36.11,186.66,38.66,236.36,39.74c29.18,0.63,53.52-0.33,70.63-1.37c-1.07-63.06-2.15-126.12-3.22-189.18
			C396.68,546.38,238.55,431.54,80.43,316.71z"/>
		<path class="st0" d="M898.27,729.09c17.03-11.82,44.01-33.79,66.06-69.45c0,0,25.48-41.18,33.43-95.98
			c17.7-122-74.8-242.79-86.68-257.92c-7.7,75.62-15.4,151.24-23.11,226.87C891.4,598.1,894.83,663.6,898.27,729.09z"/>
		<path class="st1" d="M326.82,168.1c-35.61,8.69-60.1,17.71-66.24,20.01c-25.88,9.67-61.42,22.96-100.13,50.21
			c-29.52,20.79-63.85,44.96-86.62,90.48c-7.52,15.04-21.47,43.77-20.11,82.62c1.41,40.31,18.51,68.84,29.01,85.89
			c25.77,41.83,58.95,63.61,88.97,82.84c50.55,32.39,94.93,45.92,129.58,56.21c87.55,26,160.24,26.71,196.99,26.81
			c23.45,0.06,42.95-0.98,56.53-1.95c-18.04-93.76-36.08-187.52-54.12-281.28c129.1,50.89,258.19,101.78,387.29,152.67
			c6.58-6.43,15.25-15.8,23.89-28.22c7.2-10.35,28.5-41.66,33.08-82.27c6.24-55.34-21.94-98.23-33.86-116.37
			c-26.68-40.61-59.41-60.58-95.88-82.28c-68.32-40.65-130.4-53.53-175.44-62.47c-14.45-2.87-75.29-14.46-156.02-12.79
			C406.57,149.8,348.75,162.74,326.82,168.1z"/>
		<path class="st2" d="M898.27,729.09C778.23,676.4,658.2,623.7,538.17,571.01c-12.5-63.69-24.99-127.38-37.49-191.08
			c129.1,50.89,258.19,101.78,387.29,152.67C891.4,598.1,894.83,663.6,898.27,729.09z"/>
	</g>
	<path class="st3" d="M324.95,184.62C206.99,209.27,162.38,248.35,150.8,259c-21.58,19.85-72.45,66.65-74.37,134.24
		c-2.48,87.21,78.3,146.97,105.21,166.89c118.56,87.72,281.79,76.73,290.24,47.16c8.4-29.38-141.63-57.73-165.07-166.89
		c-13.71-63.82,23.08-121.61,34.47-137.86c75.14-107.25,232.39-101.28,230.38-119.72C569.9,166.71,449.68,158.56,324.95,184.62z"/>
	<path class="st3" d="M31.68,444.03C14.36,446.7-0.94,548.5,43.78,632.68c8.24,15.5,22.97,42.57,51.77,64.26
		c94.4,71.08,253.07,18.94,254.8-13.46c1.95-36.58-197.13-27.77-280.13-168.35C47.88,477.3,42.08,442.42,31.68,444.03z"/>
	<path class="st4" d="M324.12,211.83c4.15,5.99-30.82,27.77-72.56,94.33c-23.2,37-37.1,59.16-40.69,88.86
		c-9.14,75.59,57.04,129.14,47.95,137.89C246.49,544.78,98.69,471.21,101,375.1C103.73,261.34,314.76,198.31,324.12,211.83z"/>
</g>
</svg>
