<?xml version="1.0" encoding="utf-8"?>
<!-- Generator: Adobe Illustrator 23.0.1, SVG Export Plug-In . SVG Version: 6.00 Build 0)  -->
<svg version="1.1" id="Слой_1" xmlns="http://www.w3.org/2000/svg" xmlns:xlink="http://www.w3.org/1999/xlink" x="0px" y="0px"
	 viewBox="0 0 1000 1000" style="enable-background:new 0 0 1000 1000;" xml:space="preserve">
<style type="text/css">
	.st0{fill:#D3CEBB;}
	.st1{fill:#EDEAE5;}
	.st2{fill:#64786F;}
	.st3{fill:#637A81;}
	.st4{opacity:0.3;fill:#FFFFFF;}
	.st5{opacity:0.4;fill:#FFFFFF;}
	.st6{opacity:0.1;fill:#8F9382;}
</style>
<g>
	<path class="st0" d="M977.27,850.3H22.68C10.15,850.3,0,840.15,0,827.62V427.04h999.95v400.58
		C999.95,840.15,989.79,850.3,977.27,850.3z"/>
	<g>
		<path class="st1" d="M0,427.04c231.03-99.64,462.06-199.28,693.08-298.93c41.64,14.46,116.63,46.62,187.82,116.4
			c69.97,68.59,103.56,141.45,119.04,182.53C666.63,427.04,333.32,427.04,0,427.04z"/>
		<path class="st2" d="M59.04,652.37c-7.3,8.54-7.42,18.74-7.46,22.38c-0.06,5.06-0.11,9.75,3.32,12.43
			c2.67,2.09,7.05,2.66,9.95,0.83c4.14-2.62,2.04-8.12,4.97-14.92c3.89-9.03,14.88-16.27,21.55-14.09
			c3.91,1.28,3.53,4.87,10.78,19.06c7.27,14.25,11.85,18.85,16.2,21.82c0.72,0.49,9.27,6.21,12.14,3.72
			c0.93-0.81,1.46-2.66-0.45-9.13c-3.02-10.19-7.78-17.25-10.48-21.38c-6.65-10.14-9.97-15.22-11.6-19.06
			c-4.68-11.04-1.21-14.18-4.14-33.98c-2.13-14.35-3.45-22.53-9.95-29.84c-6.75-7.6-18.41-13.49-23.21-9.95
			c-2.44,1.8-2.48,5.57-2.49,6.63c-0.08,8.16,8.1,10.9,14.92,21.55c2.29,3.58,9.72,15.18,5.8,23.21c-1.8,3.69-4.37,3.28-17.41,11.6
			C64.67,647.59,61.27,649.76,59.04,652.37z"/>
		<path class="st2" d="M386.13,540.62c-2.21-1.14-8.23-4.45-14.36-2.56c-3.67,1.13-8.13,4.35-8.46,8.72
			c-0.41,5.39,5.71,9.32,7.18,10.25c5.43,3.48,9.91,2.73,21.53,3.08c13.91,0.41,20.97,0.67,26.15,3.59
			c9.4,5.29,12.84,15.2,13.07,15.89c4.21,12.67-3.77,21.22,0.77,25.64c4.46,4.33,17.7,1.47,20.51-5.13
			c3.12-7.32-9.28-12.94-9.23-26.66c0.04-10.74,7.65-11.86,9.23-24.61c1.78-14.35-5.78-29.75-11.28-29.74
			c-2.4,0.01-4.13,2.95-4.36,3.33c-4.43,7.53,6.51,16.73,3.59,22.05C436.36,551.97,405.3,550.52,386.13,540.62z"/>
		<path class="st2" d="M457.13,725.27c-6.29,2.14-13.35,7.93-13.27,14.59c0.1,7.92,10.23,12.78,11.28,13.27
			c8.08,3.75,16.3,1.76,20.56,0.66c39.63-10.17,42.24-16.69,53.07-15.26c19.11,2.53,17.26,23.68,44.44,34.49
			c16.4,6.52,38.37,7.3,43.12-1.33c2.73-4.96-0.02-13.43-5.31-17.25c-8.6-6.2-17.93,4.68-31.84,2.65
			c-9.25-1.35-15.47-6.97-20.73-13.58c-8.9-11.2-15.03-25.24-28.36-26.22c-15.08-1.1-17.84,16.11-37.15,15.92
			C476.79,733.08,469.94,720.92,457.13,725.27z"/>
		<path class="st3" d="M165.35,518.57c-5.67,3.2-10.97,1.24-13.55,5.64c-1.65,2.82-1.78,7.57,0.57,9.92
			c5.61,5.59,18.82-9.01,34.43-5.4c15.25,3.53,22.77,22.11,26.97,19.82c1.7-0.93,1.4-4.49,1.25-6.27
			c-1.12-13.27-14.05-15.04-18.06-28.22c-3.31-10.86,2.85-18.29-2.26-22.58c-3.06-2.57-8.45-2.58-12.38-0.71
			C171.69,495.8,176.51,512.26,165.35,518.57z"/>
		<path class="st3" d="M678.27,624.44c-3.88,4.15-13.8-5-28.07-2.64c-13.17,2.18-23.99,13.16-22.45,17.17
			c2.27,5.91,29.7-7.87,44.91,5.28c8.79,7.6,12.5,23.33,7.26,32.36c-4.72,8.15-16.07,9.7-15.52,14.86c0.25,2.33,2.82,4.43,5.28,4.95
			c8.61,1.84,22.39-14.12,25.43-31.04c0.69-3.85,0.03-9.88-1.32-21.79c-2.63-23.22-4.56-24.26-5.28-37.97
			c-0.84-16.05,1.31-23.91-1.32-24.77c-2.89-0.94-9.97,7.07-11.89,16.51C672.52,611.05,682.13,620.31,678.27,624.44z"/>
		<path class="st2" d="M812.37,487.34c-2.88,0.98-5.42,4.12-5.26,7.01c0.31,5.41,10.07,9.46,17.53,10.52
			c9.49,1.35,10.93-2.77,21.91-2.63c9.48,0.12,22.7,1.5,23.66,6.13c0.79,3.8-7.54,5.41-14.02,14.9c-7.46,10.91-8.6,26.55-3.51,29.8
			c2.42,1.54,6.54,0.48,8.76-1.75c4.12-4.15-0.22-10.45,1.75-18.4c2.64-10.68,15.57-19.97,22.79-17.53
			c8.13,2.74,6.61,19.53,14.9,21.03c2.56,0.46,5.6-0.61,7.01-2.63c4.22-6.02-4.77-22.21-16.65-31.55
			c-9.63-7.57-24.82-12.94-40.31-12.27c-13.12,0.57-18.46,5.01-27.17,0.88C819.98,489.04,816.33,485.99,812.37,487.34z"/>
		<path class="st3" d="M282.88,794.9c-5.08-1.27-5.03,10.95-15.22,16.37c-9.4,5.01-23.19,1.92-24.91-2
			c-2.53-5.78,23.15-8.98,23.65-27.03c0.29-10.43-7.85-24.64-16.98-29.04c-8.24-3.97-16.12,0.6-19.19-3.72
			c-1.39-1.95-1.22-4.9-0.08-6.57c3.99-5.83,22.86-0.36,35.86,11.34c2.96,2.66,6.54,7.72,13.59,17.74
			c13.75,19.53,13.26,21.32,21.88,32.43c10.09,13,16.58,18.05,15.56,20.07c-1.13,2.21-10.69-0.45-18.09-6.87
			C288.25,808.3,287.94,796.16,282.88,794.9z"/>
		<path class="st3" d="M848.77,664.11c-3.62,3.45-4.8,8.58-4.22,18.7c0.94,16.32,5.11,22.05,7.84,35.58
			c2.86,14.16,5.94,29.47-1.81,39.2c-9.15,11.5-28.52,9.07-29.18,16.52c-0.28,3.16,3.02,5.63,3.25,5.79
			c7.89,5.73,28.38-2.49,38-16.89c5.76-8.62,2.24-11.41,8.44-36.79c3.39-13.85,5.4-22.09,10.25-32.57
			c7.72-16.68,15.79-24.25,12.67-28.95c-2.11-3.17-8.61-3.99-13.27-1.81c-14.26,6.66-8.99,40.29-15.08,41.01
			c-2.76,0.33-6.6-6.27-7.84-12.67c-2.95-15.17,9.35-25.89,5.43-30.16C860.72,658.35,853.07,660.01,848.77,664.11z"/>
		<path class="st4" d="M703.67,166.03c-40.31-7.56-53.01,8.16-211.63,75.83c-55.36,23.62-161.65,68.97-278.64,112.87
			c-86.87,32.59-119.53,41.83-118.16,49.38c2.83,15.53,143.59-9.44,343.9-15.87c290.19-9.32,396.01,30.18,421.49-21.16
			C888.29,311.35,803.38,184.73,703.67,166.03z"/>
		<path class="st5" d="M678.98,201.3c-27.91-3.08-44.03,8.33-88.18,29.98c-58.06,28.47-129.21,53.18-271.51,102.61
			c-63.97,22.22-90.88,29.32-90.03,33.18c1.88,8.56,132.86-29.81,317.44-38.8c154.26-7.51,223.75,11.45,236.32-19.4
			C796.17,276.62,739.66,208,678.98,201.3z"/>
		<path class="st3" d="M271.87,647.94c2.43,0.52,9.18,1.79,12.72,7.13c2.12,3.2,3.52,8.52,1.01,12.11
			c-3.11,4.43-10.33,3.57-12.06,3.37c-6.4-0.76-9.39-4.17-18.59-11.29c-11.01-8.51-16.64-12.79-22.49-13.82
			c-10.62-1.87-19.57,3.59-20.19,3.99c-11.29,7.12-10.56,18.79-16.86,19.32c-6.2,0.52-14.61-10.09-12.6-16.98
			c2.24-7.64,15.38-4.11,24.05-14.75c6.79-8.33,1.62-14.02,8.49-24.88c7.73-12.22,23.35-19.32,27.59-15.82
			c1.85,1.53,1.32,4.9,1.25,5.34c-1.35,8.63-15.65,8.8-16.77,14.76C225.85,624.83,250.78,643.42,271.87,647.94z"/>
		<path class="st2" d="M611.27,557.86c-1.87,2.4-5.66,3.78-8.34,2.68c-5.01-2.06-5.65-12.61-4.22-20c1.83-9.41,6.18-9.43,9.64-19.85
			c2.98-8.99,5.99-21.95,1.93-24.37c-3.34-1.99-7.58,5.35-18.66,8.39c-12.75,3.49-27.91-0.54-29.31-6.42
			c-0.67-2.79,1.68-6.34,4.52-7.71c5.27-2.54,9.8,3.61,17.97,4.35c10.96,0.99,23.95-8.19,24.01-15.81
			c0.06-8.58-16.3-12.62-15.02-20.95c0.4-2.57,2.41-5.09,4.77-5.77c7.07-2.03,19.43,11.76,24.38,26.04
			c4.01,11.57,4.13,27.69-1.57,42.11c-4.82,12.21-10.77,15.81-9.7,25.39C612.14,550.11,613.84,554.56,611.27,557.86z"/>
		<path class="st2" d="M714.79,806.95c0.83,6.46-2.97,10.63,0.14,14.67c1.99,2.59,6.35,4.5,9.4,3.2c7.29-3.1-1.27-20.83,7.94-33.93
			c9-12.8,29.05-12.78,28.51-17.54c-0.22-1.93-3.63-2.99-5.34-3.52c-12.71-3.95-19.22,7.36-32.94,6.12
			c-11.31-1.02-15.87-9.51-21.77-6.4c-3.53,1.87-5.57,6.86-5.32,11.2C696.08,792.51,713.15,794.24,714.79,806.95z"/>
		<path class="st6" d="M0,469.37c132.1-4.55,242.42-2.8,322.73,0c489.14,17.07,527.7,96.24,534.6,118.41
			c4.95,15.91,2.58,31.27,2.4,32.37c-10.29,62.67-109.51,94.49-171.95,113.75c-97.41,30.05-238.46,71.25-417.97,116.4
			c393.12-0.19,571.33-0.18,573.16,0c0.02,0,0.18,0.02,0.4,0.04c7.48,0.71,18.06,1.39,31.59,1.09c16.24-0.36,24.56-0.54,35.93-2.91
			c5.59-1.16,15.47-3.28,26.81-8.59c20.93-9.81,33.58-24.3,38.5-30.49c3.88-4.88,20.88-27.11,23.07-55.77
			c0.44-5.69,0.52-14.67,0.66-29.35c0.11-11.43,0.02-19.96,0-22.16c-0.34-35.86,0-71.72,0-107.58c0-55.85,0-111.69,0-167.54
			c-333.32,0-666.63,0-999.95,0C0,441.15,0,455.26,0,469.37z"/>
	</g>
</g>
</svg>
