<?xml version="1.0" encoding="utf-8"?>
<!-- Generator: Adobe Illustrator 23.0.1, SVG Export Plug-In . SVG Version: 6.00 Build 0)  -->
<svg version="1.1" id="Слой_1" xmlns="http://www.w3.org/2000/svg" xmlns:xlink="http://www.w3.org/1999/xlink" x="0px" y="0px"
	 viewBox="0 0 1000 1000" style="enable-background:new 0 0 1000 1000;" xml:space="preserve">
<style type="text/css">
	.st0{fill:#E8D4D3;}
	.st1{fill:#BE3E41;}
	.st2{fill:#E9AEA8;}
	.st3{fill:#C14F4B;}
	.st4{opacity:0.1;fill:#FFFFFF;}
	.st5{opacity:0.2;fill:#852C2B;}
</style>
<g>
	
		<rect x="137.46" y="410.65" transform="matrix(-0.1541 -0.9881 0.9881 -0.1541 -295.6427 736.6336)" class="st0" width="60.09" height="168.44"/>
	<path class="st0" d="M115.83,542.38c-6.15,35.76-29.04,61.03-54.11,63.2c-15.37,1.33-37.16-5.54-43.86-21.64
		c-6.18-14.84,2.91-31.57,5.16-35.72c10.64-19.59,26.95-21.81,25.96-31.18c-0.94-8.97-16.02-8.24-31.73-24.23
		c-4.09-4.16-20.84-21.22-16.57-37.7c3.79-14.61,22.44-22.33,35.3-24c30.1-3.91,56.71,21.62,68.94,41.45
		C124.2,503.77,116.91,536.09,115.83,542.38z"/>
</g>
<path class="st1" d="M668.42,182.47c-93.81-10.01-153.53,11.32-190.22,31.85c-80.51,45.04-74.34,99.74-178.14,167.77
	c-57.45,37.65-134.01,69.83-129.72,81.29c2.25,6.01,24.48,0.24,31.13,12.11c6.11,10.9-8.44,23.28-4.9,37.7
	c4.58,18.69,35.88,25.89,44.68,28.03c92.86,22.51,104.64,67.72,238.68,93.4c41.1,7.87,100.41,15.2,172.88,10.31
	C658.01,490.77,663.21,336.62,668.42,182.47z"/>
<ellipse transform="matrix(8.016517e-03 -1 1 8.016517e-03 244.8929 1074.845)" class="st2" cx="664.19" cy="413.99" rx="231.59" ry="133.71"/>
<ellipse transform="matrix(8.016517e-03 -1 1 8.016517e-03 244.8929 1074.845)" class="st1" cx="664.19" cy="413.99" rx="193.46" ry="111.7"/>
<ellipse transform="matrix(8.016517e-03 -1 1 8.016517e-03 244.8929 1074.845)" class="st2" cx="664.19" cy="413.99" rx="80.99" ry="46.76"/>
<path class="st2" d="M686.47,462.79c7.77,2.09,20.01,7.23,32.69,21.23c20.55,22.69,29.61,54.66,32.89,68.16
	c-8.54,10.58-17.08,21.17-25.62,31.75c4.13-12.95,4.08-28.06-0.26-38.95c-3.56-8.93-8.83-12.07-10.85-13.07
	c-0.5,5.72-1.28,11.74-2.45,17.95c-6.91,36.77-23.25,58.58-32.26,68.64c-7.69-0.06-15.37-0.12-23.06-0.18
	c6.47-3.12,23.48-13.01,34.92-41.66c4.7-11.76,15.83-39.61,8.58-63.84c-5.11-17.11-17.65-26.61-31.51-25.22
	C675.19,479.34,680.83,471.06,686.47,462.79z"/>
<path class="st2" d="M708.12,385.51c6.39,1.22,15.13,1.53,25.11-2.24c20.26-7.64,33.59-27.52,39.5-37.63
	c2.26,21.01,4.51,42.03,6.77,63.04c-5.37,7.23-13.87,16.6-25.32,21.69c-26.06,11.59-47.69-7.76-53.51-13.41
	C703.15,406.48,705.64,396,708.12,385.51z"/>
<path class="st2" d="M665.49,346.78c0.86-25.67-3.01-39.77-7.69-47.99c-7.39-12.98-16.09-10.09-22.3-23.14
	c-5.84-12.28-5.51-30.3-3.56-46.38l0,0c-4.44-1.89-8.88-3.79-13.32-5.68c-1,5.46-3.08,19.42-0.29,35.95
	c3.49,20.67,12.23,31.26,14.72,34.07c-4.79-2.5-10.18-4.68-16.09-6.12c-18.87-4.61-35.05,0.26-46.17,5.62
	c-4.49,8.29-8.97,16.57-13.46,24.86c10.08-2.04,24.13-4.59,40.99-6.66c31.08-3.83,38.89-2.02,43.18,7.33
	c1.78,3.88,6.08,15.87,0.22,44.94C649.64,357.98,657.57,352.38,665.49,346.78z"/>
<path class="st2" d="M621.7,415.34c-5.7-4.63-18.21-13.03-33.94-9.26c-28.41,6.81-43.29,47.56-45.4,53.56
	c4.29,15.68,8.59,31.36,12.88,47.04c6.2-19.57,16.58-44.45,32.7-51.67c24.06-10.77,47.29,23.95,51.77,14.39
	C641.66,465.27,640,453.06,621.7,415.34z"/>
<path class="st2" d="M648.19,490.36c-1.29,10.94-4.09,27.28-10.73,43.93c-13.03,32.71-31.85,44.19-38.43,47.63
	c5.52,6.37,11.04,12.74,16.57,19.1c5.71-4.15,21.42-17.06,32.67-47.67c11.72-31.91,11.35-63.31,10.97-73.81
	C655.56,483.15,651.88,486.75,648.19,490.36z"/>
<ellipse transform="matrix(8.016517e-03 -1 1 8.016517e-03 244.8929 1074.845)" class="st0" cx="664.19" cy="413.99" rx="60.52" ry="34.94"/>
<path class="st2" d="M685.43,342.17c-0.61-11.09-0.67-28.08,2.89-47.32c6.99-37.78,23.11-58.23,28.85-64.83
	c-6.37-3.29-12.74-6.57-19.11-9.86c-4.78,6.84-17.67,27.08-23.31,61.97c-5.88,36.36-0.23,66.12,1.9,75.94
	C679.58,352.77,682.51,347.47,685.43,342.17z"/>
<path class="st3" d="M437.51,659.27c-2.87,12.93-4.63,30.27,0.48,48.92c21.96,80.13,151.05,112.86,237.81,111.86
	c20.39-0.24,174.42-3.92,214.46-97.72c9.05-21.19,9.97-41.56,9.1-56.18C745.42,663.86,591.46,661.57,437.51,659.27z"/>
<ellipse class="st2" cx="668.02" cy="672.18" rx="231.59" ry="133.71"/>
<ellipse class="st1" cx="668.02" cy="672.18" rx="193.46" ry="111.7"/>
<ellipse class="st2" cx="668.02" cy="672.18" rx="80.99" ry="46.76"/>
<path class="st2" d="M716.64,694.84c2.03,7.78,7.07,20.06,20.97,32.86c22.52,20.73,54.42,30.04,67.9,33.44
	c10.65-8.46,21.3-16.91,31.95-25.37c-12.99,4.03-28.09,3.85-38.94-0.58c-8.9-3.63-12-8.93-12.98-10.95
	c5.72-0.45,11.75-1.19,17.97-2.31c36.83-6.62,58.76-22.78,68.9-31.71c0-7.69,0-15.37,0-23.06c-3.18,6.45-13.19,23.37-41.94,34.59
	c-11.79,4.6-39.73,15.51-63.91,8.07c-17.07-5.25-26.47-17.87-24.96-31.71C733.28,683.69,724.96,689.27,716.64,694.84z"/>
<path class="st2" d="M639.19,715.87c1.17,6.4,1.41,15.14-2.44,25.09c-7.81,20.2-27.79,33.37-37.95,39.2
	c20.99,2.42,41.99,4.85,62.98,7.27c7.27-5.31,16.71-13.74,21.89-25.14c11.8-25.97-7.38-47.75-12.98-53.61
	C660.2,711.07,649.7,713.47,639.19,715.87z"/>
<path class="st2" d="M600.81,672.93c-25.67,0.66-39.74-3.33-47.93-8.07c-12.92-7.49-9.96-16.17-22.97-22.48
	c-12.23-5.94-30.25-5.75-46.35-3.93l0,0c-1.86-4.45-3.71-8.91-5.57-13.36c5.46-0.95,19.44-2.92,35.95,0
	c20.64,3.66,31.16,12.48,33.95,14.99c-2.46-4.81-4.59-10.21-5.99-16.14c-4.46-18.91,0.54-35.04,5.99-46.12
	c8.32-4.42,16.64-8.84,24.96-13.26c-2.12,10.07-4.78,24.09-6.99,40.93c-4.07,31.05-2.33,38.87,6.99,43.24
	c3.87,1.81,15.82,6.21,44.93,0.58C612.13,657.17,606.47,665.05,600.81,672.93z"/>
<path class="st2" d="M669.71,629.69c-4.58-5.74-12.88-18.32-8.99-34.01c7.04-28.36,47.9-42.9,53.92-44.97
	c15.64,4.42,31.29,8.84,46.93,13.26c-19.62,6.04-44.58,16.23-51.92,32.28c-10.96,23.98,23.57,47.48,13.98,51.89
	C719.48,650.05,707.28,648.3,669.71,629.69z"/>
<path class="st2" d="M744.52,656.79c10.95-1.2,27.31-3.87,44.02-10.37c32.82-12.76,44.44-31.49,47.93-38.05
	c6.32,5.57,12.65,11.15,18.97,16.72c-4.19,5.68-17.23,21.28-47.93,32.28c-32,11.47-63.4,10.85-73.89,10.38
	C737.25,664.09,740.88,660.44,744.52,656.79z"/>
<ellipse class="st0" cx="668.02" cy="672.18" rx="60.52" ry="34.94"/>
<path class="st2" d="M596.04,692.84c-11.08-0.7-28.08-0.89-47.34,2.51c-37.84,6.69-58.41,22.65-65.06,28.33
	c-3.24-6.4-6.47-12.79-9.71-19.19c6.88-4.73,27.22-17.46,62.15-22.82c36.4-5.58,66.12,0.29,75.92,2.51
	C606.68,687.07,601.36,689.96,596.04,692.84z"/>
<path class="st4" d="M447.64,262.82c-35.03,30.35-32.49,42.2-71.74,78.94c-53.1,49.72-98.42,66.12-96.35,70.24
	c2.31,4.61,62.4-9.5,113.46-51.33c18.25-14.95,24.4-24.48,48.63-40.52c30.53-20.22,41.69-18.95,63.93-33.32
	c40.63-26.24,69.3-73.04,61.23-82.84C557.62,192.83,494.67,222.07,447.64,262.82z"/>
<path class="st4" d="M316.47,449.82c0.1-9.24,44.52-3.65,109.86-31.52c34.8-14.84,50.16-28.36,63.03-20.71
	c14.78,8.77,18.44,40.75,5.4,58.53c-13.46,18.37-41.43,17.07-85.55,14.41C373.86,468.4,316.35,460.34,316.47,449.82z"/>
<path class="st5" d="M773.01,789.09c-43.26-0.55-75.83-9.68-102.95-17.5c-28.58-8.23-45.45-15.93-54.03-20.11
	c-15.48-7.54-28.11-13.82-41.72-26.41c-7.53-6.97-19.81-18.58-28.22-38.12c-10.57-24.58-8.31-46.15-7.8-50.43
	c2.61-21.97,12.31-36.76,18.31-45.92c14.16-21.61,31.64-33.49,40.4-39.33c5.65-3.76,10.83-6.67,15.12-8.87
	c0.1-0.01,0.22-0.03,0.32-0.05c6.7-3.47,15.68-7.79,26.55-12.08c3.54-1.4,19.13-7.46,41.41-12.8c5.82-1.39,26.08-6.09,53.42-8.5
	c14.19-1.25,31.84-2.03,52.14-1.11c2.27-8.72,4.34-18.04,6.08-27.94c0.81-4.63,1.52-9.15,2.12-13.56
	c-27.85-0.97-60.78-0.03-97.36,5.15c-49.99,7.09-91.94,20-124.29,32.63c-24.45,8.09-55.04,20.72-87.65,40.82
	c-37.06,22.84-64.6,47.85-83.78,68.1c8.9,3.32,18.43,6.54,28.57,9.53c6.79,2,13.39,3.77,19.77,5.33
	c2.84-4.51,6.99-10.52,12.69-17.01c1.74-1.98,9.74-10.98,24.08-21.56c14.15-10.45,26.26-16.37,34.43-20.32
	c17.06-8.24,31.21-12.75,40.44-15.5c-11.23,7.44-29.73,22.28-42.04,47.38c-20.88,42.57-8.6,83.28-5.35,92.92
	c17.25,51.23,64.19,74.11,100.85,91.85c0,0,88.73,42.92,169.57,18.19c6.14-1.88,12.2-4.12,12.2-4.12c0,0,0.01,0,0.01,0
	c14.05-5.16,25.49-10.65,33.83-15.04C814.07,787.4,794.8,789.37,773.01,789.09z"/>
<path class="st3" d="M537.88,628.3c-2.87,12.93-4.63,30.27,0.48,48.92c21.96,80.13,151.05,112.86,237.81,111.86
	c20.39-0.24,174.42-3.92,214.46-97.72c9.05-21.19,9.97-41.56,9.1-56.18C845.79,632.88,691.83,630.59,537.88,628.3z"/>
<ellipse class="st2" cx="768.39" cy="641.2" rx="231.59" ry="133.71"/>
<ellipse class="st1" cx="768.39" cy="641.2" rx="193.46" ry="111.7"/>
<ellipse class="st2" cx="768.39" cy="641.2" rx="80.99" ry="46.76"/>
<path class="st2" d="M817.01,663.86c2.03,7.78,7.07,20.06,20.97,32.86c22.52,20.73,54.42,30.04,67.9,33.44
	c10.65-8.46,21.3-16.91,31.95-25.37c-12.99,4.03-28.09,3.85-38.94-0.58c-8.9-3.63-12-8.93-12.98-10.95
	c5.72-0.45,11.75-1.19,17.97-2.31c36.83-6.62,58.76-22.78,68.9-31.71c0-7.69,0-15.37,0-23.06c-3.18,6.45-13.19,23.37-41.94,34.59
	c-11.79,4.6-39.73,15.51-63.91,8.07c-17.07-5.25-26.47-17.87-24.96-31.71C833.65,652.71,825.33,658.29,817.01,663.86z"/>
<path class="st2" d="M739.57,684.89c1.17,6.4,1.41,15.14-2.44,25.09c-7.81,20.2-27.79,33.37-37.95,39.2
	c20.99,2.42,41.99,4.85,62.98,7.27c7.27-5.31,16.71-13.74,21.89-25.14c11.8-25.97-7.38-47.75-12.98-53.61
	C760.57,680.1,750.07,682.49,739.57,684.89z"/>
<path class="st2" d="M701.18,641.95c-25.67,0.66-39.74-3.33-47.93-8.07c-12.92-7.49-9.96-16.17-22.97-22.48
	c-12.23-5.94-30.25-5.75-46.35-3.93l0,0c-1.86-4.45-3.71-8.91-5.57-13.36c5.46-0.95,19.44-2.92,35.95,0
	c20.64,3.66,31.16,12.48,33.95,14.99c-2.46-4.81-4.59-10.21-5.99-16.14c-4.46-18.91,0.54-35.04,5.99-46.12
	c8.32-4.42,16.64-8.84,24.96-13.26c-2.12,10.07-4.78,24.09-6.99,40.93c-4.07,31.05-2.33,38.87,6.99,43.24
	c3.87,1.81,15.82,6.21,44.93,0.58C712.5,626.2,706.84,634.08,701.18,641.95z"/>
<path class="st2" d="M770.08,598.72c-4.58-5.74-12.88-18.32-8.99-34.01c7.04-28.36,47.9-42.9,53.92-44.97
	c15.64,4.42,31.29,8.84,46.93,13.26c-19.62,6.04-44.58,16.23-51.92,32.28c-10.96,23.98,23.57,47.48,13.98,51.89
	C819.85,619.07,807.65,617.32,770.08,598.72z"/>
<path class="st2" d="M844.89,625.81c10.95-1.2,27.31-3.87,44.02-10.37c32.82-12.76,44.44-31.49,47.93-38.05
	c6.32,5.57,12.65,11.15,18.97,16.72c-4.19,5.68-17.23,21.28-47.93,32.28c-32,11.47-63.4,10.85-73.89,10.38
	C837.62,633.11,841.25,629.46,844.89,625.81z"/>
<ellipse class="st0" cx="768.39" cy="641.2" rx="60.52" ry="34.94"/>
<path class="st2" d="M696.41,661.86c-11.08-0.7-28.08-0.89-47.34,2.51c-37.84,6.69-58.41,22.65-65.06,28.33
	c-3.24-6.4-6.47-12.79-9.71-19.19c6.88-4.73,27.22-17.46,62.15-22.82c36.4-5.58,66.12,0.29,75.92,2.51
	C707.05,656.1,701.73,658.98,696.41,661.86z"/>
</svg>
