<?xml version="1.0" encoding="utf-8"?>
<!-- Generator: Adobe Illustrator 23.0.1, SVG Export Plug-In . SVG Version: 6.00 Build 0)  -->
<svg version="1.1" id="Слой_1" xmlns="http://www.w3.org/2000/svg" xmlns:xlink="http://www.w3.org/1999/xlink" x="0px" y="0px"
	 viewBox="0 0 1000 1000" style="enable-background:new 0 0 1000 1000;" xml:space="preserve">
<style type="text/css">
	.st0{fill:#ECDAA9;}
	.st1{fill:#D1C297;}
	.st2{opacity:0.2;fill:#A09575;}
	.st3{fill:#FDE9B4;}
	.st4{fill:#D4C7AC;}
	.st5{fill:#FCEBC9;}
	.st6{fill:#E8D8BA;}
	.st7{opacity:0.2;fill:#FFFFFF;}
	.st8{opacity:0.3;fill:#FFFFFF;}
	.st9{fill:none;stroke:#542920;stroke-width:13.1024;stroke-miterlimit:10;}
	.st10{fill:#E84040;}
</style>
<g>
	<path class="st0" d="M96.63,775.08h889.2c7.83,0,14.17-6.35,14.17-14.17V386.7H82.46v374.2C82.46,768.73,88.8,775.08,96.63,775.08z
		"/>
	<circle class="st1" cx="860.83" cy="483.55" r="48.04"/>
	<circle class="st1" cx="462.66" cy="578.9" r="95.36"/>
	<circle class="st1" cx="744.97" cy="658.83" r="40.64"/>
	<path class="st2" d="M82.46,386.7c-0.41,76.68-0.82,153.37-1.23,230.05c81.53,52.77,163.07,105.55,244.6,158.32
		c21.1,0,42.2,0,63.3,0c1.95-40,2.65-71.37,2.91-92.81c0.19-15.84,0.2-30.74-0.73-49.5c-1.09-21.99-1.63-32.99-2.91-37.85
		c-10.27-39.14-56.89-33.02-91.72-80.07c-18.06-24.4-24.29-51.41-28.39-69.15c-5.36-23.24-6.22-43.46-5.82-58.23
		C202.47,387.21,142.47,386.96,82.46,386.7z"/>
	<path class="st3" d="M1000,386.7c-211.99-91.43-423.98-182.86-635.97-274.29c-38.21,13.27-107.02,42.77-172.34,106.8
		c-64.21,62.93-95.02,129.8-109.23,167.49C388.31,386.7,694.15,386.7,1000,386.7z"/>
	<polygon class="st4" points="162.92,887.59 0,793.53 0,605.41 162.92,699.47 	"/>
	<polygon class="st5" points="162.92,699.47 0,605.41 162.91,511.35 325.83,605.41 	"/>
	<polygon class="st6" points="325.84,793.53 162.92,887.59 162.92,699.47 325.84,605.41 	"/>
	<path class="st7" d="M370.7,150.16C270.09,156.19,176.42,266.99,196,311.27c17.11,38.7,110.59,3.68,329.99,11.65
		c202.97,7.37,344.75,45.39,347.46,33c1.57-7.2-46.84-17.33-144.23-58.28c-86.85-36.52-115.6-56.74-231.42-106.17
		C402.37,150.76,386.18,149.24,370.7,150.16z"/>
	<path class="st8" d="M347.41,175.4c-49.45,8.52-93.82,50.33-87.35,69.88c7.02,21.22,69.59,3.22,194.11,15.53
		c108.34,10.71,172,35.32,174.7,27.18c1.77-5.34-25.88-15.31-153.35-73.76C403.06,180.99,380.38,169.72,347.41,175.4z"/>
	<line class="st9" x1="162.92" y1="605.41" x2="162.92" y2="452.98"/>
	<circle class="st10" cx="162.92" cy="419.28" r="54.96"/>
	<path class="st7" d="M165.67,378.73c-2.97,5.02,13.08,19.16,15.29,21.11c6.63,5.84,21.95,17.46,26.2,13.83
		c3.8-3.25-1.22-18.7-11.65-27.66C184.74,376.75,168.21,374.43,165.67,378.73z"/>
</g>
</svg>
