<?xml version="1.0" encoding="utf-8"?>
<!-- Generator: Adobe Illustrator 23.0.1, SVG Export Plug-In . SVG Version: 6.00 Build 0)  -->
<svg version="1.1" id="Слой_1" xmlns="http://www.w3.org/2000/svg" xmlns:xlink="http://www.w3.org/1999/xlink" x="0px" y="0px"
	 viewBox="0 0 1000 1000" style="enable-background:new 0 0 1000 1000;" xml:space="preserve">
<style type="text/css">
	.st0{fill:#E62D2B;}
	.st1{fill:#516B2A;}
	.st2{fill:#5C7930;}
	.st3{fill:#617F33;}
	.st4{fill:#4A6125;}
	.st5{opacity:0.3;fill:#B72720;}
	.st6{fill:#E45954;}
	.st7{fill:#F7B4A6;}
	.st8{fill:#F0991F;}
	.st9{fill:#E6BE73;}
	.st10{opacity:0.2;fill:#FFFFFF;}
</style>
<g>
	<path class="st0" d="M285.4,196.24c-44.39,7.38-125.07,20.79-192.11,89.58c-16.57,17-77.65,81.57-82.03,179.16
		C4.94,605.91,122.2,696.96,152.65,718.61c25.65,18.23,142.08,95.57,282.77,52.88c130.91-39.72,208.46-160.8,221.25-269.82
		c2.78-23.71,9.84-91.93-28.06-162.97c-41.74-78.24-111.57-110.33-140.31-123.04C402.68,177.81,325.19,189.62,285.4,196.24z"/>
	<path class="st1" d="M301.46,240.64c-12.38-2.84-30.22-7.06-51.67-12.56c-13.29-3.41-29.91-8.21-63.14-17.81
		c-35.62-10.29-46.54-13.68-58.28-24.28c-9.44-8.53-15.07-17.8-18.35-24.28c6.98,6.82,17.64,15.61,32.38,22.66
		c22.9,10.96,43.94,12.12,55.58,11.87c22.01,2,54.59,8.53,85.8,30.22C290.39,231.05,296.26,235.85,301.46,240.64z"/>
	<path class="st2" d="M380.92,259.91c4.12-0.07,11.52-0.4,22.66,0c11.52,0.42,20.9,1.4,26.98,2.16c2.06-1.4,5.01-3.8,7.55-7.55
		c3.99-5.89,4.7-11.77,4.86-14.57c-4.96,3.01-10.82,3.26-15.11,0.54c-2.9-1.84-4.27-4.52-4.86-5.94c3.41-3.31,8.44-8.18,14.57-14.03
		c22.36-21.33,23.41-21.4,26.98-25.9c3.28-4.13,17.28-21.79,15.11-45.87c-2.1-23.36-18.07-37.73-22.66-41.55
		c-10.76-8.94-21.96-12.19-28.06-13.49c4.2,1.61,18.39,7.63,26.98,23.2c11.08,20.08,3.84,40.55,2.16,45.33
		c-10.17,28.8-39.52,40.22-51.27,44.79c-8.6,3.35-16.68,5.19-25.9,6.48c-18.25,2.55-39.41,2.73-99.83-9.71
		c-69.77-14.37-47.08-15.74-90.66-23.74c-11.09-2.04-27.09-4.62-41.01-17.27c-10.52-9.56-15.68-21.06-18.35-29.14
		c0.53,6.94,2.5,19.57,10.79,32.38c10.81,16.71,27.75,23.5,43.71,30.22c7.28,3.06,7.92,2.73,28.6,9.17
		c27.06,8.43,43.55,13.57,60.98,21.05c27.83,11.94,21.22,14.04,42.09,21.59C324.92,250.82,351.54,260.44,380.92,259.91z"/>
	<path class="st3" d="M362.03,237.25c2.27,0.09,6.55-0.04,11.33-2.16c5.18-2.3,8.29-5.75,9.71-7.55
		c-3.15-13.73-5.45-25.21-7.02-33.46c-6.94-36.56-10.41-54.84-8.63-65.84c0.42-2.57,1.68-9.31,0-17.81
		c-1.57-7.95-4.93-13.41-5.94-15.11c-4.75-8.03-14.03-28.46-33.46-79.87c-4.82-5.25-16.74-17.69-21.05-15.11
		c-3.43,2.05-0.55,12.74,3.24,26.44c5.8,20.97,13.93,40.78,16.73,47.49c7.32,17.54,11.37,24.88,9.17,32.92
		c-0.51,1.86-2.24,7.02-1.08,13.49c0.85,4.74,2.87,7.99,3.24,8.63c3.28,5.67,4.44,25.79-0.54,78.25
		C345.84,217.46,353.94,227.36,362.03,237.25z"/>
	<path class="st4" d="M430.57,262.07c1.86-1.26,4.5-3.38,6.91-6.64c0.89-1.22,2.9-4.15,4.23-8.42c0.88-2.81,1.18-5.28,1.27-7.07
		c1.95-14.57,1.37-26.64,0.36-35.26c-2.44-20.88-9.2-37.34-13.67-48.21c-1.81-4.42-3.47-8.05-4.68-10.61
		c3.86,1.1,9.77,3.26,15.83,7.73c2.59,1.91,8.18,6.44,14.02,16.11c16.63,27.52,11.7,57.28,11.7,57.28
		c-0.71,4.47-1.46,9.15-3.05,13.66c-0.85,2.41-3.32,7.96-8.11,12.6C446.3,262.08,433.93,262.16,430.57,262.07z"/>
	<path class="st1" d="M323.72,253.98c-2.9-10.62-6.29-21.62-10.25-32.92c-12.77-36.41-28.52-67.51-44.25-93.36
		c16.09,10.75,27.48,21.08,34.54,28.06c17.34,17.14,24.76,29.97,61.05,81.44c7.08,10.04,12.82,18.09,16.12,22.71
		c-5.35,2.07-16.56,5.58-30.76,3.78C337.56,262.09,328.44,257.05,323.72,253.98z"/>
	<path class="st5" d="M551.71,251.25c-36.14,2.97-122.48,15-205.86,78.82c-24.37,18.65-105.81,82.92-137.07,201.82
		c-27.84,105.91,0.42,193.27,12.36,224.81c12.6,5.4,24.29,9.54,34.67,12.75c9.6,2.97,25.56,7.82,46.99,10.96
		c0,0,18.63,2.73,36.58,2.95c32.49,0.4,155.94-181.9,281.93-457.45c-4.84-7.92-11.09-17.16-19.03-26.97
		c-3.12-3.86-10.64-12.92-21.58-23.47C573.24,268.29,563.62,259.85,551.71,251.25z"/>
	<path class="st6" d="M800.53,511.36c-20.44-27.83-11.92-49.21-23.13-80.22c-24.12-66.73-109.42-93.3-125.2-98.21
		c-105.77-32.94-215.06,24.99-275.22,88.5c-54.65,57.7-70.23,121.55-75.55,144.62c-29.51,127.93,29.33,230.65,44.25,255.79
		c15.81,26.63,70.66,111.22,179.16,153.26c127.56,49.42,294.3,26.49,388.75-79.61c8.22-9.24,102.35-117.83,67.78-219.35
		c-12.65-37.16-48.46-87.76-100.37-117.64C843.19,536.73,820.74,538.89,800.53,511.36z"/>
	<path class="st7" d="M695.79,602.31c-20.99-18.35-19.99-37.96-31.34-59.67c-26.59-50.88-107.26-86.95-169.46-68.33
		C403.66,501.66,375.58,633.51,405.77,706c17.27,41.47,60.57,80.24,62.6,82.03c13.15,11.61,28.44,22.74,49.65,34.54
		c53.1,29.53,125.32,69.69,205.78,53.24c11.66-2.38,112.9-23.01,130.95-97.85c14.52-60.2-30.6-131.32-81.55-151.11
		C743.95,615.48,720.73,624.11,695.79,602.31z"/>
	<path class="st0" d="M623.06,517.48c4.8,7.16,5.73,15.9,15.11,21.59c11.24,6.81,29.16,5.92,37.77-2.16
		c17.87-16.76,5.65-73.78-28.06-104.69c-44.96-41.22-113.95-22.98-126.28-19.43c-63.78,18.41-95.68,72.58-113.32,102.53
		C372.96,575.31,371.55,631,371.59,647c0.07,25.91,0.3,112.6,45.33,127.35c28.34,9.29,69.26-11.62,80.95-41.01
		c11.47-28.85-13.44-45.16-19.43-99.29c-2.39-21.61-9.76-88.29,31.3-119.8C544.89,487.27,606.61,492.94,623.06,517.48z"/>
	<path class="st0" d="M530.52,759.25c-29.19,6.29-53.9,54.8-44.53,84.17c19.65,61.55,205.49,91.66,320.55,12.95
		c19.1-13.06,63.13-43.23,69.07-92.82c8.55-71.36-67.17-134.72-105.77-137.07c-6.32-0.38-21.35-1.3-31.3,8.63
		c-0.53,0.53-10.19,10.3-8.63,22.66c2.46,19.46,28.24,20.93,44.25,44.25c9.79,14.27,16.93,37.73,9.71,55.04
		c-13.79,33.1-78.64,40.46-121.96,33.46c-52.29-8.45-100.37-25.9-100.37-25.9C549.98,760.44,541.49,756.89,530.52,759.25z"/>
	<path class="st8" d="M565.32,793.24c-8.28-5.59-41.57,12.18-38.85,34.54c1.31,10.77,10.98,22.55,19.43,21.59
		C561.89,847.54,575.15,799.87,565.32,793.24z"/>
	<path class="st8" d="M618.21,811.05c-8.25,0.58-20.91,22.83-10.25,38.31c7.58,11.02,24.21,14.63,29.68,9.17
		C646.76,849.43,629.55,810.25,618.21,811.05z"/>
	<path class="st8" d="M677.57,813.74c-7.87,0.5-16.55,17.69-12.41,31.84c0.84,2.89,4.39,13.08,14.49,16.36
		c5.06,1.64,13.41,2.09,17.35-2.33C706.34,849.13,689.33,813,677.57,813.74z"/>
	<path class="st8" d="M716.96,827.78c0.39,3.3,1.79,15.31,11.87,19.97c6.99,3.23,17.28,2.52,20.51-2.7
		c6.65-10.73-15.89-41.64-25.9-38.85C717.8,807.76,716.05,820,716.96,827.78z"/>
	<path class="st8" d="M760.67,799.71c-5.42,4.36-0.95,29.24,13.66,31.88c7.51,1.36,17.18-3.26,18.18-9.22
		C794.35,811.4,766.99,794.63,760.67,799.71z"/>
	<path class="st8" d="M794.13,781.37c4.68,11.97,7.02,17.97,12.41,19.43c6.81,1.84,16.64-4.08,17.27-10.25
		c1.14-11.25-28.11-25.05-32.38-20.51C790.21,771.33,791.51,774.68,794.13,781.37z"/>
	<path class="st8" d="M799.52,746.29c16.62,12.63,32.53,14.4,38.31,8.09c3.92-4.27,3.41-12.45,0-17.27
		c-7.97-11.27-35.6-7.17-37.77,3.78C799.89,741.75,799.52,746.29,799.52,746.29z"/>
	<path class="st9" d="M789.27,483.76c-17.05,31-36.19,49.31-50.19,60.17c-32.5,25.23-65.63,32.46-64.89,48.84
		c0.31,6.93,6.66,14.09,13.59,15.66c16.97,3.84,29.53-27.83,61.56-52.63c13.57-10.51,34.44-22.73,65.95-29.29
		c-4.55-3.36-9.97-8.26-14.76-15.15c-1.04-1.5-4.73-6.93-7.75-14.92C790.92,491.52,789.88,487.13,789.27,483.76z"/>
	<path class="st10" d="M761.87,547.14c-15.96,3.16-33.81,16.63-38.49,33.65c-8.02,29.18,28.78,46.65,54.17,105.44
		c7.9,18.3,33.7,78.03,8.63,112.24c-11.54,15.75-30.77,20.26-69.23,29.3c-62.75,14.75-84.71,3.7-105.61,22.5
		c-20.6,18.52-30.66,57.46-17.27,75.55c37.63,50.82,309.73,3.52,338.89-142.46C955.48,670.71,826.31,534.38,761.87,547.14z"/>
	<path class="st10" d="M821.44,609.24c-8.04,0.13-17.47,5.08-21.59,12.95c-13.61,26.03,45.07,56.95,50.37,112.24
		c3.77,39.36-20.11,84.7-53.24,106.49c-47.52,31.26-102.77,6.64-123.76,41.73c-0.99,1.65-10.65,18.21-4.32,27.34
		c19.16,27.61,191.92-2.24,227.37-109.37C924.05,716.69,859.79,608.62,821.44,609.24z"/>
	<path class="st8" d="M462.25,695.09c1.88,9.81-27.54,33.44-47.03,22.15c-9.39-5.44-16.42-18.95-12.21-26.35
		C410.97,676.9,460.01,683.45,462.25,695.09z"/>
	<path class="st8" d="M446.32,641.83c-3.78,7.36-29.21,10.25-39.26-5.63c-7.15-11.3-3.94-28.02,3.23-30.9
		C422.25,600.49,451.52,631.71,446.32,641.83z"/>
	<path class="st8" d="M461.64,577.17c-3.55,7.04-22.77,8.26-34.15-1.1c-2.33-1.91-10.3-9.18-9.35-19.75
		c0.48-5.3,3.34-13.15,8.96-15.04C440.41,536.81,466.95,566.64,461.64,577.17z"/>
	<path class="st8" d="M468.47,514.02c-2.88-1.65-13.37-7.66-13.69-18.76c-0.22-7.7,4.47-16.88,10.54-17.8
		c12.48-1.89,32.05,30.97,25.55,39.09C487.2,521.11,475.26,517.91,468.47,514.02z"/>
	<path class="st8" d="M525.31,488.28c-6.14,3.27-27.26-10.62-23.95-25.09c1.7-7.44,9.75-14.52,15.62-13.1
		C527.81,452.72,532.47,484.46,525.31,488.28z"/>
	<path class="st8" d="M568.8,468.01c-9.17-9-13.77-13.52-12.99-19.05c0.98-6.99,10.29-13.7,16.21-11.85
		c10.79,3.37,11.99,35.69,6.13,37.83C576.49,475.56,573.92,473.04,568.8,468.01z"/>
</g>
</svg>
