<?xml version="1.0" encoding="utf-8"?>
<!-- Generator: Adobe Illustrator 23.0.1, SVG Export Plug-In . SVG Version: 6.00 Build 0)  -->
<svg version="1.1" id="Слой_1" xmlns="http://www.w3.org/2000/svg" xmlns:xlink="http://www.w3.org/1999/xlink" x="0px" y="0px"
	 viewBox="0 0 1000 1000" style="enable-background:new 0 0 1000 1000;" xml:space="preserve">
<style type="text/css">
	.st0{fill:#6F9D2E;}
	.st1{fill:#378F36;}
	.st2{opacity:0.15;fill:#2D742A;}
	.st3{opacity:0.2;fill:#2D742A;}
	.st4{opacity:0.1;fill:#FFFFFF;}
</style>
<g>
	<path class="st0" d="M788.79,520.77c6.14,14.32,15.12,19.22,18.63,20.81c7.51,3.4,15.21,2.72,30.31,1.21
		c13.75-1.37,23.98-3.75,26.07-4.24c27.24-6.43,40.85-9.65,54.57-17.58c10.77-6.23,29.44-17.04,40.02-38.2
		c2.36-4.72,13.7-28.73,20.01-49.72c0.9-3,3.46-11.78,10.42-14.46c0.78-0.3,5.01-1.93,7.77-0.09c6.65,4.45-0.26,25.87-4.24,38.2
		c-3.83,11.85-7.79,24.12-16.98,39.41c-6.81,11.34-19.05,28.58-38.8,44.26c-22.69,18.01-44.82,25.63-58.81,30.31
		c-21.06,7.05-34.74,8.02-63.66,20.01c-7.5,3.11-13.57,5.94-17.58,7.88C793.93,572.64,791.36,546.7,788.79,520.77z"/>
	<path class="st1" d="M795.29,548.25c-7.35-30.73-8.81-43.65-20.61-56.99c-12.03-13.6-26.85-18.62-32.74-20.61
		c-46.81-15.86-103.52,19.2-166.89,48.54c-10.92,5.06-61.52,22.9-162.7,58.59c-73.69,25.99-86.11,28.81-171.2,59
		c-69.14,24.53-119.29,43.38-175.82,82.46c-27.23,18.82-70.7,49.39-64.27,70.33c3.96,12.87,25.67,18.54,64.27,21.83
		c82.85,7.05,145.78-5.2,197.65-14.55c74.6-13.45,130.78-23.58,202.5-31.53c95.03-10.53,135.81-13.34,135.81-13.34
		c21.47-1.48,90.46-5.92,158.85-32.74c11.35-4.45,25.21-10.51,36.38-24.25c21.88-26.92,17.86-64.19,15.76-83.67
		C810.12,591.33,807.52,599.34,795.29,548.25z"/>
	<path class="st0" d="M545.5,257.23c5.86-14.62,9.08-26.94,10.91-35.16c7.02-31.56,5.16-55.45,1.52-102.46
		c-0.28-3.6-1.33-16.52-5.15-33.04c-4.95-21.41-8.11-34.3-18.19-39.11c-7.51-3.59-17.16-1.86-19.1-7.28
		c-0.52-1.44-0.42-3.21,0.3-4.55c3.26-6.06,20.5-5.87,31.53-0.3c8.56,4.32,15.2,12.79,24.25,43.35
		c9.36,31.59,12.37,56.6,12.73,59.72c0.93,8.03,4.94,44.56,1.21,98.22c-1.57,22.61-4.04,41.36-6.06,54.57
		C568.14,279.86,556.82,268.55,545.5,257.23z"/>
	<path class="st1" d="M541.87,247.53c-15.38-2.44-32.32-5.13-49.72-1.21c-28.2,6.35-45.35,27.28-55.78,40.01
		c-13.55,16.55-20.96,32.8-30.31,59.42c-20.26,57.64-27.89,100.64-27.89,100.64c-20.85,117.56-29.16,101.44-37.59,172.19
		c0,0-13.52,113.51,6.06,219.48c9.48,51.29,23.33,78.52,25.89,99.29c0.23,1.9,1.14,9.92,6.41,18.04c1.67,2.57,6.34,9.76,13.77,12.42
		c11.12,3.98,23.12-4.07,27.89-7.28c28.35-19.03,40.7-64.14,53.35-103.07c9.05-27.85,20.59-54.83,30.31-82.46
		c21.53-61.13,40.35-105.39,66.69-167.34c20.92-49.18,40.56-98.91,61.84-147.93c18.61-42.87,28.92-65.22,26.68-98.22
		c-0.52-7.62-5.31-67.01-43.65-89.73c-13.13-7.78-35.9-14.64-43.65-16.98C564.44,252.47,554.63,249.56,541.87,247.53z"/>
	<path class="st2" d="M615.86,499.6c-3.52,8.51-12.75,30.79-16.35,39.47c-14.07,33.94-21.21,51.17-26.43,63.61
		c-16.39,39.05-15.32,35.56-25.27,59.75c-5.7,13.85-14.07,34.5-23.82,59.71c-5.83,15.08-10.74,28.13-14.57,38.42
		c4.46-0.47,10.76-1.12,18.32-1.89c8.25-0.83,22-2.23,37.17-3.61c12.27-1.12,11.3-0.95,36.37-3.1c20.76-1.78,31.25-2.68,36.51-3.3
		c19.24-2.26,34.26-5.03,41.57-6.46c20-3.91,34.69-7.96,44.6-10.72c25.22-7.02,36.42-11.75,44.96-15.95
		c10.81-5.32,15.19-8.72,16.62-9.86c13.84-11.05,19.76-24.56,21.94-29.7c5.98-14.08,6.16-25.8,6.44-42.82
		c0.21-12.98-1.23-21.9-2.37-27.38c-1.08-5.2-2.35-9.48-3.37-12.56c4.83-2.07,11.99-5.03,20.78-8.24
		c24.91-9.07,35.72-10.19,50.96-15.02c8.95-2.84,34.52-11.2,59.57-31.98c5.68-4.71,21.75-18.71,35.86-41.86
		c7.43-12.18,12.11-26.35,21.54-54.64c0,0,1.02-3.07,2.21-11.28c0.72-4.95,0.71-7.22-0.6-9.19c-1.82-2.74-4.95-3.32-5.16-3.36
		c-4.16-0.7-7.55,2.56-9,3.95c-4.06,3.9-5.11,8.41-6.52,13.3c-2.03,7.03-5.01,13.76-7.43,20.66c-3.23,9.2-6.78,19.35-13.66,30.31
		c-6.45,10.27-13.04,16.82-14.66,18.4c-10.34,10.09-20.41,15.22-26.78,18.4c-9.61,4.79-17.14,6.96-30.31,10.75
		c-3.65,1.05-12.94,3.64-25.22,6.02c-8.77,1.7-14.54,2.38-26.08,3.75c-12.17,1.44-16.09,1.5-20.98,0.11
		c-1.9-0.54-7.36-2.26-12.95-6.78c-2.76-2.23-7.16-6.43-10.23-12.9c-2.5-5.28-1.6-6.78-3.86-13.39c-2.76-8.09-6.76-13.62-8.36-15.79
		c-6.54-8.9-14.08-13.58-18.47-16.24c-11.07-6.72-21.06-8.71-26.56-9.75c-12.55-2.38-22.36-1.42-29.14-0.7
		c-14.21,1.5-24.1,5.05-37.67,9.93c-12.88,4.63-23.96,9.81-37.76,16.25C622.78,496.24,618.71,498.21,615.86,499.6z"/>
	<path class="st3" d="M509.42,760.56c11.8-32.47,22.21-58.73,29.84-77.4c7.82-19.13,17.56-42.13,28.67-68.37
		c4.48-10.57,8.08-19.02,13.82-32.78c5.3-12.71,10.11-24.38,16.42-39.7c3.64-8.83,7.11-17.29,12.49-30.23
		c2.18-5.24,3.98-9.56,5.2-12.48c19.48-9.73,35.29-16.37,46.25-20.65c10.32-4.03,17.55-6.44,26.24-8.43
		c7.64-1.75,17.01-3.82,29.33-3.52c10.26,0.25,18.63,2.07,24.25,3.64c-34.72,92.67-69.43,185.34-104.15,278.02
		c-7.4,0.91-13.39,1.42-17.48,1.71c-5.77,0.41-8.19,0.44-14.94,1.02c-1.74,0.15-4.05,0.36-12.15,1.22
		c-9.93,1.06-16.19,1.78-16.19,1.78c-32.15,3.68-35.25,4.17-43.65,4.85C523.88,760,515.72,760.37,509.42,760.56z"/>
	<path class="st3" d="M615.86,499.6c-6.58,16.07-15.75,38.34-26.87,64.99c-5.88,14.09-9.73,23.23-21.06,50.21
		c-5.93,14.13-21.9,52.18-27.94,66.57c-6.07,14.82-12.08,29.99-18.02,45.51c-4.34,11.34-8.52,22.58-12.56,33.69
		c5.28-0.56,13.17-1.38,22.76-2.33c17.41-1.74,30.98-2.99,48.12-4.56c6.82-0.63,16.2-1.48,27.44-2.48
		c35.43-94.73,70.86-189.47,106.29-284.2c-4.42,0.19-10.82,0.67-18.42,1.98c-9.23,1.58-18.82,4.13-37.37,11.52
		C647.09,484.92,632.59,491.15,615.86,499.6z"/>
	<path class="st3" d="M615.86,499.6c-5.52,13.49-14.03,34.19-24.56,59.45c-22.49,53.92-30.87,72.63-44.47,105.76
		c-9.22,22.46-22.34,55.19-37.41,95.76c4.56-0.48,10.84-1.13,18.32-1.89c7.98-0.81,16.89-1.71,28.3-2.78
		c6.71-0.63,15.48-1.43,25.84-2.31c35.13-94.26,70.25-188.53,105.38-282.79c-5.3,1.47-12.17,3.52-20.11,6.28
		c-3.63,1.26-15.67,5.52-31.11,12.57C630.54,492.16,623.67,495.46,615.86,499.6z"/>
	<path class="st3" d="M342.82,601.72c-1.47,10.79-3.16,25.05-4.47,41.9c-1.85,23.75-2.1,41.86-2.24,54.17
		c-0.29,24.53,0.45,42.94,0.69,48.42c0.63,14.55,1.56,27.13,2.45,37.12c-13.98,2.45-27.96,4.89-41.95,7.34
		c-3.3-31.09-4.83-67.43-2.19-107.81c1.6-24.52,4.53-47.18,8.13-67.74C316.43,610.64,329.62,606.18,342.82,601.72z"/>
	<path class="st4" d="M493.36,268.14c-35.44,3.25-56.08,51.29-67.9,78.82c-20.87,48.57-12.93,66.74-33.95,150.36
		c-11.77,46.82-14.21,40.92-21.83,75.18c-6.43,28.95-13.54,72.94-10.91,157.63c0.41,13.33,5.39,174.03,21.83,174.61
		c11.59,0.41,11.53-79.49,46.08-215.84c35.3-139.33,52.95-208.99,81.24-271.62c21.58-47.76,50.28-100.93,27.89-130.96
		C526.03,273.22,508.19,266.78,493.36,268.14z"/>
	<path class="st4" d="M482.45,297.24c-17.32,3.09-24.43,26.86-44.87,81.24c-10.88,28.96-14.71,49.35-23.04,87.31
		c-15.76,71.79-21.22,86.02-27.89,117.62c-28.33,134.27-13.66,275.21-9.7,275.25c2.34,0.03-0.67-49.41,10.91-130.96
		c3.72-26.19,15.78-104.84,49.72-207.35c40.67-122.86,86.45-200.64,63.05-219.48C493.78,295.36,483.63,297.03,482.45,297.24z"/>
	<path class="st4" d="M116.25,707.1c-26.35,11.52-39.75,20.77-65.48,38.8c-10.2,7.15-21.11,15.27-20.61,25.46
		c0.04,0.79,0.29,5.95,3.63,9c7.92,7.21,28.83-3.75,70.33-25.98c46.64-24.97,69.92-37.65,68.21-46.66
		c-0.94-4.95-6.9-7.69-10.01-9.12C152.87,694.25,142.13,695.78,116.25,707.1z"/>
	<path class="st4" d="M53.2,755.6c-0.69-1.87,12.88-9.33,40.01-24.25c31.07-17.09,46.64-25.58,48.5-23.04
		c1.89,2.57-10.19,15.93-23.04,25.46C90.11,754.97,54.66,759.55,53.2,755.6z"/>
</g>
</svg>
