<?xml version="1.0" encoding="utf-8"?>
<!-- Generator: Adobe Illustrator 23.0.1, SVG Export Plug-In . SVG Version: 6.00 Build 0)  -->
<svg version="1.1" id="Слой_1" xmlns="http://www.w3.org/2000/svg" xmlns:xlink="http://www.w3.org/1999/xlink" x="0px" y="0px"
	 viewBox="0 0 1000 1000" style="enable-background:new 0 0 1000 1000;" xml:space="preserve">
<style type="text/css">
	.st0{fill:#C5BBB4;}
	.st1{fill:#B3AAA4;}
	.st2{fill:#D1C6BF;}
	.st3{fill:#D6CBC3;}
	.st4{fill:#E8E1DF;}
	.st5{fill:#E0D8D2;}
	.st6{fill:#ADA59F;}
	.st7{opacity:0.2;fill:#9D9590;}
	.st8{opacity:0.2;fill:#FFFFFF;}
	.st9{opacity:0.3;fill:#FFFFFF;}
	.st10{fill:#EBE8D0;}
	.st11{fill:#D2D0BB;}
</style>
<g>
	<path class="st0" d="M505.47,23.12c0.31,24.3-0.68,51.48-3.95,80.95c-4.32,38.97-11.67,73.44-19.74,102.67
		c-37.94,15.43-70.02,25.32-92.8,31.59c-59.07,16.25-84.37,16.07-118.47,35.54c-31.92,18.23-52.55,42.85-65.16,61.21
		c-17.84,9.2-45.28,26.12-71.08,55.28c-11.22,12.68-37.44,44.99-51.34,92.8c-23.88,82.16,5.22,152.99,15.8,177.7
		c35.3,82.48,98.7,124.03,130.31,144.13c75.28,47.88,171.01,70.2,231.01,55.28c67.05-16.67,80.95-23.69,80.95-23.69
		c13.31-6.73,27.08-15.44,47.39-15.8c19.06-0.33,32.98,6.89,39.49,9.87c50.05,22.94,117.5,3.92,124.39,1.97
		c78.11-22.03,112.95-113.28,118.47-128.34c14.21-14.61,31.67-36.71,43.44-67.13c32.65-84.41-5.45-163.27-13.82-179.67
		c-2.08-18.48-7.57-47.36-23.69-78.98c-17.36-34.04-38.73-54.94-45.41-61.21c-27.62-25.91-50.81-32.99-110.57-57.26
		c-26.36-10.71-65.89-27.21-114.52-49.36c-3.72-21.28-6.64-45.08-7.9-71.08c-2.11-43.73,1.04-82.45,5.92-114.52
		c-2.41-2.92-19.83-23.31-49.36-23.69C525.84,1.02,508.06,20.22,505.47,23.12z"/>
	<path class="st1" d="M481.78,206.74c-0.98,5.42-3.04,13.38-7.9,21.72c-13.42,23.02-38,31.49-53.31,36.53
		c-57.69,18.98-86.54,28.47-128.34,40.48c-19.91,5.72-50.17,15.12-86.87,29.62c7.81-11.76,19.43-26.48,36.12-40.63
		c21.33-18.09,41.23-27.01,48.2-29.95c11.07-4.67,18.6-6.53,37.88-11.32c45.26-11.24,67.89-16.86,75.52-18.87
		C421.97,229.35,449.16,221.03,481.78,206.74z"/>
	<path class="st2" d="M606.16,210.69c2.1,8.9,6.01,21.7,13.82,35.54c15.56,27.58,37.23,42.78,50.35,51.34
		c55.84,36.45,93.53,42.06,133.27,64.17c26.66,14.83,63.07,41.99,96.75,95.76c-1.45-12.83-4.43-29.7-10.91-48.69
		c-8.9-26.1-20.51-44.83-26.99-54.39c-8.85-13.06-22.46-32.78-46.66-50.01c-11.47-8.17-21.64-13.16-34.53-19.48
		c-16.48-8.08-26.97-11.68-43.91-18.15c-19.31-7.38-35.85-14.44-68.94-28.55C653,231.64,631.67,222.37,606.16,210.69z"/>
	<path class="st3" d="M165.22,756.26c-1.67-189.53,54.59-282.48,106.28-332.34c66.45-64.09,173.58-103.48,205.4-201.36
		c13.24-40.72,21.12-91.92,21.12-91.92c6.74-43.8,7.83-80.97,7.45-107.52c32.91,0.66,65.81,1.32,98.72,1.97
		c-2.7,17.72-4.16,32.86-5.02,44.42c-3.36,45.5-0.4,79.23,1.85,104.89c0.76,8.69,1.52,15.6,3.17,24.14
		c2.5,12.97,5.67,29.47,15.8,47.69c9.75,17.54,21.34,28.38,28.31,34.79c8.34,7.67,17.15,14.13,32.92,23.4
		c20.36,11.98,35.67,18.85,64.68,31.77c57.78,25.73,61.01,27.11,69.23,32.41c23.91,15.4,39.58,31.4,47.61,39.69
		c11.93,12.32,25.55,26.6,37.62,49.2c6.77,12.67,10.38,22.96,13.11,30.86c4.13,11.94,11.77,34.54,13.32,65.05
		c1.89,37.22-6.37,65.02-8.15,70.78c-3.08,10.02-10.06,29.77-24.63,51.53c-8.22,12.27-16.56,21.75-23.26,28.58
		c-4.69,12.93-11.6,28.81-21.91,45.87c-9.06,15-20.45,33.5-41.57,51.52c-20.07,17.12-38.73,25.12-43.33,27.03
		c-20.93,8.67-38.06,10.35-53.31,11.84c-23,2.25-39.47,3.86-59.51-2.27c-13.78-4.21-17.2-8.39-36.2-13.11
		c-10.99-2.73-21.15-5.16-33.65-3.9c-12.83,1.3-19.67,5.64-33.55,11.84c-14.05,6.28-26.16,10-50.36,17.44
		c-14.87,4.57-39.12,12.02-67.87,14.03c-30.55,2.14-53.27-2.77-75.51-7.57c-46.69-10.08-79.86-27.01-96.93-35.87
		c-28.41-14.75-49.37-29.81-61.25-38.93C183.19,772.54,172.96,763.51,165.22,756.26z"/>
	<path class="st4" d="M870.74,704.29c-5.71-31.64-17.06-76.68-41.46-126.36c-46.7-95.07-111.68-137.9-150.06-177.7
		c-55.62-57.69-110.3-163.61-96.75-375.63c-12.53,1.01-25.06,2.02-37.59,3.03c-6.97,126.22-14.72,228.47-20.45,298.01
		c-11.48,139.33-19.89,200.43-16.99,297.71c2.37,79.59,10.07,152.18,20.22,216.57c9.96-5.23,24.67-11.39,43.29-14.08
		c10.34-1.49,19.6-1.58,27.31-1.11c10.66,4.83,26.67,11,46.89,14.81c37.3,7.02,67.12,1.92,83.4-1.09
		c22.95-4.24,37.15-6.87,54.31-16.19c33.98-18.44,51.49-47.83,65.95-72.1C859.63,732.03,866.49,715.79,870.74,704.29z"/>
	<path class="st5" d="M558.78,308.91c-9.52-65.88-17.78-162.22-7.52-283.11c-9.34-0.89-18.68-1.79-28.02-2.68
		c0.93,42.89-1.4,106.65-19.25,180.66c-32.03,132.79-89.27,195.84-144.63,312.95c-32.76,69.3-71.55,171.69-91.5,309.43
		c24.22,14.05,59.21,29.98,102.85,36.59c30.44,4.61,54.62,3.1,62.69,2.47c23.98-1.87,42.02-6.54,56.76-10.37
		c25.39-6.58,31.24-11.22,57.26-18.76c21.68-6.28,39.65-9.59,50.84-11.35c7.92-50.86,16.19-128.74,9.87-223.11
		C600.2,483.07,575.91,427.47,558.78,308.91z"/>
	<path class="st6" d="M505.47,23.12c7.75,4.77,21.33,11.67,39.49,13.82c28.81,3.42,50.93-7.28,59.23-11.85
		c-3.07-3.61-7.88-8.51-14.74-12.94c-3.92-2.53-17.08-10.44-34.62-10.75C527.11,0.9,508.66,19.75,505.47,23.12z"/>
	<path class="st7" d="M98.74,660.86c2.08-13.24,7.25-34.28,21.72-55.28c34.44-50,92.6-57.76,103.66-59.23
		c47.33-6.31,87.93,10.99,128.34,34.55C470.81,649.93,559.9,756.7,609.34,823.82c-3.68-0.07-9.67-0.03-16.99,0.68
		c-20.91,2.03-32.92,7.69-57.45,15.47c-20.5,6.51-17.95,4.41-37.56,10.58c-22.71,7.15-40.58,14.51-52.09,19.59
		c-166.79-58.07-282.64-115.34-300.27-135.26c-13.45-15.2-20.14-26.27-20.14-26.27c-5.61-9.29-8.1-15.76-18.21-33.93
		C103.36,668.79,100.59,664,98.74,660.86z"/>
	<path class="st8" d="M561.74,193.41c-21.99,0-40.58,57.68-47.39,94.77c-12.56,68.42,4.72,122.36,16.29,162.89
		c62.15,217.79,30.35,298.01,87.37,321.34c53.84,22.03,120.59-33.77,124.39-37.02c39.22-33.6,60.74-85.95,58.17-134.65
		c-5.05-95.44-98.83-104.43-169.23-244.44C586.01,266.15,586.44,193.41,561.74,193.41z"/>
	<path class="st9" d="M557.3,279.3c-4.17,1.48-5.42,8.71-5.92,29.62c-2.17,89.85,11.85,139.2,11.85,139.2
		c58.58,206.29,57.88,244.35,87.37,250.26c35.02,7.01,83.01-37.25,91.81-82.93c7.22-37.49-15.29-58.57-68.12-145.12
		C602.19,352.2,572.4,273.93,557.3,279.3z"/>
	<path class="st10" d="M500.31,935.46c0.71-18.23-0.52-45.26-11.31-75.03c-16.21-44.71-45.57-72.33-83.91-107.61
		c-37.79-34.76-48.7-35.77-86.87-71.08c-30.68-28.37-52.91-54.8-67.13-73.05c-12.34,6.09-24.68,12.18-37.02,18.26
		c-2.32,8.82-4.83,22.08-3.95,38.01c1.41,25.4,11.45,57.04,51.58,99.96C337.18,845.64,479.99,924.37,500.31,935.46z"/>
	<path class="st11" d="M214.56,626.46c2.66,15.45,8.16,37.5,20.73,61.21c28.6,53.93,74.86,80.78,99.39,94.61
		c72.38,40.81,104.42,22.71,136.56,57.42c26.67,28.8,31.84,70.68,28.63,111.55c-7.1,6.85-17.91,16.14-32.58,24.68
		c-50.96,29.67-103.19,23.97-121.43,21.72c-78.18-9.63-127.88-61.85-144.13-80.95c-68.42-80.43-57.58-177.82-55.28-198.43
		c3.27-29.33,10.83-52.79,16.78-68.12c5.59,0.19,15.53-0.22,26.65-4.94C203.03,639.65,210.95,630.98,214.56,626.46z"/>
	<path class="st6" d="M163.23,650.15L163.23,650.15c8.11,0.97,28.39,2.31,50.62-8.42c21.39-10.32,32.82-26.14,37.24-33.04
		c-21.12,5.65-37.1,12.75-47.97,18.33C186.17,635.72,163.23,650.15,163.23,650.15z"/>
	<path class="st9" d="M261.13,639.14c3.78-1.88,10.82,16.4,39.98,47.39c51.72,54.97,98.61,70.85,94.77,81.45
		c-3.11,8.57-37.97,9.64-66.64-4.44C268,733.45,253.13,643.11,261.13,639.14z"/>
</g>
</svg>
