<?xml version="1.0" encoding="utf-8"?>
<!-- Generator: Adobe Illustrator 23.0.1, SVG Export Plug-In . SVG Version: 6.00 Build 0)  -->
<svg version="1.1" id="Слой_1" xmlns="http://www.w3.org/2000/svg" xmlns:xlink="http://www.w3.org/1999/xlink" x="0px" y="0px"
	 viewBox="0 0 1000 1000" style="enable-background:new 0 0 1000 1000;" xml:space="preserve">
<style type="text/css">
	.st0{fill:#D7C9B2;}
	.st1{fill:#CABDA8;}
	.st2{fill:#E3D4BB;}
	.st3{fill:#9A7562;}
	.st4{fill:none;stroke:#9A7562;stroke-width:7.4404;stroke-miterlimit:10;}
	.st5{opacity:0.1;fill:#9A9081;}
	.st6{fill:#FBF0EA;}
	.st7{opacity:0.1;fill:#FFFFFF;}
	.st8{opacity:0.3;fill:#FFFFFF;}
</style>
<g id="шампиньоны">
	<g>
		<path class="st0" d="M347.95,133.46C160.22,135.66-22.38,307.96,2.24,430.52c16.98,84.57,130.37,134.37,238.95,154.89
			c-0.04,4.85-0.15,9.75-0.4,14.77c-3.76,73.89-30.09,129-46.37,157.51c102.54,0.26,205.07,0.53,307.61,0.79
			c-16.65-23.56-53.22-82.19-55.83-164.74c-0.05-1.67-0.05-3.29-0.07-4.94c116.51-18.3,240.2-69.81,257.63-157.73
			C728.15,307.92,540.45,131.21,347.95,133.46z"/>
		<ellipse class="st1" cx="347.95" cy="765.87" rx="156.39" ry="42.2"/>
		<path class="st2" d="M460.42,496.02"/>
		<ellipse class="st3" cx="347.95" cy="516.77" rx="198.1" ry="52.73"/>
		<path class="st0" d="M241.21,585.41c0.13-16.3-0.88-30.94-2.34-43.57c-1.28-11.01-3.58-26.4-8.05-44.43
			c-2.21-8.91-4.44-16.43-6.26-22.17c9.1-1.87,20.53-3.96,33.78-5.8c14.38-1.99,25.28-2.89,32.57-3.48
			c6.01-0.49,24.08-1.87,47.94-2.17c23.03-0.29,40.99,0.57,49.62,1.05c18.35,1.04,31.92,2.52,35.87,2.97
			c18.06,2.03,30.72,4.29,34.84,5.04c3.21,0.59,5.9,1.11,7.84,1.5c-2.74,6.95-5.93,15.8-8.96,26.23
			c-5.16,17.71-7.74,32.59-9.1,42.25c-1.81,12.84-3.14,28.36-2.9,45.99C377.79,587.69,309.5,586.55,241.21,585.41z"/>
		<path class="st4" d="M210.61,482.75c31.81-9.5,76.56-19.24,130.62-19.84c57.78-0.65,105.43,9.37,138.47,19.01"/>
	</g>
	<path class="st5" d="M390.73,289.31c-11.94,15.12-37.23,51.47-42.48,104.29c-6.38,64.3,21.08,111.3,29.76,125.66
		c22.57,37.36,51.51,58.96,68.1,69.55c7.65-1.23,15.44-2.59,23.36-4.1c3.42-0.65,6.82-1.32,10.17-2.01
		c14.44-9.48,28.88-18.96,43.32-28.43C478.89,465.95,434.81,377.63,390.73,289.31z"/>
	<path class="st5" d="M446.12,588.81c-25.62,14.6-53.59,32.66-82.43,55.01c-17.46,13.54-33.23,27.08-47.4,40.23
		c0.44,11.31,3.18,44.18,27.56,75.51c24.15,31.03,54.95,41.82,65.83,45.08c7.15-0.29,15.4-1.27,24.33-3.55
		c3.08-0.79,5.99-1.66,8.73-2.59c2.12-58.18,4.25-116.35,6.37-174.53c-0.75-4.2-1.4-8.65-1.9-13.35
		C446.38,602.79,446.08,595.48,446.12,588.81z"/>
	<g>
		<path class="st1" d="M828.56,254.71c-37.44-21.78-99.13-42.55-160.78-51.39c-61.08-8.76-104.74-3.31-121.97-0.69
			c-27.61,4.21-53.75,8.24-83.26,23.82c-40.08,21.16-72.87,56.85-86.73,88.89c-31.47,72.76,10.36,182.93,112.4,255.31
			c17.57,25.26,35.13,50.51,52.7,75.77c-24.57,14.64-49.14,29.29-73.7,43.93c27.89,10.91,55.78,21.82,83.68,32.73
			c17.27-70.62,32.88-90.71,45.62-90.92c23.02-0.38,46.69,63.91,57.34,59.57c1.6-0.65,2.33-2.61,2.69-4.14
			c106.96,49.68,238.39,75.77,301.82,12.45C1054.93,603.63,971.03,337.57,828.56,254.71z"/>
		<path class="st1" d="M457.36,808.71c70.44,47.48,138.1,70.3,151.12,50.98L353.41,687.75
			C340.38,707.07,386.92,761.23,457.36,808.71z"/>
		<path class="st6" d="M998.54,604.43c0.07-0.03,0.14-0.07,0.21-0.1c1.92-23.55,2.41-56.46-4.33-94.69
			c-4.32-24.51-32.17-169.07-165.86-254.93c-84.97-54.57-169.01-57.4-199.25-58.42c-56.77-1.91-97.55,7.79-116.52,13.51
			c-23.65,7.13-43.3,13.26-64.22,29.49c-12.95,10.05-48.64,41.22-57.1,94.17c-7.29,45.62,8.01,92.71,38.28,123.26
			c7.84,7.91,32.04,32.34,65.35,31.83c7.77-0.12,29.12-0.45,40.03-16.37c5.35-7.81,8.62-19.83,4.57-30.3
			c-5.99-15.5-21.23-13.89-29.19-27.72c-9.71-16.87-2.97-46.94,14.23-56.32c21.73-11.84,57.48,8.3,65.79,32.59
			c5.59,16.33-1.92,32.56-41.74,92.55c-23.37,35.2-44.16,64.83-60.57,87.66c-5.41,5.4-7.76,10.97-8.56,12.05
			c-41.69,56.08-90.45,87.23-126.22,105.01c85.02,57.32,170.04,114.63,255.07,171.95c-0.71-28.84,1.56-97.9,45.36-167.93
			c0.88-1.41,1.79-2.76,2.69-4.14c10.6-16.84,26.87-42.4,47.85-74.22c7.11-10.78,9.1-13.71,10.44-15.56c0,0,0.31-0.43,0.65-0.88
			c32.88-44.43,49.32-66.64,69.68-69.29c23.32-3.04,54.08,18.81,53.96,41.22c-0.08,13.69-11.68,28.56-25.78,33.13
			c-21.76,7.05-36.21-14.74-61.25-6.88c-2.88,0.91-15.85,5.32-22.14,16.95c-10.75,19.86,5.59,46.65,8.78,51.89
			c28.52,46.77,122.28,72.49,190.15,33.63C976.48,670.34,993.44,621.71,998.54,604.43z"/>
		<path class="st3" d="M554.71,474.03c11.31-17.52,20.42-32.58,27.25-44.21c6.91-11.78,9.46-16.58,9.98-23.78
			c1.48-20.4-15.07-35.63-17.6-37.89c-4.81-4.3-20.25-18.09-40.26-13.3c-14.08,3.37-26.25,14.95-29.26,29.44
			c-3.46,16.65,6.64,30.1,9.23,33.55c8.13,10.83,15.09,10.25,24.46,19.9C544.63,444.05,551.9,454.84,554.71,474.03z"/>
		<path class="st3" d="M720.96,589.75c12.08-17,22.69-31.05,30.96-41.7c8.37-10.79,11.89-14.93,18.38-18.09
			c18.4-8.94,38.68,0.79,41.71,2.3c5.78,2.88,24.31,12.1,27.27,32.46c2.09,14.32-4.15,29.92-16.49,38.09
			c-14.18,9.39-30.41,5-34.58,3.87c-13.07-3.54-15.12-10.21-27.55-15.34C752.54,587.99,739.82,585.24,720.96,589.75z"/>
	</g>
	<path class="st7" d="M254.59,171.63c-19.66,3.17-126.02,20.3-186.77,112.38C38.82,327.98,11.9,401.67,36.05,422.63
		c25.67,22.28,98.54-24.17,176.16-73.64c70.16-44.72,190.74-121.57,176.16-160.28C377.07,158.66,289.76,165.96,254.59,171.63z"/>
	<path class="st7" d="M234.3,200.28c-14.73,2.37-94.41,15.21-139.93,84.2c-21.73,32.94-41.89,88.16-23.8,103.86
		c19.23,16.69,73.83-18.11,131.98-55.17c52.56-33.5,142.9-91.08,131.98-120.08C326.06,190.56,260.65,196.03,234.3,200.28z"/>
	<path class="st7" d="M223.83,228.65c-10.3,1.66-66,10.63-97.81,58.86c-15.19,23.03-29.29,61.62-16.64,72.6
		c13.44,11.67,51.61-12.66,92.26-38.57c36.74-23.42,99.89-63.67,92.26-83.94C287.97,221.86,242.24,225.68,223.83,228.65z"/>
	<path class="st7" d="M432.58,295.5c-20.71,38.66-16.63,94.17-1.65,99.21c12.13,4.08,28.1-26.04,44.64-42.99
		c96.41-98.82,389.68,67.53,408.4,34.72c13.1-22.97-101.88-154.86-256.28-163.69C615.94,222.08,475.32,215.72,432.58,295.5z"/>
	<path class="st8" d="M572.02,241.49c-16.56,2.13-63.61,8.19-92.59,45.19c-14.55,18.58-24.93,45.45-17.64,51.81
		c8.96,7.81,33.09-25.43,83.77-40.78c30.82-9.34,64.27-6.96,131.17-2.2c52.75,3.75,64.85,8.16,66.14,4.41
		C746.41,289.59,664.04,229.65,572.02,241.49z"/>
	<path class="st7" d="M579.74,493.91c-17.16,34.2-35.65,57.81-55.11,82.67c-58.63,74.87-99.07,96.69-91.49,124.56
		c3.93,14.43,19.47,25.84,34.17,28.66c55.81,10.69,137.75-95.12,160.93-202.82c16.73-77.73,1.33-149.4-7.72-149.91
		C612.91,376.64,613.47,426.68,579.74,493.91z"/>
	<path class="st8" d="M598.48,499.42c-5.2-2.16-13.34,28-57.32,81.57c-46.78,56.99-85.03,80.66-78.26,94.8
		c4.55,9.5,27.46,10.61,45.19,5.51C585.71,658.97,610,504.21,598.48,499.42z"/>
</g>
</svg>
